<mxfile host="Electron" agent="Mozilla/5.0 (Macintosh; Intel Mac OS X 10_15_7) AppleWebKit/537.36 (KHTML, like Gecko) draw.io/26.0.4 Chrome/128.0.6613.186 Electron/32.2.5 Safari/537.36" version="26.0.4">
  <diagram name="Page-1" id="2XVnAfdDwaEslxIjmMgK">
    <mxGraphModel dx="1968" dy="1360" grid="1" gridSize="10" guides="1" tooltips="1" connect="1" arrows="1" fold="1" page="1" pageScale="1" pageWidth="850" pageHeight="1100" math="0" shadow="0">
      <root>
        <mxCell id="0" />
        <mxCell id="1" parent="0" />
        <mxCell id="5" value="Public subnet" style="points=[[0,0],[0.25,0],[0.5,0],[0.75,0],[1,0],[1,0.25],[1,0.5],[1,0.75],[1,1],[0.75,1],[0.5,1],[0.25,1],[0,1],[0,0.75],[0,0.5],[0,0.25]];outlineConnect=0;gradientColor=none;html=1;whiteSpace=wrap;fontSize=12;fontStyle=0;container=1;pointerEvents=0;collapsible=0;recursiveResize=0;shape=mxgraph.aws4.group;grIcon=mxgraph.aws4.group_security_group;grStroke=0;strokeColor=#248814;fillColor=#E9F3E6;verticalAlign=top;align=left;spacingLeft=30;fontColor=#248814;dashed=0;" parent="1" vertex="1">
          <mxGeometry x="600" y="270" width="415.14" height="210" as="geometry" />
        </mxCell>
        <mxCell id="9_3zUpzs3zl5Dn2b_ulE-8" value="" style="shape=image;verticalLabelPosition=bottom;labelBackgroundColor=default;verticalAlign=top;aspect=fixed;imageAspect=0;image=data:image/png,iVBORw0KGgoAAAANSUhEUgAAAR4AAACSCAYAAACTzKXBAAABdWlDQ1BrQ0dDb2xvclNwYWNlRGlzcGxheVAzAAAokXWQvUvDUBTFT6tS0DqIDh0cMolD1NIKdnFoKxRFMFQFq1OafgltfCQpUnETVyn4H1jBWXCwiFRwcXAQRAcR3Zw6KbhoeN6XVNoi3sfl/Ticc7lcwBtQGSv2AijplpFMxKS11Lrke4OHnlOqZrKooiwK/v276/PR9d5PiFlNu3YQ2U9cl84ul3aeAlN//V3Vn8maGv3f1EGNGRbgkYmVbYsJ3iUeMWgp4qrgvMvHgtMunzuelWSc+JZY0gpqhrhJLKc79HwHl4plrbWD2N6f1VeXxRzqUcxhEyYYilBRgQQF4X/8044/ji1yV2BQLo8CLMpESRETssTz0KFhEjJxCEHqkLhz634PrfvJbW3vFZhtcM4v2tpCAzidoZPV29p4BBgaAG7qTDVUR+qh9uZywPsJMJgChu8os2HmwiF3e38M6Hvh/GMM8B0CdpXzryPO7RqFn4Er/QcXKWq8UwZBywAAAARjSUNQDA0AAW4D4+8AAABsZVhJZk1NACoAAAAIAAQBGgAFAAAAAQAAAD4BGwAFAAAAAQAAAEYBKAADAAAAAQACAACHaQAEAAAAAQAAAE4AAAAAAAAAkAAAAAEAAACQAAAAAQACoAIABAAAAAEAAAEeoAMABAAAAAEAAACSAAAAADsvNXEAAAAJcEhZcwAAFiUAABYlAUlSJPAAABZESURBVHgB7Z0LdFzFfcZHsiQ/8PsNBWzjh/wOxkDBENcmlMQOpKShnBMccOoW4pNCAwcILS2ktISGA+TQhpyEEwcSE6fFnJSSQCiBAjEYDBjXBD/wAz/lB35gW5Zk62Gp37e6//V4vZJ3pd1Zrfb7+/w1c2fmzsz97b3fzsy9e+2cTAREQAREQAREQAQ6O4EiO8BZCxc1xeLNfy2584dxAp3/UHWEIpArAi/eMOeEK604Vx1RuyIgAoVLoKRwD735yBOVuNB56PhFIJME4jOphEo14kkAok0REIHsE5DwZJ+xWhABEUggIOFJAKJNERCB7BOQ8GSfsVoQARFIICDhSQCiTREQgewTyMldrcamJtfY1OiKi4pc8839ItfEf0h3SImlI08mAiLQOQkEFZ5jjY3uGMRlUM/TXPnpp7vJQwa5Yb16uW4lJe7A0aNu9f5P3erde9zW/ftcTW2dKykudkUSoM555umoCppAMOGh6HTrWuZmjhzpriof5c7u1dttO3w4JjiH6+pcz65d3dVjRrl5kye4t3fscs+sXuPW7/7EFWMQJPEp6HNUB98JCQQRnvpjx9zg3r3crZde7M4bMsS9smWre2zZe67i0EF3GCMbjoLKunRxg3r0cOWDB7svjy939182wy1evdY9++Eq19TYJPHphCefDqlwCWRdeDjS6d/rNPetSy52Y/r3d//yxlL3LoSnruGY64JpFNdz2Ilj2N558JCrOHjQLa+ocPMumOr+8jOTYoKzeOUHrotGPoV7lurIOx2BrAtPEdZprp8yxU0YOMDdt+RNt2LLNleK0Q1HOL5xKbk4Sqs+ctT98O13XANE62sTJ7jVe/a4Dyt2nrSPv7/iIiAC+UMgq7fTGzDFmnLWme7yEcPc05g2Ld+8NSYep1qzKYZYNdY3uCfefd+tP/Cpu27yJNene7forlf+wFVPRUAEkhPImvDw1nhTl2J31ejRbndVlXth3YbYSAdzp+Q9SUil+FTjTtfiVWvdeYMHufKhQ7AW1JhQSpsiIAL5SCBrwsMF4wFYLD6rb2/3zo6drrK6ynWBmKRjLL8B06yKqmo39YwzYutB6eyvsiIgAh2TQHpKkMYxcFF5aM+ernfXUrfyk70OT+SksXdzUS488/meispKN2ngQFfSJetLUmn3UTuIgAikTyBrwsOunFZW6sqKu7gDR4606XY414LqjzW6Ktxy79eta+wuWPqHqD1EQAQ6GoGsCQ9//FBcVBybHvEnEm027NqI0VNxMUZMEKLmn1W0uTbtKAIi0AEIZE14OsCxqQsiIAIdlIAWTbLwwWBU9iVU+/etVF2HvEPwlfCFmFJubKXsSVmo/z4kXgGvxr6Xn1QgQAL6cD6a+RjtHwjQXNaawHE8gMpnwg/hWL6QtYbaWXFn4W0YJDxGIrPhKFR3UQpVXoUy9+Ckehwn/fwUyluRqYikUr+Vz1iIvg5AZd+HXw+fC38Kns9GASXL+o54EJ2QdwyzhCf7Z1sNmtjuNcNHtnvAh8JtqvsNnGAbID6PeOU6apSjgxs6auc6Yb86Je+MCA8Xj2vxWyu+U8fsaEODq8OTy7TaYw2upr4eC8R2nVmpU4dHUQcfHOT6NOusbeAXU1F8x1LUyZ9gdGC7C4LyWGL/IDTlSFsE5+iFdis8VeG5BWUfglfDZSKQdwTaLTwUHb7SYvrIM1yPktK4+NTjTtQY/D6rBHeiPjdihNuH53BwAaYNqB6/TB/et6/rUVrirhxb7vgzjOO6U+S2Hjrk1uH1GW2pO+3OZHAH9HcdxGc2qtwNJ5gzsX0m0isQlmK7DM61oAb4BfB+8CXIP4KwAr4HHlN2lKeid4fTalGG+5xgKEN17hYlHkGZEx4DR/5g5I2FD4RT0FazLwjjhjJdsXFaPAFxpHE7WX39kT4Z3gu+Br4J9R3/ZkJCKob6yWYEfBSc7W+Ab2zhGK1vJ/UH+/COqOXXtNQXlGF/Of0iqxUo9wnCEwxl4p8P8uuxTf4T4SPhXK9bm6x/SI8b9jklH5RJmXe84jyJtFt4OKoZi5803H3pNFwFTRAGnM+RwDRCNKox0rl2XHm7hIE/FuWT0DdNnRIXHXworhtGOh99etDd/sKLeXmbHSfnHhzHRzhXxkXny2iEvNj/G05RWg7nSf4ZOK0G5e9DeCH8K/CjcAoO11qegNP+FX53LHbin29h00ZU8xF/HHVR3G6D3wGn4JxgyF+KhBvRz7VRxgcIy71CP0Kcfif8YaZjH4rNk/DzuO3ZAeTdjrqYl5Kh/EwU/DF8TMIOvNh/grQ7UR+nsmz3EgRvMg77Jpz9ihvyZ2DjtSjhRoQLorgFpSjzA2xw3/jQHGmrsD0H7fzBCiJcDL8a/jryX0b4d3AKllk10nmsj1uChUhPh88peVu9+Ra2W3h4wKUQmiaEd7z8uqvAjzrjUyokMp1fWcdHKdxI06yeWEWxk8zVQYy+DbEb1qdPTNTwgaZZae6Lo8/8RuNirdn2KGIjE37z+tYDG1Vwy7dwCdIM9RzU+w846ROB+OsyLE9bBL8mFkv+hxfzq6hvOOqrRZz9TWaxdJTjxfg0nIKWaP2Q8ATKnI+6/iYxM3Eb5cYj7Tm4f0FbMYoxBYJlKE40Y5EYj2WmkM9yN1thL+RIZhn6Mwv9/n2Ubm3NwDY90Tiy+jH24cjqKcvEdrp8WuVt9eZjGFf29nSeZzi98ugR/Car5rjX1LjD8Eq6n55u3Orx9juEtFqs+eDDbE/Xc7Yv+t0bjfPbnFMcGqc3m2Kxk//whP8NfBv8PxOzcXJ/jLQ3ovSzEX7WL4O2JmHbRk3voPxapI1CGkdNtCNwfmtTaD4H5+jlMJw2FH5VLObcZQjvi+IMvgefCv8B6uPF9hjcRIf9pXCOhXNEVA+nfRNlpzVHW/07B7kmOjzm0XAKDUduFEHaDNRV3hzN2N9foqYp8Ivhy6JaOaqMjeii7cTgF0igAP45fLmXGRfYNvJpkbfXRl5GMzLisSPnDAsndbumVVbXqUK+Jt5eFX+qsjnOvwkn3bleH7oh/kdwpvX10h8Eu0Zv26K/QvoJoxLUZ3l++CQ2pkcJX0O4xMu83ouzHG0uHJ9YzO5BG49EcQYc5bBvfx2lnckQZTYjfVWUxmAN0lYwgvS7EPC4aP+D9C81R2N/uZ5FIaPQ0v4JfgUjrRinJGaPoD6undAomsMQ3gbfAacYrYNnwsiaghcztDMDEdbN9s7H9kzkv4a4b79EWpwvyixF5hY4xYqjJbObEUmLD+rdjPqS8rZK8zUszmXHuVDMO1VHeAcMzjWhTmgcbfyV5zyxZ8B90XkB2w/Ck9ljyRKTpD2DtKoo/RqcsLGRB0J+xtdF6RzZcPRA+3c4v6Xnwn8KjxnKc62DouifG5zanMr8NZ0HUEeJ79j5v+DHokps9NVanau9zJdQ1/fgf8I6kf5teDdcmGfBn/XKtTd6r18B6ubI6vteGrkk2qN+AvbZg+3NURrFxyzTfKzevAwzOuJJlQBOnthC9NmDBrhzhwx1ffED0O2HK9272ypcDX6N3gU/LO3kdgDHtxW+Bb4AJyuFpyXb0FKGn446uKC5GGnz4FxP+SKcF+VlcPumfRblDmGbo5e9CF7HPryY7kJIgRwDHwFvy3nBqZDZEou0EA5Ge73Rh8oW8pnMY/lbOC/e/nCOqOjs/0vwZ1HHM6jDxAxJ7bIq1LUmSQ0rvDTySbRNiQnYroBzJGYjShbJNB/WmbfWlhOsXQeLk8VxPjF73Dj31YnjXc+yMlwEuGeM9MvPOcf9ZPkKt3Xfvs4kPpwS+KOWpjQulnrsuzMN4E+gLIWHxukWhecGbkT2pEXwOfCiYPmvW1o7w9h0LI06uHbUovCA0Qr0cSbKLIKP9Ortg/i1kd+IMtei7H4vv6Xoqb7NilvYkV8SZmzbN36WydpOJoYZ5eN3Ih/jwYWHz/dchFehzset8WV4Qdiv1n7k9mOhuBzP+Xxj6rnuTtypuueVV91BLCTzfTydwBpwcja08TiOYd+U558ouxQX4nq0xW/mLyJ+OsIvR21vQ/hqFGfABd+vMxIZpwdL4Svh78H5Db0ATmvpomzObf7LKcagKOGrCDlNac12tJbJPBzPOzgG9oOjMo7gZsMvhJuIXIb47fDExweSnddnoVxrVt1C5mAvfbsXZzTlzwZlM84noS95tZnsA8raAfD1Fn26d3d/Nm6s+wBvFnwYL3+vjz3RXORex3/mV1lb6+6ZfombjQcFn3rv/fjL37PWoc5Z8c9wWA/AeSv2h/CecNrPcSE3Nkdjf02QuMHnYR728rhY/AVv2y50LykW9b8ZKHgTogK7UN/v/cKoj+LF0R/FaSu8VTFG+bkoQ8GpRF3fQfh/8PuRPoAhfD6cdgWcwuPX14sZCUYBa80Goe4RaIsC7Ns0b2OjF083mgk+Pu902+9Q5VP5JstYh3nW83WoY/v3c6/hf5s4Wl/nuuAhwCK8t6dbaan7cOcut6PysJs8aCC+Y4t58mes7QKqaCGO1Yb6Ji4E+fMEBv6F+Gs/D9w5YprnpZV6cV+8/KkHR0pmD6GOxC81rtdQ3LhOQ2Fs0bAvz0su6t4KvxfbF1hhCAOnNk/aNkI7hw96aVdjn3ifER+OvOu8/Jai/+hnYD+KHMXSjCPBtlpb+bTEu6396BD72YcWsDO4BjCF4u+6ksl3I8QmeU7ALuZxU7gwd6D7v0s4hDeQ/nFCmv/t/SgushnwcjgF5xX4EK98Py9e48X5TM7d8IlI+zc4pxM0CsVbSL8Cfin8n7Htiw0X1FuciiGPF5t/DE+hjjuium5E3o/gZr+NIpsRWt8mIf4fKP8XcArey3CuKZ3K5qH8T+HT4Vei8DI4xYe2GP3yxaM5NfW/beVjx8SWfN6pt9wBSyZ+K2W1i1yz2VNdjWnWXjdr1Ej31uYtrg7Tq2LcxarFlOuikee4s/v2cU+vWcvXDrqijv3jz6yyamflHBHM8urwRwiWvACRP442WNYvz+QGuJ0f05kQmS9YY5H2XfhEXJTX4WK9GfFfwMvgFJ+X4Im2HAkUolPZd1Dg83CKXjn8IXiiUWR/xkS0X4n2FyJqU7CvIE5P1yi8dN/Yzl1+Qrpx9O9QG/kk5Y32UxnBpdvNYOWLg7WEhig8VUdr3e/Wb3RjB/R3t14yzQ3Hf2ncC9Ovafh/02+5cKrbV3PEvbpxkyvBVCuPrdrrux/3kluN2j4WJha2dAsT859Dgt1t4bM9zyQWwIVA4bkTnnhniXfSnodzuvUBnDYeF00PRrAfL4Tb4f7UZkSUx3bOh78Ft+kes2hH4I/CP486DjOhNUOZ9cj/U/iSJOV43DzG86L+WJFbEHkQ7o8SmrD9B/hn4TbK8rlZnILIBxzr4GYNiHAaei7a2WKJCG0fC72sWNTSLYwloo60+UTHl5R3YqP5tB2f7cxauIgfUHrr9CjOBwCnjxju7p053d30/G9dxT7vt1qsL8FwArtGCNCV48e6a+B98Mt2PjxYVlLi1uzd7xa8v8Jt2rsXwtPSembsKVlXi1dl3DtzhhuF9aL5zz0fey9zQlMpbb44d06cQUo7dLJC+Dy64ZDOgfNZn93wdTjZ/YsPSScb9iO3YVHODuxDwYpbVO84JGDBLvZcy2aUORovkEYEdXHUw7p6wbfC16Muf+0DSccN5XnyTICz7ZUo++nx3NZjUb+noBSPj/v6Itb6zmnkpssH5VvlnUbTQYuarrx4w4nXmQ2lg3UGH2TsXuivV61xb27Ziv8ldKKbPXqU++4bS93723e4Oky5WhOdYB0tkIbweVAM1kSe8lFjP35RbWlph6he3olqt6GuA6iEo6iUDOU52uIoJ22L+v122jumuUO6fFC+Vd5pNp/z4jmbz/AFXjsPHHTrcRudvzRfiTtadXW4y5XfU6ycf6DqgAjkA4GcCQ/hlGDxmALEMWQZ/rO++Os08oGc+igCItBmAjkVnjb3WjuKgAjkNYGcCg8WzDC1KsJop+WF5Lymq86LgAgkJZBT4eEt8y1Y5/nNuvWuHne2ZCIgAoVBIPhdLR8rRzqrdu52K/FjUa7xYOXez1ZcBESgkxLIqPBw6mSeKi8+VFhWhKlW7KcSqe2Vbhup1apSIiACoQhkVHj48EQ9fmmV/fkb/jcLPoiItmQiIAL5RyAjwsN3H1NsbrvoQlddiwdYsz5lah5ZjcP/21VVd8IDs/n3CajHIlCABNotPPwP+/ja0qVYpxmEd+1079HuKlP+GHZVVbt3d+1u888lUm5IBUVABDJKoN0qwYcAdx486O7/39dysjjMF8R3kjcVZvSDVWUi0JEJtFt4mg8u+o9mcrDkItHpyKeX+iYCyQlkfx04ebtKFQERKGACEp4C/vB16CKQKwISnlyRV7siUMAEJDwF/OHr0EUgVwQkPLkir3ZFoIAJSHgK+MPXoYtArghIeHJFXu2KQAETOOk5nkJ/+XkBnws6dBEIRkAjnmCo1ZAIiIARkPAYCYUiIALBCEh4gqFWQyIgAkZAwmMkFIqACAQjIOEJhloNiYAIGAEJj5FQKAIiEIyAhCcYajUkAiJgBCQ8RkKhCIhAMAISnmCo1ZAIiIARkPAYCYUiIALBCEh4gqFWQyIgAkZAwmMkFIqACAQjIOEJhloNiYAIGAEJj5FQKAIiEIyAhCcYajUkAiJgBCQ8RkKhCIhAMAISnmCo1ZAIiIARkPAYCYUiIALBCEh4gqFWQyIgAkZAwmMkFIqACAQjIOEJhloNiYAIGAEJj5FQKAIiEIyAhCcYajUkAiJgBCQ8RkKhCIhAMAISnmCo1ZAIiIARkPAYCYUiIALBCEh4gqFWQyIgAkZAwmMkFIqACAQjIOEJhloNiYAIGAEJj5FQKAIiEIyAhCcYajUkAiJgBCQ8RkKhCIhAMAISnmCo1ZAIiIARkPAYCYUiIALBCEh4gqFWQyIgAkZAwmMkFIqACAQjIOEJhloNiYAIGAEJj5FQKAIiEIyAhCcYajUkAiJgBCQ8RkKhCIhAMAISnmCo1ZAIiIARkPAYCYUiIALBCEh4gqFWQyIgAkZAwmMkFIqACAQjIOEJhloNiYAIGAEJj5FQKAIiEIyAhCcYajUkAiJgBCQ8RkKhCIhAMAISnmCo1ZAIiIARkPAYCYUiIALBCEh4gqFWQyIgAkZAwmMkFIqACAQjIOEJhloNiYAIGAEJj5FQKAIiEIyAhCcYajUkAiJgBCQ8RkKhCIhAMAISnmCo1ZAIiIARkPAYCYUiIALBCEh4gqFWQyIgAkZAwmMkFIqACAQjIOEJhloNiYAIGAEJj5FQKAIiEIyAhCcYajUkAiJgBCQ8RkKhCIhAMAISnmCo1ZAIiIARkPAYCYUiIALBCEh4gqFWQyIgAkZAwmMkFIqACAQjIOEJhloNiYAIGAEJj5FQKAIiEIyAhCcYajUkAiJgBCQ8RkKhCIhAMAISnmCo1ZAIiIARkPAYCYUiIALBCEh4gqFWQyIgAkZAwmMkFIqACAQjIOEJhloNiYAIGAEJj5FQKAIiEIyAhCcYajUkAiJgBEosYuGshYuaLK5QBERABLJBQCOebFBVnSIgAiIgAiIgAiIgAiIgAgVO4P8BaHJzihquuDIAAAAASUVORK5CYII=;" vertex="1" parent="1">
          <mxGeometry x="92.09" y="580" width="411.37" height="210" as="geometry" />
        </mxCell>
        <mxCell id="9_3zUpzs3zl5Dn2b_ulE-10" value="" style="shape=image;verticalLabelPosition=bottom;labelBackgroundColor=default;verticalAlign=top;aspect=fixed;imageAspect=0;image=data:image/png,iVBORw0KGgoAAAANSUhEUgAAAR4AAACSCAYAAACTzKXBAAABdWlDQ1BrQ0dDb2xvclNwYWNlRGlzcGxheVAzAAAokXWQvUvDUBTFT6tS0DqIDh0cMolD1NIKdnFoKxRFMFQFq1OafgltfCQpUnETVyn4H1jBWXCwiFRwcXAQRAcR3Zw6KbhoeN6XVNoi3sfl/Ticc7lcwBtQGSv2AijplpFMxKS11Lrke4OHnlOqZrKooiwK/v276/PR9d5PiFlNu3YQ2U9cl84ul3aeAlN//V3Vn8maGv3f1EGNGRbgkYmVbYsJ3iUeMWgp4qrgvMvHgtMunzuelWSc+JZY0gpqhrhJLKc79HwHl4plrbWD2N6f1VeXxRzqUcxhEyYYilBRgQQF4X/8044/ji1yV2BQLo8CLMpESRETssTz0KFhEjJxCEHqkLhz634PrfvJbW3vFZhtcM4v2tpCAzidoZPV29p4BBgaAG7qTDVUR+qh9uZywPsJMJgChu8os2HmwiF3e38M6Hvh/GMM8B0CdpXzryPO7RqFn4Er/QcXKWq8UwZBywAAAARjSUNQDA0AAW4D4+8AAABsZVhJZk1NACoAAAAIAAQBGgAFAAAAAQAAAD4BGwAFAAAAAQAAAEYBKAADAAAAAQACAACHaQAEAAAAAQAAAE4AAAAAAAAAkAAAAAEAAACQAAAAAQACoAIABAAAAAEAAAEeoAMABAAAAAEAAACSAAAAADsvNXEAAAAJcEhZcwAAFiUAABYlAUlSJPAAABZESURBVHgB7Z0LdFzFfcZHsiQ/8PsNBWzjh/wOxkDBENcmlMQOpKShnBMccOoW4pNCAwcILS2ktISGA+TQhpyEEwcSE6fFnJSSQCiBAjEYDBjXBD/wAz/lB35gW5Zk62Gp37e6//V4vZJ3pd1Zrfb7+/w1c2fmzsz97b3fzsy9e+2cTAREQAREQAREQAQ6O4EiO8BZCxc1xeLNfy2584dxAp3/UHWEIpArAi/eMOeEK604Vx1RuyIgAoVLoKRwD735yBOVuNB56PhFIJME4jOphEo14kkAok0REIHsE5DwZJ+xWhABEUggIOFJAKJNERCB7BOQ8GSfsVoQARFIICDhSQCiTREQgewTyMldrcamJtfY1OiKi4pc8839ItfEf0h3SImlI08mAiLQOQkEFZ5jjY3uGMRlUM/TXPnpp7vJQwa5Yb16uW4lJe7A0aNu9f5P3erde9zW/ftcTW2dKykudkUSoM555umoCppAMOGh6HTrWuZmjhzpriof5c7u1dttO3w4JjiH6+pcz65d3dVjRrl5kye4t3fscs+sXuPW7/7EFWMQJPEp6HNUB98JCQQRnvpjx9zg3r3crZde7M4bMsS9smWre2zZe67i0EF3GCMbjoLKunRxg3r0cOWDB7svjy939182wy1evdY9++Eq19TYJPHphCefDqlwCWRdeDjS6d/rNPetSy52Y/r3d//yxlL3LoSnruGY64JpFNdz2Ilj2N558JCrOHjQLa+ocPMumOr+8jOTYoKzeOUHrotGPoV7lurIOx2BrAtPEdZprp8yxU0YOMDdt+RNt2LLNleK0Q1HOL5xKbk4Sqs+ctT98O13XANE62sTJ7jVe/a4Dyt2nrSPv7/iIiAC+UMgq7fTGzDFmnLWme7yEcPc05g2Ld+8NSYep1qzKYZYNdY3uCfefd+tP/Cpu27yJNene7forlf+wFVPRUAEkhPImvDw1nhTl2J31ejRbndVlXth3YbYSAdzp+Q9SUil+FTjTtfiVWvdeYMHufKhQ7AW1JhQSpsiIAL5SCBrwsMF4wFYLD6rb2/3zo6drrK6ynWBmKRjLL8B06yKqmo39YwzYutB6eyvsiIgAh2TQHpKkMYxcFF5aM+ernfXUrfyk70OT+SksXdzUS488/meispKN2ngQFfSJetLUmn3UTuIgAikTyBrwsOunFZW6sqKu7gDR4606XY414LqjzW6Ktxy79eta+wuWPqHqD1EQAQ6GoGsCQ9//FBcVBybHvEnEm027NqI0VNxMUZMEKLmn1W0uTbtKAIi0AEIZE14OsCxqQsiIAIdlIAWTbLwwWBU9iVU+/etVF2HvEPwlfCFmFJubKXsSVmo/z4kXgGvxr6Xn1QgQAL6cD6a+RjtHwjQXNaawHE8gMpnwg/hWL6QtYbaWXFn4W0YJDxGIrPhKFR3UQpVXoUy9+Ckehwn/fwUyluRqYikUr+Vz1iIvg5AZd+HXw+fC38Kns9GASXL+o54EJ2QdwyzhCf7Z1sNmtjuNcNHtnvAh8JtqvsNnGAbID6PeOU6apSjgxs6auc6Yb86Je+MCA8Xj2vxWyu+U8fsaEODq8OTy7TaYw2upr4eC8R2nVmpU4dHUQcfHOT6NOusbeAXU1F8x1LUyZ9gdGC7C4LyWGL/IDTlSFsE5+iFdis8VeG5BWUfglfDZSKQdwTaLTwUHb7SYvrIM1yPktK4+NTjTtQY/D6rBHeiPjdihNuH53BwAaYNqB6/TB/et6/rUVrirhxb7vgzjOO6U+S2Hjrk1uH1GW2pO+3OZHAH9HcdxGc2qtwNJ5gzsX0m0isQlmK7DM61oAb4BfB+8CXIP4KwAr4HHlN2lKeid4fTalGG+5xgKEN17hYlHkGZEx4DR/5g5I2FD4RT0FazLwjjhjJdsXFaPAFxpHE7WX39kT4Z3gu+Br4J9R3/ZkJCKob6yWYEfBSc7W+Ab2zhGK1vJ/UH+/COqOXXtNQXlGF/Of0iqxUo9wnCEwxl4p8P8uuxTf4T4SPhXK9bm6x/SI8b9jklH5RJmXe84jyJtFt4OKoZi5803H3pNFwFTRAGnM+RwDRCNKox0rl2XHm7hIE/FuWT0DdNnRIXHXworhtGOh99etDd/sKLeXmbHSfnHhzHRzhXxkXny2iEvNj/G05RWg7nSf4ZOK0G5e9DeCH8K/CjcAoO11qegNP+FX53LHbin29h00ZU8xF/HHVR3G6D3wGn4JxgyF+KhBvRz7VRxgcIy71CP0Kcfif8YaZjH4rNk/DzuO3ZAeTdjrqYl5Kh/EwU/DF8TMIOvNh/grQ7UR+nsmz3EgRvMg77Jpz9ihvyZ2DjtSjhRoQLorgFpSjzA2xw3/jQHGmrsD0H7fzBCiJcDL8a/jryX0b4d3AKllk10nmsj1uChUhPh88peVu9+Ra2W3h4wKUQmiaEd7z8uqvAjzrjUyokMp1fWcdHKdxI06yeWEWxk8zVQYy+DbEb1qdPTNTwgaZZae6Lo8/8RuNirdn2KGIjE37z+tYDG1Vwy7dwCdIM9RzU+w846ROB+OsyLE9bBL8mFkv+hxfzq6hvOOqrRZz9TWaxdJTjxfg0nIKWaP2Q8ATKnI+6/iYxM3Eb5cYj7Tm4f0FbMYoxBYJlKE40Y5EYj2WmkM9yN1thL+RIZhn6Mwv9/n2Ubm3NwDY90Tiy+jH24cjqKcvEdrp8WuVt9eZjGFf29nSeZzi98ugR/Car5rjX1LjD8Eq6n55u3Orx9juEtFqs+eDDbE/Xc7Yv+t0bjfPbnFMcGqc3m2Kxk//whP8NfBv8PxOzcXJ/jLQ3ovSzEX7WL4O2JmHbRk3voPxapI1CGkdNtCNwfmtTaD4H5+jlMJw2FH5VLObcZQjvi+IMvgefCv8B6uPF9hjcRIf9pXCOhXNEVA+nfRNlpzVHW/07B7kmOjzm0XAKDUduFEHaDNRV3hzN2N9foqYp8Ivhy6JaOaqMjeii7cTgF0igAP45fLmXGRfYNvJpkbfXRl5GMzLisSPnDAsndbumVVbXqUK+Jt5eFX+qsjnOvwkn3bleH7oh/kdwpvX10h8Eu0Zv26K/QvoJoxLUZ3l++CQ2pkcJX0O4xMu83ouzHG0uHJ9YzO5BG49EcQYc5bBvfx2lnckQZTYjfVWUxmAN0lYwgvS7EPC4aP+D9C81R2N/uZ5FIaPQ0v4JfgUjrRinJGaPoD6undAomsMQ3gbfAacYrYNnwsiaghcztDMDEdbN9s7H9kzkv4a4b79EWpwvyixF5hY4xYqjJbObEUmLD+rdjPqS8rZK8zUszmXHuVDMO1VHeAcMzjWhTmgcbfyV5zyxZ8B90XkB2w/Ck9ljyRKTpD2DtKoo/RqcsLGRB0J+xtdF6RzZcPRA+3c4v6Xnwn8KjxnKc62DouifG5zanMr8NZ0HUEeJ79j5v+DHokps9NVanau9zJdQ1/fgf8I6kf5teDdcmGfBn/XKtTd6r18B6ubI6vteGrkk2qN+AvbZg+3NURrFxyzTfKzevAwzOuJJlQBOnthC9NmDBrhzhwx1ffED0O2HK9272ypcDX6N3gU/LO3kdgDHtxW+Bb4AJyuFpyXb0FKGn446uKC5GGnz4FxP+SKcF+VlcPumfRblDmGbo5e9CF7HPryY7kJIgRwDHwFvy3nBqZDZEou0EA5Ge73Rh8oW8pnMY/lbOC/e/nCOqOjs/0vwZ1HHM6jDxAxJ7bIq1LUmSQ0rvDTySbRNiQnYroBzJGYjShbJNB/WmbfWlhOsXQeLk8VxPjF73Dj31YnjXc+yMlwEuGeM9MvPOcf9ZPkKt3Xfvs4kPpwS+KOWpjQulnrsuzMN4E+gLIWHxukWhecGbkT2pEXwOfCiYPmvW1o7w9h0LI06uHbUovCA0Qr0cSbKLIKP9Ortg/i1kd+IMtei7H4vv6Xoqb7NilvYkV8SZmzbN36WydpOJoYZ5eN3Ih/jwYWHz/dchFehzset8WV4Qdiv1n7k9mOhuBzP+Xxj6rnuTtypuueVV91BLCTzfTydwBpwcja08TiOYd+U558ouxQX4nq0xW/mLyJ+OsIvR21vQ/hqFGfABd+vMxIZpwdL4Svh78H5Db0ATmvpomzObf7LKcagKOGrCDlNac12tJbJPBzPOzgG9oOjMo7gZsMvhJuIXIb47fDExweSnddnoVxrVt1C5mAvfbsXZzTlzwZlM84noS95tZnsA8raAfD1Fn26d3d/Nm6s+wBvFnwYL3+vjz3RXORex3/mV1lb6+6ZfombjQcFn3rv/fjL37PWoc5Z8c9wWA/AeSv2h/CecNrPcSE3Nkdjf02QuMHnYR728rhY/AVv2y50LykW9b8ZKHgTogK7UN/v/cKoj+LF0R/FaSu8VTFG+bkoQ8GpRF3fQfh/8PuRPoAhfD6cdgWcwuPX14sZCUYBa80Goe4RaIsC7Ns0b2OjF083mgk+Pu902+9Q5VP5JstYh3nW83WoY/v3c6/hf5s4Wl/nuuAhwCK8t6dbaan7cOcut6PysJs8aCC+Y4t58mes7QKqaCGO1Yb6Ji4E+fMEBv6F+Gs/D9w5YprnpZV6cV+8/KkHR0pmD6GOxC81rtdQ3LhOQ2Fs0bAvz0su6t4KvxfbF1hhCAOnNk/aNkI7hw96aVdjn3ifER+OvOu8/Jai/+hnYD+KHMXSjCPBtlpb+bTEu6396BD72YcWsDO4BjCF4u+6ksl3I8QmeU7ALuZxU7gwd6D7v0s4hDeQ/nFCmv/t/SgushnwcjgF5xX4EK98Py9e48X5TM7d8IlI+zc4pxM0CsVbSL8Cfin8n7Htiw0X1FuciiGPF5t/DE+hjjuium5E3o/gZr+NIpsRWt8mIf4fKP8XcArey3CuKZ3K5qH8T+HT4Vei8DI4xYe2GP3yxaM5NfW/beVjx8SWfN6pt9wBSyZ+K2W1i1yz2VNdjWnWXjdr1Ej31uYtrg7Tq2LcxarFlOuikee4s/v2cU+vWcvXDrqijv3jz6yyamflHBHM8urwRwiWvACRP442WNYvz+QGuJ0f05kQmS9YY5H2XfhEXJTX4WK9GfFfwMvgFJ+X4Im2HAkUolPZd1Dg83CKXjn8IXiiUWR/xkS0X4n2FyJqU7CvIE5P1yi8dN/Yzl1+Qrpx9O9QG/kk5Y32UxnBpdvNYOWLg7WEhig8VUdr3e/Wb3RjB/R3t14yzQ3Hf2ncC9Ovafh/02+5cKrbV3PEvbpxkyvBVCuPrdrrux/3kluN2j4WJha2dAsT859Dgt1t4bM9zyQWwIVA4bkTnnhniXfSnodzuvUBnDYeF00PRrAfL4Tb4f7UZkSUx3bOh78Ft+kes2hH4I/CP486DjOhNUOZ9cj/U/iSJOV43DzG86L+WJFbEHkQ7o8SmrD9B/hn4TbK8rlZnILIBxzr4GYNiHAaei7a2WKJCG0fC72sWNTSLYwloo60+UTHl5R3YqP5tB2f7cxauIgfUHrr9CjOBwCnjxju7p053d30/G9dxT7vt1qsL8FwArtGCNCV48e6a+B98Mt2PjxYVlLi1uzd7xa8v8Jt2rsXwtPSembsKVlXi1dl3DtzhhuF9aL5zz0fey9zQlMpbb44d06cQUo7dLJC+Dy64ZDOgfNZn93wdTjZ/YsPSScb9iO3YVHODuxDwYpbVO84JGDBLvZcy2aUORovkEYEdXHUw7p6wbfC16Muf+0DSccN5XnyTICz7ZUo++nx3NZjUb+noBSPj/v6Itb6zmnkpssH5VvlnUbTQYuarrx4w4nXmQ2lg3UGH2TsXuivV61xb27Ziv8ldKKbPXqU++4bS93723e4Oky5WhOdYB0tkIbweVAM1kSe8lFjP35RbWlph6he3olqt6GuA6iEo6iUDOU52uIoJ22L+v122jumuUO6fFC+Vd5pNp/z4jmbz/AFXjsPHHTrcRudvzRfiTtadXW4y5XfU6ycf6DqgAjkA4GcCQ/hlGDxmALEMWQZ/rO++Os08oGc+igCItBmAjkVnjb3WjuKgAjkNYGcCg8WzDC1KsJop+WF5Lymq86LgAgkJZBT4eEt8y1Y5/nNuvWuHne2ZCIgAoVBIPhdLR8rRzqrdu52K/FjUa7xYOXez1ZcBESgkxLIqPBw6mSeKi8+VFhWhKlW7KcSqe2Vbhup1apSIiACoQhkVHj48EQ9fmmV/fkb/jcLPoiItmQiIAL5RyAjwsN3H1NsbrvoQlddiwdYsz5lah5ZjcP/21VVd8IDs/n3CajHIlCABNotPPwP+/ja0qVYpxmEd+1079HuKlP+GHZVVbt3d+1u888lUm5IBUVABDJKoN0qwYcAdx486O7/39dysjjMF8R3kjcVZvSDVWUi0JEJtFt4mg8u+o9mcrDkItHpyKeX+iYCyQlkfx04ebtKFQERKGACEp4C/vB16CKQKwISnlyRV7siUMAEJDwF/OHr0EUgVwQkPLkir3ZFoIAJSHgK+MPXoYtArghIeHJFXu2KQAETOOk5nkJ/+XkBnws6dBEIRkAjnmCo1ZAIiIARkPAYCYUiIALBCEh4gqFWQyIgAkZAwmMkFIqACAQjIOEJhloNiYAIGAEJj5FQKAIiEIyAhCcYajUkAiJgBCQ8RkKhCIhAMAISnmCo1ZAIiIARkPAYCYUiIALBCEh4gqFWQyIgAkZAwmMkFIqACAQjIOEJhloNiYAIGAEJj5FQKAIiEIyAhCcYajUkAiJgBCQ8RkKhCIhAMAISnmCo1ZAIiIARkPAYCYUiIALBCEh4gqFWQyIgAkZAwmMkFIqACAQjIOEJhloNiYAIGAEJj5FQKAIiEIyAhCcYajUkAiJgBCQ8RkKhCIhAMAISnmCo1ZAIiIARkPAYCYUiIALBCEh4gqFWQyIgAkZAwmMkFIqACAQjIOEJhloNiYAIGAEJj5FQKAIiEIyAhCcYajUkAiJgBCQ8RkKhCIhAMAISnmCo1ZAIiIARkPAYCYUiIALBCEh4gqFWQyIgAkZAwmMkFIqACAQjIOEJhloNiYAIGAEJj5FQKAIiEIyAhCcYajUkAiJgBCQ8RkKhCIhAMAISnmCo1ZAIiIARkPAYCYUiIALBCEh4gqFWQyIgAkZAwmMkFIqACAQjIOEJhloNiYAIGAEJj5FQKAIiEIyAhCcYajUkAiJgBCQ8RkKhCIhAMAISnmCo1ZAIiIARkPAYCYUiIALBCEh4gqFWQyIgAkZAwmMkFIqACAQjIOEJhloNiYAIGAEJj5FQKAIiEIyAhCcYajUkAiJgBCQ8RkKhCIhAMAISnmCo1ZAIiIARkPAYCYUiIALBCEh4gqFWQyIgAkZAwmMkFIqACAQjIOEJhloNiYAIGAEJj5FQKAIiEIyAhCcYajUkAiJgBCQ8RkKhCIhAMAISnmCo1ZAIiIARkPAYCYUiIALBCEh4gqFWQyIgAkZAwmMkFIqACAQjIOEJhloNiYAIGAEJj5FQKAIiEIyAhCcYajUkAiJgBCQ8RkKhCIhAMAISnmCo1ZAIiIARkPAYCYUiIALBCEh4gqFWQyIgAkZAwmMkFIqACAQjIOEJhloNiYAIGAEJj5FQKAIiEIyAhCcYajUkAiJgBEosYuGshYuaLK5QBERABLJBQCOebFBVnSIgAiIgAiIgAiIgAiIgAgVO4P8BaHJzihquuDIAAAAASUVORK5CYII=;" vertex="1" parent="1">
          <mxGeometry x="92.08999999999999" y="870" width="430.96" height="220" as="geometry" />
        </mxCell>
        <mxCell id="9_3zUpzs3zl5Dn2b_ulE-11" value="" style="shape=image;verticalLabelPosition=bottom;labelBackgroundColor=default;verticalAlign=top;aspect=fixed;imageAspect=0;image=data:image/png,iVBORw0KGgoAAAANSUhEUgAAAUAAAAFACAYAAADNkKWqAAABdWlDQ1BrQ0dDb2xvclNwYWNlRGlzcGxheVAzAAAokXWQvUvDUBTFT6tS0DqIDh0cMolD1NIKdnFoKxRFMFQFq1OafgltfCQpUnETVyn4H1jBWXCwiFRwcXAQRAcR3Zw6KbhoeN6XVNoi3sfl/Ticc7lcwBtQGSv2AijplpFMxKS11Lrke4OHnlOqZrKooiwK/v276/PR9d5PiFlNu3YQ2U9cl84ul3aeAlN//V3Vn8maGv3f1EGNGRbgkYmVbYsJ3iUeMWgp4qrgvMvHgtMunzuelWSc+JZY0gpqhrhJLKc79HwHl4plrbWD2N6f1VeXxRzqUcxhEyYYilBRgQQF4X/8044/ji1yV2BQLo8CLMpESRETssTz0KFhEjJxCEHqkLhz634PrfvJbW3vFZhtcM4v2tpCAzidoZPV29p4BBgaAG7qTDVUR+qh9uZywPsJMJgChu8os2HmwiF3e38M6Hvh/GMM8B0CdpXzryPO7RqFn4Er/QcXKWq8UwZBywAAAARjSUNQDA0AAW4D4+8AAAA4ZVhJZk1NACoAAAAIAAGHaQAEAAAAAQAAABoAAAAAAAKgAgAEAAAAAQAAAUCgAwAEAAAAAQAAAUAAAAAAQZcFzgAAM3BJREFUeAHtnQeYJFd178+kntyTc940m7QrtLtaISwQIAkDAmwwQTbJBIEEFsl8xMdHcHjPxnpgSyIKMJhoC5GEn4SEMEFok+JK2tnZMDs5z/R0z/RM94R3Ts3Oqnemu6q6u7q7qu7/flvbPV1Vt+v+7q1/37r33HOy7r388AohgQAIgICCBLIVLDOKDAIgAAIaAQggGgIIgICyBCCAylY9Cg4CIAABRBsAARBQlgAEUNmqR8FBAAQggGgDIAACyhKAACpb9Sg4CIAABBBtAARAQFkCEEBlqx4FBwEQgACiDYAACChLAAKobNWj4CAAAhBAtAEQAAFlCUAAla16FBwEQAACiDYAAiCgLAEIoLJVj4KDAAhAANEGQAAElCUAAVS26lFwEAABCCDaAAiAgLIEIIDKVj0KDgIgAAFEGwABEFCWAARQ2apHwUEABCCAaAMgAALKEoAAKlv1KDgIgAAEEG0ABEBAWQIQQGWrHgUHARCAAKINgAAIKEsAAqhs1aPgIAACEEC0ARAAAWUJQACVrXoUHARAAAKINgACIKAsAQigslWPgoMACEAA0QZAAASUJQABVLbqUXAQAAEIINoACICAsgQggMpWPQoOAiAAAUQbAAEQUJYABFDZqkfBQQAEIIBoAyAAAsoSgAAqW/UoOAiAAAQQbQAEQEBZAhBAZaseBQcBEIAAog2AAAgoSwACqGzVo+AgAAIQQLQBEAABZQlAAJWtehQcBEAAAog2AAIgoCwBCKCyVY+CgwAI5LoBQUGDh7a8t4VqrvBSXom9i3TfwSNuQI4ypIjAdYcOpChna7INBxZp7OEZOnVbH80PhazJNIO52FstTIAR8bvi27vI43V8UUyUFoeAQGYJSAej8ZpKqr7cSw+/+SnHi6DjH4Gl5wfxy+xNgW9Xj4Dcc3LvOT05XgDlsRcJBEAg/QTccO85XgDtPuaX/maJbwSB9BBww73neAFMT1XjW0AABNxIAALoxlpFmUAABEwRgACawoSDQAAE3EhASduRkH+Rjt7URYHuOTfWKcrkYAKZsBMt2VZE++/oJE+penKgZA9QKnr/lzqpZGuRg28VXDoIJE9AZfETekoKoBQcIigUkFQmoLr4Sd0rK4BSeIigUEBSkQDEb7XWlRZAQQARVPH2V7vMEL9n69/1AigTHkYJImhECPvdQiAe8TNz7zidi+sF8OjNXSQeLIwSRNCIEPY7nUC84if3jtuT6wUwcHKOjrDJC0TQ7U0Z5dMjkIj4yb3j9uR6AZQKhAi6vRmjfHoEIH6x6SghgFJ8iGDsRoA97iUA8dOvW2UEUDBABPUbA/a6iwDEz7g+lRJAwQERNG4UOML5BCB+5upQOQEULBBBc40DRzmTAMTPfL0pKYCCByJovpHgSOcQgPjFV1fKCqBgggjG11hwtL0JQPzirx+lBVBwQQTjbzQ4w34EIH6J1YnyAijYIIKJNR6cZQ8CEL/E6wECeJ4dRDDxRoQzM0cA4pccewhgBD+IYAQMvLU9AYhf8lUEAVzHECK4Dgj+tCUBiJ811QIBjMIRIhgFCj6yDQGIn3VVAQGMwRIiGAMMPs4oAYiftfghgDo8IYI6cLAr7QQgftYjhwAaMIUIGgDC7rQQgPilBjME0ARXiKAJSDgkZQQgfilDq3ZUuHiwQgTjoYVjrSIA8bOKZPR80AOMziXqpxDBqFjwYYoIQPxSBDYiWwhgBAwzbyGCZijhmGQJQPySJWjufAigOU4XHbUmgmbCBiLa3EXo8IcJAhA/E5AsOgQCmCBIEUEJGwgRTBAgTotKAOIXFUvKPoQAJoEWIpgEPJy6gQDEbwOSlH8AAUwScUIiuK0oyW/F6W4jAPHLTI1CAC3gHrcI3tFJ0uCRQEAIQPwy1w4ggBaxhwhaBFKxbCB+ma1wCKCF/CGCFsJUICuIX+YrGQJocR1ABC0G6tLsIH72qNisey8/vGKPS3HXVaCBu6s+rSwN2oaVNJPLCz3A5PjFPDvenmDFvtKYeWGHuwhIXYuBvFESG1OxNZW2hJQaAhDA1HDVcjUrgl1f6qe+74+k8EqQtZ0ISF2fuKNP95Igfrp4LNsJAbQMZfSMjERQxO/ct4ain4xPXUug99+HY4ogxC991Y4xwDSxjjbu4xrx45/R3OIcyvXmUt75Lbcsh3KK+LOCbH7Npmx5LcyhrByi7Jwsysrmjd9LWlnibXmFlpdWtPdLwSVanl+mpbllWtRel2jRt0ThmUVtW+TXxVk+aXn1fCf/3/bWBuq8qflCESB+F1Ck5Q0EMC2YV78kUgSdJH5ZuVmUX++hoqYCKmzJ59d8KqjzUH6Nhwr5taA6j8UsK40kRTRXaH48TMGREC2MhWieX+cGFijYt8Cv87QwHKKVRWfM77W+pZ6239yirSvHmF9amxFBANPLW7P6l0Fwu475FTTmU8mWQirZWkilW4vIyytWivizrKz0Clyy1bKyskJzgws0wxMI/u45CnQHKXAqSPP8mR1Tyw11NHXMjwmPNFcOBDDNwO30ddKz8+4qobI9xVSxt4Qq9pSQpyzPTpdo+bWEfGGaeiJAU48HyPfELM08FXBMT9FyGMgQPUDV2oD08CqfW0Y1V5ZR9X4v5fDYnMppiccYx4/O0NhDPpr8o8+2PUSV6yiVZUcPMJV0bZK3jN/VvriSGl9SSWWdxTa5Kntehq9rlgbvnaTRBya1cUR7XiWuyioCEECrSNotH+7YVV1ZTm1vqKXqA2V2uzpHXM/4ER+d+8EoTTw07YoZZ0dAT/NFGpujp/mC8HXJEcjOz6LGP6uljr+q12Zok8tN7bPlh0M2mWk++91hGvzJKC0vOGNmWe2aM1969ADNs7L3kTxJW/+yKup8bwvlV6Z/IiMcWKSFqTCFJvl1mu30xFaP7fiWZldf5f1KWOz8+JXNU8Tmj9iUT0trtoE8KZOVk01ZeVmUy7aDsuUU566+Z/vC/PJc8lTya0Ue5ZWk/7d7fiJEJ2/vp+FfTrAdjr2bA67OHAEIoDlOtj6qoDmfdn+qgyr3pm49cYgFLXA2SLM98zTbP0/zbGcn28JoiEJsj5dumzuZwfaw/WF+Ldsh8hinbMXNBVTcXkAlHYXkYcFMVZp83E/HP3uW5vvtaVKTqnK7MV8IoMNrteaaCrrkkx2Uy6ssrEr+s3Pke5pNRLqC5O+ao9kzQa1HZ1X+6chHVqUUb2Jbxk62ZewspDI29yltL7Tsqxd5tcqTf3eWxu6fsixPZJR+AhDA9DO37Btb38wrCN7TklR+YjDse2aWxh/20fRjq3Zxi4G1Z9OksrbdybklOZrdY/mlxVR9RRmV7ShO2sD7xO191PvtYduVFRdkjgAE0Bwn2x3V/Po62vnB1oSua3FuiUZ+N0WjD07TFNvALfrdKXhGcHJLc6iCbSFrX1hOdVdV8FhjYr3op2/tpf4fwpuPEW877ocA2rFWDK7Je0kJHfzqds2hgMGhF3bL2tnh30/T4E/HaPLQTNrH7C5ciE3fyMRL5eVeanxVDdX/SXlca5vFkcOhG0/QzJMBm5YOlxWLAAQwFhm7fs72fVf+cDeVtJobzwpNh+ncj0ao/8djFJ5atGupbHVdeRW51PzqGmp7XR15ys3NqAd6g/TQ64/DXtBWNWl8MambKjP+bhyRAIHqF1SYEj95zD3970PU94MRzbVUAl+l7CnyQ3H2ziE6990RanlDHW1+S4Ph47H8IEndjD+ISREnNRy1F4I6qabOX2vDtZWGVy0rGH7/uic1R6viVw8pMQLCTpzVCkthapTM1I1RHtifXgIQwPTyTvrbyneX6OYxeP8kPfq+kxQaC+seh53mCQhLYSps9ZJR3eidi32ZIQABzAz3hL+1oEp/TKrrn85pXpUT/gKcGJWAeK0WtnrJqG7Wn9v45zUkfgA9BnW6/jz8bR0BCKB1LI1zYtoVPNO48zMdmot44xM2HiErIPSSdxe8vejxSWafd7c+W6O6Wf/dm97cQDve30ovuGcvXXbbNqp/aRWHDcAtuZ5TKv/GJEgq6Z7PW3zwNVxfRc2vrKFCdiMvafz3Phr9lf4j1fnT43rZ87lN9NhHT9PUkZm4zsPB+gQqDnhpL7O1Kkl4BPG0LUm8ba85XlgKLdPgryao/65x8rOzVqTUEoAApoov/5BXsePRNn7EieaOqvHlVSkRQHESsP/ftlHPf47SmS8PsDMCNY2crarWHA72tPndTdT22tqkV41EXlNdjMmsHE82tbycH415mzk9R71cjyP3TmgBoiLPx3trCEAAreF4IRe5YRqur6Z2Fr6ihtVf+As7I97UHCwjsTdLhW2e9Cg62IatiR+pznx7iAbZBtCty9sikFr6VpbNNbItoDymmgliHu+Xi3Nao+TdXES7P9quPSb3/WyMzXKG4aTVCFqc+yGAcQKLdbgMZLe9sZ5aX11rys28hIWUXkD/j0ZjZZn053LjylrhLW9rpP5fjNPgz8YRdMeAqjyaNr6qmlqurzFVjwbZRd1dymuQC+ti/ziuP0nCFrTzD1rbX9TS0K+n6ByvPfaz52qk5AlAAJNkKO7m2zm2a7PcMLycKp7UxD3FVArg2rWIp5j219ZpmzxWDd3HLt/5Rgr2zq8dovRrYWsB1b6oghquqyTpdaU6xXr8Nfpe+dFsvIZDG/A28cgMnfrKIPke8xudhv06BCCAOnD0dnlq82jzu5qo+aXVca0bjcxT4nPIzZdOIZIb3HtTkRaMO9AX5GBAMzTBwYDkRloKqmE0LTOtZZeWamO0NVd6qaTF3LLCyLpL5n0VWwIkm6ou81LVV7w0cdRH3V8apJnjmDBJhCkEME5q4kGk/a2NvE6UH3V5wDqZJK6oJCRlOgUw8nrlxi95fSF1sGcZWdA/w/FzJx8LsFssP/k5nq4WQ9fpmshVJLPwpfxoW86iV3lpCXk53rH0pjKVDr/lKfZCU0YNL6+k+qsrKSc/8XZUxflU3VlGo3+cplO3DXDs47lMFcuR3wtnCCarTWy8tHWhf92QtDt28ajcx15ZxLW6eFOOJ1136EA8hyd1rDj9lMDiIoxz4gn63DzN8WOzeIEmuwkja4h4hy7iHnVxWwEVsWdoEToJ7G6ls1gjoPcdPGJ0yEX7s3l8r/r55dTCEy5Vz0muZyg/qNKuTt8xQGEfHF9cBDrGHxDAGGAiPy6/rJR2fqzNlBOCyPMi34vL+KFfT7BZwxjNcGDuRFM6BTDWNYprrfnxEM0NLlBwiF3jc9CgEDsQCHFMkDDHA5GZ7UWOESKP1BJ3N9H1yCIOMgEgj6y5bN4js+Z5EheEY4J4+H1BnYcKG1j0uIdXwPaVmezVrbGKVwDXzpPXwpYCauLVIc2vqE7Kpb/EZ+n+6iAN3DUKt2eRgKO8hwBGgbL2UR4HF+r8YAs1Xlu19lHcrwuT7I7qv0Zo4O5xCvP7ZJORAD7x6TO05camC0a2yX6fFedLz0TEcJmNfFe457jMPwYiosuLq93I7FwOhJSTRdkSFIl7ctk8tCCiJ+Y8dkki9qe+OkB7Pr1J95KSEcC1jMU3YR1PdLS/qT6pSRkJbXD80z3kP4EZ4zW2618hgOuJnP+7lmcEd32kLeHH3cC5IJ355hCN8GoPKwMGGQmg3IDyuF59dTl1vLGBytnkAilxAtMcLuDsfwzR+G+mtXo0wz/xb9t4Zvm+Uk0Ia59bvnGniU9kbPfs94bpDIs3QnpuBIZJkHVMJJjOjk+0U8PVFev2mPtTbpgzdw7yUjcOpp2h0IkiuBKsRzbNro0fqRr/tCqpxypzpXfHURIBb/D/TdDgzzNvNzl9zE+P8VbMke42vbOR6tlcJ56esQwLbOIfwjpuz0986iyW161rougBRgARRwV7PrMpobi6Pp4o6OaYsZNsUpLKlGgPRHqF5c8p5UerCqq9qpwKqlbXJKfyWp2Ut8T8Hf3dNI3wj8b0o/6YvfZE+VvFQoSw4x2N1PDi+IRQvl+GHbru6KdeXlGSqR9nqzhYlQ96gEKSh5raeXZ3K4+dxfPrKqeKLV03z7qNiSfgDPX45DqMkvQKxUGCbCf+8RyHjCyiyivYLISDAlWxaUguByBXKS1ywPYJNvmZ5KBQkw/7OfSnM8xHZjk28/FPnKaebxbRtvc3R11nHqseZZx1+9+0cJ2X0vFPneFQp1gnrlarj9IyZM3nbvbyUXtlfGMscgN1f22Q+nmxupVjfFEuMSUfyQ0vW9/3OJoZTzwUt7PJyK4iKmOXTxIusoQFMt6VLSm5UAsyXQqvUIDLKuE/fccl9CeXvYcFz26mPHGUVez9HnnvSf4RK6POD7TEFfNYxhOf+73d9Mj7ummWVwapnJQWQFnGto/9sMW7EqDv52N0ih93U+HIICONkYVgTRCHeNxLkjwyFzbla3Z1RWJX15Kv2deVtBUmNESQjnLJjLtMPmn2in0LNHfebjE4sODIHykzzCY5nvPDf+mjZl7quO2mZtPrl8Ut28E7t9NjHzud8mEbM+XI1DHKCmAJG8nu+9dtcd3MYsB8/LM95Hvc/esvpVerCQiLCP3u4uYp9nni/EG2/Gre+GbKr+FX/juPJ5FyS7Ipjx0xiGuuPH6f6OO19LLDgWXe+NUvtoX8nicoFibCtMBu6hfGQrTAhuQh/lu2RO0NLy6d8/4Sb9US/Grk15O04yPtVMdhPc0kMRDfd+tWeuZWjmvMTzIqJiUFUEwLLvuXraZXCKyaEoywKUE/TAn4LhGhmedelWymEj9iy/jTBVs/eS82f7xJErHVNs02cNVGUBtWsPGYqqlyp/mg0GiYHv9QN9XwBMnuj7ebMuGSWeKdf9tGOTwUdI7NtlRLygmgLILf93+3mV5/GeQVD098/IwSvb6UNX5+xJYfkRUei3PwsFvK8Fid8dgDU/SHxwN0CYdekLXCZlLnu5s1I/SeO9USQf5tVid5OaLavi9sNS1+I3+Ypj/ecBzip04TcU1JZY35MZ4kOXF7H8lKHDNp243N1P72BjOHuuYYZQRQ7Kf2/6v5x96TX+mnxz/YDVMB1zR1BQvCutfLzlOP3sJhUnkM1UwSEazn+DWqJCUEMK8sly77IoufCVu3pYVleuQj3dTzDbUeBVRp8CqWc+rwDD38pqfI3xM0VfxLPtZB4gBEheR6AZSB9r3/vMWUC/KQL0yH3nFCW/epQuWjjOoQmGevPUfe8QxNm4g0J/fMc/ieET+Kbk+uF8At722myr3Gv2ZiQ3b4xi6OmQHPGW5v9KqWb9G/REdv7qKxw8bLNcWEac8/bL4wU+9WZq4WwDJe+9r+hjrDuhPxO8S/jnMmHxEMM8QBIGBTAmLC9BiPbU8cM44bLZ6EZN2xm5NrBVDCU4pjA6O1vWJse5Rny0zbtLm5NaBsShAQc6TH2F5QPBcZpc0c8Kt0V4nRYY7d71oB7Hh7I4/76Xs8EWPbYx88pfx6SMe2Xlx4wgTEQe0jt3RRcETfmF06EDs+3Ko5DEn4y2x8oisFsIDdpLdxHFWj9MwXexFW0AgS9ruWgHiDefRvT9ESe+rWS/IoXM/+JN2YXCmAW29pMfRkMvTgZFpi8qa70WTlpPsb1fk+N7INcNCrp/+517ASt/0NrxQ5v3TR8GAHHeA6ASxozqeGF1XqVsECB+955u97dI9x6k4Jt4iUGgJuZTv0szEaO6I/MywOdOs4TITbkusEsMXMoy97vxCTADemXf+rnWQIAMlaAuI6bdcn263N1Ea5Pf13PSSLAPRS+xvr9XY7cp+rBFAiibVw/Au9NMmurEbvm9Q7xNH7ND9v39hJ4t4fyRoC4j3oim/upEKOO+zWtDAc0oIn6ZXPu5md5u5x14ywqwRQvOPmFukPgp3++qBeHbtiXz6H8zzwb520g3sseZXKOfyxrA4lBvF2jgd94PbOuPxGWnYBac6ol6PHLQb1n4zq2NWWm5KrBLDmBfqOIH0cH1XWRaqSWl5RQ8+/ey9t4TgQ4rwUyRwBCcC+6eYmuuruPdT6Z7WGtqTmcrX/UTIr3PvjMd0LrX+hu8YB3dM9YCmv42hneqnvJ6vu3vWOcdu+HPbevInHbjp4RYzMfPfdNUY+jnqGtJGA95ISan5NDUdcq6QcDs6uYhr+5QRt+qvYY31iWysBtZwSRMqoDl0jgIXNBboecMUh5xgLgKpJTBgar63StuBIiAbvm6DRX02Rv8t4NYCbmRXzuFbdNeUcN7maihRY/G9UlxJsSbzGlLYXxjy0dEchBDAmnQztKNkSu8LkkuTxNzxtzidahoqQtq+VX/HNb2rQNlkHLfFwxx6apulHAuz/0N2MJApg2d4Squa4GbW8uXliI9EGNc6xrXUFsLOYhu+ZSDR7W53nmh5g6VZ9AZzicIhIGwnIhEnLq2q0TfbKr78slJ/mmLmBrjma6+OgSPrWERsztcsnHHKkgCPblW4ronIWvcp9XvLyD6XR+nC7XH6mrmP6yQDRDbG/XRi6JblGAPOr9U0UVH/UM9tg5Zdf+/V/zepSQrEN87EQ+jl+7OwZDjnZM69Fi5OIbLYRRhY6Dwt5YWsBxzcu5JjGBVS6uZDKtheZcoJrlo0qxwW69R2nSiRAtyTXCGBuqb75S3jS3Y92aw1S4pjUPU9/MmjtWDOvOfnZVMm2X7JFphWO4BZkEQxyqNA5drYpghhixvJILfGSw74lEk87y7zofml+Ke5oejJmKXadOWzWJKZNuRxuU0x6POUSfjNXC8NZyGN2hWz0XVhfYLj0MfLaE30/dshHNQfdv9LGaBhEQp66JbmmJHk8tqOXwi5d+bG+zBLHpIwdwG55VyNV8SNfqpKEuCyq58DpvJlZJi+TUEvsi275fAjMZYkSx++J/4nYZWthM4myRfjyc2y17nTyiQCd+nI/TR/z03WHDqQKqW3yXQzo2wLmQgBtU1cXLmSZeyR6SW5YVZIEbj/Gnn9LdxZT21/WUQPbbmV6IbvEnzUyUrdT/UgPd/i3U3TuuyM0I2NiCiWje2Vl0amDwhsr0TU9QKO1vXle/R7iRjTO/8T/9Cwd/+QZ6irvpfqXsQnMy6upbEuR8wuWwhLIJNDAPePaLGdoIpzCb7Jv1jJTrpfc9DTlGgEMG3TbCwyco+pVuNP3iflP3/dGtK2orYBqXlhBdVdXkPh5QyKa4QmekQcmaex/fCR2cKonD3t+0UthkyE29fKwyz7XCGBwQN+zrZcfB5FIm8E9960hkk0mFSr2e6nqCi9VsxstIw/abuEnEzUTR300/vAMTfLSyNCYmj29WPXp3aX/lBDkSS+3JNcIYOCk/tR9BduBIV1MQGbGxTPOmnccT00elfFysDKOAVHGN0HZ9mLKLdR/HLo4R/v9Jd6OZ9jp5/RTs+Q7HtDG8yREJFJsAmW79TsLM7yowC3JPQLIjzF6qbiJbcQ6eAnPWX2h1MvD7fukJzT26yltWyurpzaPitsK2b6O+bFtXUlHAZW0FtrOO0qIV7CI0bb/dJACXMezZ+bZZjFIC6M2sldcg2rjV5ksq+MVMnrJ361/r+mda7d9rhHA0HiYZgfmSYQuVqq7roLOfAUCGItPtM9Do2GSberIxV50svKyNA8z+TUeymeRLGBzmALuQebyZJNHbPZkY9vMvDJ5zY3buYCYyIioyXhTiL2ULMqrT/5e0mwOF3g98/xImBbG2f6QhXvZwJlntLLhs40EKth0Smwt9dLMk+gB6vHJ2L6RB6c1zyexLqCFXRv1fHOIlkP6JjOxzsfnzxKQ0IriRFM2s0l6FxJXIys3+9lXtk4SsdPsA9n0RN6LCYrYByKln0ATe8PRSxJK002z467y+TP222m9utMe2+qv169g3QywMykCmtAtsEH0LPfouFcX5skIuZnC3LOTzyRotxwD8UsKc8InyxBRwwv0HZ4O82y5m5KrBND3pJ+XZenPBm9+WwNls488JBAAgYsJbOLVQ3ppZWWFRu+HAOoxyuw+NlDv+f6I7jVIzIxN79SvaN0MsBMEXEhAYsjIiiG9NMJu09w2g+66rtDQL8YN4xp03FBPJVgRodfWsU8hAvJEtOsT7YYllmWBbkuuE0AZSzr7H8O69SRrHff8702atxHdA7ETBBQg0PmhVs2phV5RJ3k9tO8x94VScJ0ASiWeYwEUa3+9VNJSSDtM/Orp5YF9IOB0Ag3iDPeVxhODXZ/vdXpRo16/KwVQZhO7bu+LWuDIDyVGRjtPiiCBgIoEvLtLaOeH2wyL3n/PGPldtPojssCuFEApoMQsGDviiyxr1Pfb3tVMDSZ+AaOejA9BwKEEJLLbvi9uNXQkG/KFqfu2foeW0viyXSuAYkv21KfPUjhg7Al6Nwe/rr1WfwbMGCWOAAFnEJA4Kftv36YbRXGtJMc/18P2msb30NrxTnt1rwByTcjyuOP/2GNYJ+Ksc+/nNlHDK6oNj8UBIOBkAtLzO/j1HabWcvf+ZJTG2fTFzcnVAigVN3b/FJ0xmBWW4yRS2CWf7KAWnaDQcpzdk6y9RUoNAaezlcDvl3+t05T4+The9MlbjcfRU0M6fbm6XgAF5SmeEBnluLdm0o5bWrTZ4Uy7kDdzrdGOaX87jLyjcbHiMydPmNVeV0kH7ug09dgbZA86j7y/WwkHE0oIoIRvfPITp8l30pwXCzELuEzGSMqd15vqeH0ddbwDImiF4EXm0f72Bup4Q33kR454L84ntn6ghS793GZTHnkW55bokfd1a+u0HVHAJC9SDQFkSEtzy3TsPV2a+3MzzKou9dKV399N5ewx2Wlp6zub6FKe4RMHp0jJEfBU5dGlX9hK225sTi6jDJzt4fi9l93WaVq4JWrfsQ90sy9F9/j7M8KujAAKCPFAItHSAufM+QTM52DbB27bRptuasp4VDWjily/v/aKcrrqrj1abzCnmLsBSHERyCnK1mxEr/rxHqp9bnlc59rh4JoXVdCVP9hNVZeZ+wFfDC7R0VtOunK1h159ZN17+WHlPK/lVeTSZV/cRmWd+q6/I8FJ4JzjbFYTYPfqmUyJxKWVAOU9/zVKA3eNkTgSRYpNQHpNzewTr+11dabGy9bndN/BI+s/SuvfueyEdhsvbWt+qXmLBnnsFfFTLfynVIySAigFlwXge/9pC9UcLJM/TSUJ7n36O0PU8/XBjDlVTUQA1won7ozGHvbRwM/GaeIhn+Z/b22fyq/ZniyqvKKMml5ZTbXPKycxi0o0ZVIA615SSTs+2Gro0TmybMExnvDgMb9Zg5ASkee46b2yAiiVKDO929kIuiVOJ6nBkQV65tZeGv+NuZllKxtMMgIYeR1L7EJ+hAN/j7IT2alDM5pT0sj9bn8vsW/FBVTN88upnp2AWhW0PRMCWNhSQDs+0krVB8z/mEv9iqnLozzm5yYPz/G2W6UFcA1W42tqaRf/csZr+iKhFU98vi+tgZasEsC1ssur9Ax97Op8nIVw+lH2+sHR08SrjpuS9Pi9u4qp4jmlVMXCV8E2ccn09GKxSacAil1ix42N1PbntRxiIL5e69CDk9pKKVk3r3KCAJ6v/VIOBXnp/9lM4jA1niTiMfDfE3T6KwNxxceI5zsij02FAEbmL++lTP4zQfI9zaEkn57Txj0lmp5TRFHErogj15Vu59CeEt6TA8B72f9jvCKxnouZv9MhgFK+5tfV0pa3NlBucXymWkscy+XEF3ppgMeEkRQeA4xW+fKLuvNTHYZhAaOdK7Eszv10lHruHErpI0U6BDBa+eQzcTHm57Ei/9l5CvYv0PwwbxxjVyZWwhzBLZ2xPOQRNr+WI9E15FE+R6Qr4vWtJZsKqJSXemUywHsqBVCEr4mfVja9qZ7yK+I3cZKoiY9/5DQFXBTWMlZbNfs5eoBRSNVfX0U7+ZE43l9XyUqEsP+ecTr77SGaZ5GwOhkJ4KEbT1Dn+5upfGd6A8FLJLeFaQ5TyUGORChDvIBeZhcXJQASb0uzy9rKAi0w0rrob9IzezZiXBZle3KYfTaPy2VTTkmu9l5CNYpZkmwe3nI4LGc6k4yXdX2xjy6/Y7vu16ZCAMWMqenVNVrEQ6OQlbEuTtb1dvP1iz0s0rME4us/P3ueq98N/2KC4+D6afen2qlqf3wDy3Ijt7CTyWaeURzmIOM9vA7Zz4+S6Uq+x/10+K+f0WY1N7Gvw8q9pWn5ahGxgiqPtqXlC9P0JdNPBej0N4Zo4g884ZVmg7H8eg+1vqFOa0+JTtJIkLAnP3OWfI+6z5uzFU0AAhiDojzWHXvPSZI1lDs+0GpqAXlkVuJcoeHFldomsVTP/WCYRh+YIomnm440yeYuspVsK9Ls2pr+tJpy+BEKyZjAUmiZBn81Qf13jZOfBTDdqezSUmrlMb76F1YkPFEjPfKeH43Q6S8PwNxJpwLxCKwDZ22XPIJsfncTtf0Fz7YlYSMW4kfE3p+O0dDPJyjYN7+WfVyvRo/AsR7BZPyo+qpyanxZFVWxuUS6HyHjKmQGDhbBGH9khoZ+yY50/2c65oRPovyNipTrzaWGl1dRCxthS7iGZNI4OwIW64S5HnMrnpL5Lqefix6giRqU2c+T/8IzZ3eP09ZbmhJeGiXjN1ve0qhtEmRm4CdjNPrrybSMy4i5w+ivJrVNlnlVsgF4zVW88TIvGVdTMYm34/HDM5ot5OQffbToT6/pjwyXVEo4Sv5Rqru6MukfpblBtk/ldjrx+/Tbpzq1/UAA46g5WST+GLsJkkeUzve3UDmbVySaKtkOTbbjPJg/ePdYotkkdJ4MhI89OKVtkkFxR6FWpsp9JZqdXGF1fKZACV1EBk5amArT5OMBmnrEz/aOfgqc4mWNGZgTkFgc9S+tpMbrqsjDPb9kk0w6dX9tkIZ+NqZNwiWbn0rnJ09fJVrnyyrhAQ+/9Wmq5jGazex6qizBGMMyIzr6wGTGCYqNn2yDd6/ahuVxj7C0s4i8O4rYtKRQ24rZrs4pj83yOCsmH/7TQQrw5u9i0x3e7LIOeseHW6lse+I/nmsNRoZUTn9ziJ9MRnmGPT1jy2vf7ZZXCGASNTnOvSjZqq4s04SwnI2p40kj7KRVPNTYLYW5RyGPhLJdSDx/UtCQT8VtBSRLrwp5hrKAN7G5K+TPPexgQiZ+0pXk5g/yRFVwOETz/CrbHI+rzvWwjeLAgq17QoP3TiQlgMHxEPV8b4SdW7DwKb6SI9n2BgFMliCfL44FZCvfV0odb2kw7WBhkAfcHZP4UXGehUU2XkW64bJlPEscyOaV5rLtXg7ledmWT3tlOz72UJKdn03ZudmUxY4HsvlY2eQc4n+abSD3hmWGfFm2xWVaCa3QYmCJwn62J+QfiTCPzy2d/zvMj7LLvN+pSawBdryvNe7L9/MQzNlvD9MIj+UKM6TkCUAAk2d4IYfpY356lDfpIbW8vpaar6+m3MLovvgkWt2k2Ja5JMkNKUGoZEPSJyCP4mJfaOaJYc2DTy/3+CZ5wgbJWgIQQGt5armJicvJz/fS6S8NUAOLYKuYNrRdbNowdP+ko3sxKcCmVJaD907qCqBMbPSxyZRYCizwYz5SaghAAFPDVctVzGf6fziibeJsoemVVdrMn1j1D/135ic/Ulh0ZG1AQMyfZLllZBJ/k+NHZqifrQIkHCUecyPppOY9BDA1XDfkKisKTvAmoQar2P5OlqwhqUsgNCYmOX5tqaKsMx64Z4LH9iZcHYTcjrUNAUxzrSyzI1KJVYwEAl1f6NMmeoK9ia0KAsHkCUAAk2eIHEAgIQLpdJKR0AUqcBJWxytQySgiCIBAdAIQwOhcbPupDJTrJc22Tu8A7EuYgBFbo7pJ+ItxYsoIQABThjY1GWuel3WyrvqT+PwX6mSFXesIGLE1qpt12eFPGxCAANqgEuK5BFnfqpd2fbSdini5GpK1BISpsNVLfnGugOQoAhBAR1UX0egfNi5DiyyCxIq4/M4dVPU89AQjuSTzXlgKU6M4HKMPYaVGMpwzcS4EMBPUk/jOYY43Ih6L9ZKH1+Puu3Ub7fpsB4lnF6TECAg7YSgshalekjqRukFyFgEIoLPqi8LTi3TmO0OmrrrpJdX0/J/soS23tLAQ6t/ApjJU5CARPmEm7IShmXSGg2BJ3SA5iwBc4jurvrSrzWInqpd/fUdcLpVkWdXgAxPU959jNMPeqJE2EvCyg9qW19ZQ44urVj3VbDwk6ie+E7N0+B3PpC3eS9SLwIcJEYAAJoQt8yd5qvPo4Dd2JhQDVyKFDfxynEbvnybxcq1yKuY4wrXXlFPTy6qpiP0axpvEJ+Ghtz0NLzjxgrPJ8RBAm1REIpchYRP339FJxU2Jz/rKDTzy2ynNn+E0u4sXBw5uTuKjsGxPiebEtu75FQn9gKzxEa/TR2/ugreWNSAOfIUAOrDSIi85lx2P7vmHzVTNkd6STeJ7bqZ7jiaPcsyM4wHNjbzmAFXf9jrZr03d+exstaApX3PvX85xOCr3l5J3a5Elnqsl8toTHz9tS4/eqQPqvpwhgG6oU57KarmhnrZx6M4cj7XzWouzi+Q7yTE1znDckDPzWuyQYP8CP/KFaMUmncUs9jnr4UBOhc3ssp8DPBVvKqBSjmVSxjGRc4utnfyR2d6THGu37/vDGQmo5IbmaqcyQADtVBtJXktBg4c6P9RKdVdVJJmT8emy7Gt+jONwsIv8II8pLkwuUoideMoW5vdhdl8v0eeWgvLKW5Dd3Jt04y5LznIKsymH/SbmsEdtCeOZJ+71eSbbwzO0suXze4lFUsQ9vIIaT1Lxmo1Lu3rEyO+mqIvDTs4PwUGpWWZ2Pw4CaPcaSuD6ZDZz09sbEo5fnMBXmj5FIrYt87YSXubX1dOyuQeXlccxQ3I4Tghvdkujf5ymM3cOYfbcbhVjwfVAAC2AaNcs5HGw7U111HBtleWPxnYts1XXJY+6Q+yg9Nx3RrTHfqvyRT72IgABtFd9pORqZOaz9tpKan5FtW4cipR8ucMylWBF/T9nEyGOvCZR6ZDcTQAC6O763VC6gsZ8qr6qnOquLqfKS0vTMna24SJs9IGMZU5yoPuR30xrcTjmByXsJ5IqBCCAqtR0lHJKvN6K/V6q4HjGVQe8VNp+ceS6KKe44iN/T5AmOPjQFIcwnTo6Q4sccxhJTQIQQDXrPWqp88pyybu7mLw7iqlsF2/bi3m21dnOFCS8pCxV8z01SzPP8HZ8lsI+rNmN2gAU/BACqGClx1NkT1UeFbYWUHE7bzypUtLBrxz4vbCWTU9sMmMrM8vB0RDNcjzmwNlVW8XZnnmSYEOhCQRqj6e+VTvWWitR1eglUN4SNs6VR86+748kcHb6TxEBkc336Lownmxv7WHfg/l1Hm3T3lewrR4LpvjN83BvMreYbfiK2YaPjZElFnJOgTkj7aX5ZVpk28EwG2EvzfJ7Xp4X4l7bwhTbGPK1LEzx3/x+gZfxySbvSd9DWPrBxfmNLTfU8SN5gAInZ+M8E4cnQwACmAy9OM8V8ZO1u+JbLjs/m859y5xbqzi/Jj2Hs+CsiWNc0c1YA7OyV+39ZAWHJFlRIr04LaaGw4VstUTx/d/21gbqvKmZjccX6chNXSyCajuoiI9eckeb+0lO7jtwNhOIFD8BIg1eGr5yiQVOVoRIfGRtpQivFpH32ioRhcVP2kFeSS4d+FKn1laUaxcZKjAEMA3g14vf2lcqK4JrABR/Xev5RWKACEbSSP17CGCKGccSv7WvhQiukVDrNZr4rRGACK6RSP0rBDCFjI3Eb+2rRQRlEBxJDQJS11LnegkiqEfHun0QQOtYXpSTWfGTk0L+Rc0o96IM8IdrCUyxv0Wpc6MEETQilPx+x9sBXnfogC6F+w4e0d2fip3xip94FcbMXypqwr55lrBj1v084WEUbU5KkMnZYTveX1bWKnqAVtLkvCB+FgN1aXYB9rx9lE1e0BPMbAVDAC3kD/GzEKYCWUEEM1/JEECL6gDiZxFIxbKBCGa2wiGAFvCH+FkAUeEsIIKZq3wIYJLsIX5JAsTpGgGIYGYaAgQwCe4QvyTg4dQNBCCCG5Ck/AMIYIKIIX4JgsNpugQggrp4LN8JAUwAKcQvAWg4xTQBiKBpVEkfCAGMEyHEL05gODwhAhDBhLDFfRIEMA5kEL84YOHQpAlABJNGaJgBBNAQ0eoBED+ToHCYpQQggpbi3JAZBHADko0fQPw2MsEn6SMAEUwdawigAVuInwEg7E4LAYhgajBDAHW4Qvx04GBX2glABK1HDgGMwRTiFwMMPs4oAYigtfghgFF4QvyiQMFHtiEAEbSuKiCA61hC/NYBwZ+2JBCvCEo4VmnbSBcTgABG8ID4RcDAW9sTiEcExfM0RHBjlUIAzzOB+G1sHPjE/gQggsnVEQSQ+UH8kmtEODuzBCCCifNXXgAhfok3HpxpHwIQwcTqQmkBhPgl1mhwlj0JQATjrxdlBRDiF39jwRn2JwARjK+OlBRAiF98jQRHO4sARNB8fSkngBA/840DRzqXAETQXN0pJYAQP3ONAke5gwBE0LgelRFAiJ9xY8AR7iMAEdSvUyUEEOKn3wiw190EIIKx69f1Agjxi1352KMOAYhg9Lp2vQDK+kdZB2mUQv5FOnpzFwVOzhkdiv0g4EgCmghyG5e2bpTW1g4bHef0/a4XQIif05sort9KAvIDf/Qm8yJo5XfbMS/XC6ARdPT8jAhhv9sIxNMTdFvZ15dHaQGE+K1vDvhbFQJaT9Dk47CbmSgrgBA/NzdrlM0MAYggkZICCPEzc3vgGBUIqC6CxtOjLmwFMjFy5Xd2ZaRk9x08kpHvxZc6g8B1hw4440JdcpVK9gBdUncoBgiAQJIEIIBJAsTpIAACziUAAXRu3eHKQQAEkiTgeAEMB4yt2pNkhNNBAASiEHDDved4ARx7eCZK1eAjEACBVBNww73neAE8dVsfhWbQC0x1Y0f+IBBJQO45ufecnhwvgPNDIXr4zU/R4P2T5IYuudMbFK7f3QTkHpN7Te45ufecnrLuvfzwitMLgesHARAAgUQIOL4HmEihcQ4IgAAICAEIINoBCICAsgQggMpWPQoOAiAAAUQbAAEQUJYABFDZqkfBQQAEIIBoAyAAAsoSgAAqW/UoOAiAAAQQbQAEQEBZAhBAZaseBQcBEIAAog2AAAgoSwACqGzVo+AgAAIQQLQBEAABZQlAAJWtehQcBEAAAog2AAIgoCwBCKCyVY+CgwAIQADRBkAABJQlAAFUtupRcBAAAQgg2gAIgICyBCCAylY9Cg4CIAABRBsAARBQlgAEUNmqR8FBAAQggGgDIAACyhKAACpb9Sg4CIAABBBtAARAQFkCEEBlqx4FBwEQgACiDYAACChLAAKobNWj4CAAAhBAtAEQAAFlCUAAla16FBwEQAACiDYAAiCgLAEIoLJVj4KDAAhAANEGQAAElCUAAVS26lFwEAABCCDaAAiAgLIEIIDKVj0KDgIgAAFEGwABEFCWAARQ2apHwUEABCCAaAMgAALKEoAAKlv1KDgIgAAEEG0ABEBAWQIQQGWrHgUHARCAAKINgAAIKEsAAqhs1aPgIAACEEC0ARAAAWUJQACVrXoUHARAAAKINgACIKAsAQigslWPgoMACPx/caXRgMwWXPwAAAAASUVORK5CYII=;" vertex="1" parent="1">
          <mxGeometry x="245.68" y="950" width="100" height="100" as="geometry" />
        </mxCell>
        <mxCell id="9_3zUpzs3zl5Dn2b_ulE-15" value="Public subnet" style="points=[[0,0],[0.25,0],[0.5,0],[0.75,0],[1,0],[1,0.25],[1,0.5],[1,0.75],[1,1],[0.75,1],[0.5,1],[0.25,1],[0,1],[0,0.75],[0,0.5],[0,0.25]];outlineConnect=0;gradientColor=none;html=1;whiteSpace=wrap;fontSize=12;fontStyle=0;container=1;pointerEvents=0;collapsible=0;recursiveResize=0;shape=mxgraph.aws4.group;grIcon=mxgraph.aws4.group_security_group;grStroke=0;strokeColor=#248814;fillColor=#E9F3E6;verticalAlign=top;align=left;spacingLeft=30;fontColor=#248814;dashed=0;" vertex="1" parent="1">
          <mxGeometry x="100" y="280" width="415.14" height="210" as="geometry" />
        </mxCell>
        <mxCell id="9_3zUpzs3zl5Dn2b_ulE-16" value="" style="shape=image;verticalLabelPosition=bottom;labelBackgroundColor=default;verticalAlign=top;aspect=fixed;imageAspect=0;image=data:image/png,iVBORw0KGgoAAAANSUhEUgAAAMAAAADACAYAAABS3GwHAAABdWlDQ1BrQ0dDb2xvclNwYWNlRGlzcGxheVAzAAAokXWQvUvDUBTFT6tS0DqIDh0cMolD1NIKdnFoKxRFMFQFq1OafgltfCQpUnETVyn4H1jBWXCwiFRwcXAQRAcR3Zw6KbhoeN6XVNoi3sfl/Ticc7lcwBtQGSv2AijplpFMxKS11Lrke4OHnlOqZrKooiwK/v276/PR9d5PiFlNu3YQ2U9cl84ul3aeAlN//V3Vn8maGv3f1EGNGRbgkYmVbYsJ3iUeMWgp4qrgvMvHgtMunzuelWSc+JZY0gpqhrhJLKc79HwHl4plrbWD2N6f1VeXxRzqUcxhEyYYilBRgQQF4X/8044/ji1yV2BQLo8CLMpESRETssTz0KFhEjJxCEHqkLhz634PrfvJbW3vFZhtcM4v2tpCAzidoZPV29p4BBgaAG7qTDVUR+qh9uZywPsJMJgChu8os2HmwiF3e38M6Hvh/GMM8B0CdpXzryPO7RqFn4Er/QcXKWq8UwZBywAAAARjSUNQDA0AAW4D4+8AAAA4ZVhJZk1NACoAAAAIAAGHaQAEAAAAAQAAABoAAAAAAAKgAgAEAAAAAQAAAMCgAwAEAAAAAQAAAMAAAAAAbvMb8AAAKxJJREFUeAHtfQl4HMW1blX3SOqWZMDGmDXBZnFuwpYXCIEYLjvGBi+SbJa8sCVA3mW9bIFgSx5LMgQIgYuBBAjJBd67BIwl2Qb8MJtD8GO5OAl2/LghMXbyALN5AWvUI2m66/1n7LFlebq6ZumZllTtT+6eOlWnTp06p+pU1akqxvSjOaA5oDmgOaA5oDmgOaA5oDmgOaA5oDmgOaA5oDmgOaA5oDmgOaA5oDmgOTBYOcAHa8FKXy7B4xMTexpVxhgh2Ggu+BjTEPsIzkYKT+zOTD6SuWwEM5gFpleCvir80ZueHvx1C3p7LMlMtoF7bD3j7HOEr/dc/iHea5kh1njd3pr4czWfMMYRXT+FckArQB4cvPN0UdNdmzwSgn0E4/wwyOLhQHMomFmTB7qck0DyE0j0Z874StCwghv8napOa/mNSziF6ycHDmgFUGDW9ZO+HLlLLHZSjLFxnmDj0DJ/k3OGn9F50OukmGB/MjhblmJsWTLpLr1t8bDPokNhNCnRCpClXuJMGKzeOdpk4gy0shPQ4h4FRhlZokY2CDR7UIjl6CEWeyZfzNrst+IMhpV+duCAVoBt7IANX5ccF+PiHLSm09DC77UNNAg+UKaPUaanMZ54qmmB9ZoeQ2yp1CGvAPGJybFmlXcJGPE9mDb7DgJZDy6CYB96BnuC9xq/alxo/SU4weCNMSQVIH6isPjwZIPBxKVoFU8YvNUbXDL0DK8KwR/2NllPx5fyZHCKwRVjSCkADWaHV1ZcDrv4Sgj+HoOrKgsrDRThMyb4/Zvc3vvvWrQLTb8OiWdIKED8zOQBZpW4gTNxEWrVDq1mBebyuXhfCGOtwcUaCNVatK7rTOatdw32uddtrme9vZ2sJ9XzRfdu3R+8np7/Z/sdyyp3rdpUxSpjlayiotaocnc3PTbSZcbuTIi9DJONEYyPxrh2DIR0DJTXCq0MjDme4I96PfzO+LPW+yHmEwnUg1oBZpze9RW7ls9kTFwMblcUleNCfMm48TqEcrnr8hWGYa5Y0V753jzG3aLm0w/ZdCbMw+t6xnqee7hp0vqDcSRmfI6Bcu/aL2pBP6G8mE3lv0kmRMucJdX/ryBkEU48KBXgJxM271Fjm02YBrwUA1tacS34QQv8hWDiReaKl7Eiu8xrr1kZlWlFmrataEgcihmeccLgp2Dq9tRiKQSUqwdC8lCq022JLxn2acGMjBiCQaUAlx0pKvbf37naY7yxGAKAVvCvwmPzDcyjpzZY/weDRLSK0X8wyI/FRiS/67liAsynelA8tlCqqQHApEFL71/sufFVnFw3BsUzaBRgTn3iTFTSz1ErhVb2WvjvPNnDxJMt82v+OBhqOT6x85tGhXEON9k5qPAxhZSJGgWMb66d0VbzbCF4opJ2wCvALZM797RN414MDM/Ol6nUzcNc6mCG8XDj/KqXBu8ikeCzpyZPhpPepShzHSo/44yXO+sEm9flelfdurAWjnkD9xnQCtBS51yMAe5dEP7heVbBOuHxuZj6e3goTf0Rr2hKeNfKiksMIa7Gz73z4R96g43odW9oard/nU/6KKQZkApArb5lmr9BVzwhLyYKvgot4F3ue9b/Gkz2bD68iB8iKo2Dk9/jBrse46ZD88GBadPFSde9eCD2BgNOAcjWxyD31yB8VK6VhVmcd9Hix5s67HmD18zJlSuZ+DCP6pxpaFRmYxbp65lQ1Td6A3ieih80ttc8o5omCvEGjAJQSxX7mnMXmHZlroxDa78Ggt/kdVj/EZWpy1zLUKr4NKXK65LnQRFaIBxjcs0X23Tu733Pvm6g9KwDQgFmnNW1r13Bnsac/jE5Vkgn5sZv+6zHumvuYt6dY9ohHf2qCaJqVFXyOm6IW8CI2lyYgQbnzWQPa5jzTDXtZIv0E3kFaK5zTsD885MQ/j1z4SS65P/pdIkf3/p8zbpc0um4O3LglvGJve0afjsE5fwdIfJfUIJPmcfPaeywl8pjlhcaaQWYMzVxmcf5/ZjlyWX31VrhGT9q7LCWlJe1gyv32XXJ0wzuPQiBGaNaMjRCKQbHw8YFNQ+qpil1vIjuchK8paHrp7BGH1QWfoxwPY/dU9VpH6qFv/hiNKvdesHttQ91BbsbrbvSzjKqO27yX7bWd92OAXIkG9vIEZW2PS3nMTBPfWELGzwwH31BY7v9cvGrXmPsz4HZ9c5JMEsfg/Ds1x/m+xsLZ6mN9gVR23MQKQVIn7ZQ4yyAvX+KLyP7AdDNtm3o6r307ud33dAPpH+GyIFrx38xYnhNxUMwIRpUs0FdvWwl7MlROr0iMgpw06kbdh22i/UcmPldFYaSfYkptxtndlTfoxJfxwmHA611XVfDJKLVeKVxGuK+3vllcsLtL474IhyKcsMaCQX4ySlf7l69S2wJmPgtJfIF+4RxfvbMNvtVpfg6UqgcaJ7iHI/p0qdQf2oHCXjsjxvd1OlRcD8puwJQy187zHpZVfjR8v/BdcWk+MKaj0KtVY08Jw7EJyf2qajgC1E/RyolhBJs7kyeVO6eoKwKsOWENYemK5XMHnhsPlOVsM+Nkg2pVNlDJBLVp1PrPIFxwSSVIpM5ZHXap5WzPsumADTbs6flPJvDgPeBd9rsq8PecqhScTqOPwdoy+YR9Q6Ny5RcVmhg7G60zyzX7FCZ1gEEH4WpTlXhxxFnrTPbqq/Qwu8veFGBUB2hrq7CbrRmFZpg+p4cGw5ZKNM6QVkUoKXBuQ0FV5rnFy67uamtplGFmTpOdDjQtKBmFlr3HytRxNl07O3AYlnpn5KbQOTeQCu8SkUV7JqZ7dX3yuLGJ4lqs8KZiL27B8Cn/f0N6+xn736dO7I0GlY6DjRP7brSMNhcpRyF+JeZ7TW/VIpbpEglVQBybMOmixfR+gfOGVPL37igWtoqNNd1HmFwowO8GJ3hBwZWfxcuP79pgf37TJh+l5cDLXVdN6LO71CgwoXb+qmldKArmQlELs2cp+eKA4WfbP4g4adBNBfGQjB1dF/GQqP3N0zxUktd4oq+4fq7fBxobK++U3FMYOLImSfjE7rUXSwKLFZJFIA2s5A/P4RzlAK9D6jY/CMtZzJMnq/64KvgnN8HJfg1KYpPHB1cQg7QmADZ3ReUJcmIabOnSWaC4hYDXhIFSO/kUtnMgnl+mupUKRj3+MFB8aAEF2O26felbFGCaBrK8FSbfQ3cSBcF8QBK8J2KsQ4dcRP6E7oC0B5elCJwTphWeGmRS3WqEzal0lGHiPftmMXepuX60LmpM5BygLaj2p32eaiT5dKIAMJ5+orWKQmlBbUgXDJ4qApApzfQBnYZAWkYfHvIvSG0FUHsJtPjgsBaKEkEquNEp5iEBu/joAwxW/gIDvVS8y8KQuYDD1UB6OiSILsfjEiRY1sJfHv0uMBHCEodTNtUXcanI99eWd7oKfYwq8zfyOIUCgtNAejQKpVze9IuzSX06tTjgkJFpjjp4+32a/DtuiEIG2YOz2iZ6vwwKF6+8FAUgEwfWHF0hIn0wYBofjn8+WlcgJmG5XpcIK2e0IG0yAkL4OmgjOBq/bOwTKFQFKDaNOZCyOTHFWIb48ZE72VBhQ8LTqaZHheExV11vImensuwePlBQIrdzCpDbTU5AFF/cNEVID3rA9+O/hnt8Bsb2GkPbwS2MabHBa31id/o9YIdaqhkP3767G4bMVFyAZQABoH/gwZ1GtZ1zvKPkR+kqApA5/PjnMi7g0hxGbsn7A3s6cF1ECHb4PwivV6wjRkl/5jVZr+C+grc2orx293FXiArqgLQ5RTQVOkCFTR9jUjZM0PnssHuEkI8qpqPHheociqceF7KbsSg+P0A7AeZY51rAuLkBIYpXJwnfvrmUWZt7L2gm1lwaNX4Ypzbg5mBWRgcxf2oh5U1u7GtJt4ytesq7Dv4OQQ80AdpK65eKM61OOT1/v6405ftVYicTkjrjyPv3yZL4XbL1RCUhfFFvCtvPBFO2NKQPJUL7wUpibibLZXwDi7WdU2qQiGliYCxWhM++/KL2tD6P14M4Q8kpk+Exo7qua31zjtQiHlBaxJbk21ZL6h3Dmtss/6l7ynSZgU7SKZ0fbIt/ieYByVmRsz5MF6fmBxvq/lD8TMpL8bG+daLsPNxJhS/wJcSzneBrM0CvCjOjkUxgeg2RtRP0IxOp5MQN/kWLEQAnR6R7GRHYc/A26rZoCf7UWudc5Vq/JLFw232McEX0v7bkuVZwozcbnETxgObZVlC1i5pnejsL4ujCiuKAlg1dCmd/Lod+HnfWs6DaumqT3eTfXwu4wIw+nJVRpY0HpSgq9qZXNI8S5RZ/LnajzEfNEeWXVrWLFaUcWTBCkB2MVbrLpIRDEFa82m3VRLvPhkdtPEatv1FdKOJLN42GGdjtn1H7MMw+EERI6lo5HzaY98TNCBGQ3ZRy4TkgYVmWrACGJXiRhAh9cykyymicD4/zfXTHgEVF400YwVbUyiDw0vvmeHhLi9mkhXP4xhT+j80qcFtobbn2B8NK0gB6KI1CNOFEvxQZPEu3cwii1MKGO0J2NN2XiVfIOX8BPuFclwdsagc8BZYv4VP9CoZUvQCF9Cl6LI4QbCCFGA3s4JG4rYsE5gbs8p9LRH5/NCeANB5tIzWvjAh+MNuhx3K8nvffPR3dg6QzAjuP81NqdALWNW2UdBsUN7ToLiN3GLckWcODca58oHOTtlZUJxQmDxXYIxCq9NSMy2TG60gY5B1PVaqdz6NoputFraYnYkb6lvwE1HBJ4SaR8SRN7bZ81sbkivhOHOYH6lc8CuuPVbcnu9JIHkrgLFbchoqSNr9eIL9DHqKMXAZHs4tsvdzMXkg/J/BR2k6hP932ShuXGytRng8G6zYYbTQB9YNaQUg2fE852cGZ4/68pezkcP3Sk4H/DHfOBJA3iYQWtVLJXgJtM77a/lsf6jddbkIP5R5eTLBjsSlz1mFP6CsGhwSBz74h/UEGqaPZOhxWUeQLPomz0sBWiYnvwaB+WdfrABg5mduma/KVDJ5qAwYTD3Wu94+jtYKZGXSsNJz4KHlvBfrAjubo31J4ey4eEP3P/UNUv3OSwHg83mJLAPYPD2b3N6HZXGiACN7H9NU12Bt4MJyHc4aBT5EnYauztSvUE/Sa24Nz82rF8hDAQQ3PHaelGmCdUTh8gMZjVvt/VODjl6U4dCw0nDgtpd2WY9GtV2WG2fs3Dgu+ZbFyQbLOUHzlORx8K7cNxuyTBjmrx7KfEfxre39KNaKnCZclyuVKdTpPkZd8ng5lp2hOSsAthGevTOa7SHQ1DWzOqyXt4dE60vb+9GqD1VqZrVZS4PcI7AoK5XNbHnlpADUxcB0mJYNUSYMh9o+WbapzwwRWd7a3s/ClAEVhHk9Ln4rIxmN7zS6oEMWpz8sJwVg9c7R6GqkBxV5vR4UIFqPtvejVR/5UoOpd6lsYRww6pApzndywZ+TAhiumBCA/D24s/4pIE5xwNghpYKI9gDo+X0VTkU/zoz5tSvQmP1FRilM9CAZ3SF5TgrADS5F7rmsbQfsIf7wPPFeEHrY+4/SHgA9vx/EqYEDRy8wX0atyeUy2j+tsgKkve540BWY/Ln+GYT1W2y06ZThrAtXZO+j5b+afP/1/H5YNVAevDhCRSpjqPdv0f50VeqUFcCyzBNhY/nGxwjlC+8L63XVjAuNR4KdSnqTMfD5e19cEP6PQAtuGanWnpx9GTNIvle22W+gKJt8i8PhJGqbJ/nC+wF8BbpfPDinsuP6h/X9Db//FyGUSnZ533SFfNN4A/fMHgKnu/M8l89wBf++lbDHan+eQrga7bTp4/MFe0FGZcxk42TwvjBlb1AzxsahdfV94L39ki8wRMDWI9Wl02MhZq9Rl4EDOB7mJW6mT5fOmjvMIGlj3TeRUg9AJxB4Hjuib8L+3xh9L+sfpn9rDoTBATflyWXNYIdjv0qtSt5KPYBTkzwKPtm+ccn+T82v+bNKhjrO4OAAHYYQq/JuRWlOoxLBOngRW4lublxkrwm7hPFna1fhrCcaB+zmk5fJRyS/DdgrPvBtwUo9ABfi8G0psnxgcPxGnEYJ+hkSHKDTGGKV3pso7Dn4G0F/WCA9m1eIPzQ3dOW0EJUfw7BRRnDphIvhyWU2k6+aAhhcqgDC9d7OINTvwc8Bbntz4BA5MktJd4PgLSmFEkAFpDKH9QKpzGZo9zVrMhG2vOXIBOcrdoxful+Zm+LhKDUGlbJG3xRfAt4Ldgp4nf3B0YVbleD0pvnV1EuE8sA7dKXM6QeHGigpgEIPgL35gh0qKwXn5koZPCwY3RQfq3BWoS7moQu+g94j9nbe1Te/hMXxbXh33/aV7WO7EoRmDhmuIW10cYf0IRiZ+KnpNqoDFeCW8V17Qbiqt6Xo9wHlSK5orwx0S+iXrOCf+qb4glkYLoKQlcBdWPVXFMCRFMKecZazjwSeBgUqgFXNR0uRcLFG9W5fKZ4cgfqm+BwZVo7oISpBetJF8PdlxaqqZKNlcIIFKgDz+Bg5EiP0aa9s+eub4rNxJYJhISoBTBy57AXKroIC8BgGl5IHx4ivlYBDA8Esq1BBjnj6pngVRoUZJywl4GytjGyMA6SyS2kDewCMgKV2FFyg5Vooo7BUMH1TfKk47Z9PGEoQcHgxxqdS2SViAxUASLLN924vKOcfb/8R6S99U3y5q6fISoATpKWyB+tELrvgR6ACcMakU16cu5+Xm6+55E+nxekbIXPhWJHjFlEJUJdS2QuSXSpZoAIgjlSLsAi2vsgsCh0djQv0TfGhs9k/gyIpgWCuXPYMLpVdIjBYAXja18O3MLzXkGqhb8IyA9A66Jviw6oD3OQYiLoISmD0yGUPW2KHB9ERqACCsSoZErc7lZDBIw7TN8WHUEEpzseTh3Ag6gKVYKPZK5U9HKRiBdEQqAA440eqAI7XKz2zMYiAsOAYvOewO03fFF/Meoi32W+6njg9bCUYxYdJZS+o8aYyByoARtKVMub0JIb3yOBlg+mb4svGeso43lH9VthK8EEvk8oezFyp7BKdgd6gpEVA5Pvs+rr81F7fhGEDhEjfCImb4pfDc1HppngaF3BTvISLNbLeFN/a4DTh5DsZO4pXKi5OlCIT/IT0JRrSSCEBcS2LCmZSgvjUrtNNgy9BQ7qrNM12c0jZi3TuYtbTWi/FWrgCSNEPAGAxb4rHtqfZWF2MxIOZrBNxVOCJkSBGQkReSlCfOLWpreY/JWiLBgqsTqi61M764lj5ILlolBaAaFDdFF8AH8qVNGdzSPB22oceRO9VEwJNHKmJRPgDFQADGSmSypqNgd1MUEFKAR9UN8WXgmFFziM3JWD7dtUkpwaRsF+FXAFgvktll/AHKgA87qQ9gG1USGeJggpRSjgdpjVYboovJd+KlRcpgeF5P1bBZxhsdFC8T8VmqewFWS+EP3AQHITErIoFdlVBBSkVnDbRjLK6foH9otIzTrfRE+BstS2e/lDiQHN94tseM7BzD21zwINjeNYGRGHDeitqWYU/LgzVk0E4gnsAwTbIkOC+sMDlZln6UsFmnNW1r74pvlTc3jkfEn7OjBcCZ4OQFGs4H1UnrI6dsewYYlhegJ8a37hjip1/BfYASCJ1dYC7tJSInbMsfUi8zjkuxsTTyHlP1dy33BRvzVWNr+P5cyAX4Yf0f4kjLuu2nvjnjxQQzkzInuQ0Hk9IZZeQByoAOpj1MIN8HyHMSPcAzVMSl+PqnHtQAKUNNLSCjPJmvSke55/O9mVEsQEBN8WDzt9hGnRpsbNVwYfzZ2epxKM4uQo/uVHE26vfUsEPX5+RUtmE7AbhCVQAzDfLtUgI6Y0xQQSEBRcur2qtSzyCs4J/oJoHhEp+U3xbTVwVV6HxAm+Kh/A3lpCevuVpretqQvMrk7109LyEv636jb55yb4NQy57mMGUyy6QByoA3J0/onNR/B5TYbTulzbMcMNk16OTVGr1iQ4o+nKnk9XNWWJnvXMgTFoHI24SfoPxJbDo5SvAVHiYPTj3/4x4DsJPyVBno/0lMw3/iOLJnsBBsEjJtzzigKIxsgzKCFMWfn1zZHFrqbnBOXqL8Pue3bk9w63C39Re/fr2QLUvtMtS2cMp0WuCMAX2AB42vcu0RAhvdFAmUYWDgVvt/Zp7o0rjQKQLrkLPq7b8aZs/x5Z/O0+o8ZX0AUbAqRFAJJPtdD49STkSmIIH5Ho15fYClO8Lwk/2vr4pPoQqUJnqzNfsyZAbp1vhuTgg8zvbu7sneC0hUAFufb76YwhLV7YMKAx2mHVIQ8/BfvAohoPm5frmyDLWTAFmzzaqJ3YfhG972++dP5w5z9iFjwEg4hgHsz/vjH97iOG6SgeRbk9Rvi9t75eP9+mciyH8QGRanlTmYP+vItkNKm3gGGALAjr9WRzthwyzRETMU37wKIRrez8CtVAk4U+XhM7/x60tfg/cXSCzwY+SAuA2ghVSP3jDODI4q/LF2GrvT29st39XPiqGeM7FFH5iZVrm/Bt4rOQrKUDgGIDygg0kR8bZselBCUUu1aN4U7y290tVIZJ8ii38JJFMfFeSI/OMAJndmlhJAeyE9TaZEH4Z0qi/oiFxqB88jHDFm+If611vH6dvig+jBhRxFl34GYuf2Ymz/6VrDK7YYCntKFNSAHJMgn/2O7Ii455e5btZZXhUYXRTPDrAD7LFTyurYNfA9/9CfVN8Ng6VKCwE4SfKzZghlzWPrUC9d6qUUkkBCJGbYsukCDk/WQovMpAE2016kzDa/0c/1OvQQ542s7363n7h+mcJOYBGaDO5N+SzwhtIphEga0aArPbJQFkB4PoUpACn4W5WpUF1n/wL+kzfFN9lf8P12PdgFc7EYannpzbYYxs77KUFIdaJgzgg9bIk4UfvPD4M4adFVwwATpcR6LrsNRm8L0xZYJ1u95Uay8TiKf5leWgcYOyaPBag32cBhxa01W/8idAy0Ih34gCE+2UIwdk7ARAQpvBTfofVO8fg5Xc/MAgACY77CsVVeZR7gNsWD4PrAHtbhpSbntpWQxkSDYs8B1zXmAFZ2LkXgM2P8FBa/gxTuCvfzorp+j/Elwz7NBM/6K3cA6QRCfG/4ftAN3BnfdA5NABwS1ZgKIGCwzf9R4IbV0DvD0D+a+Ccd7/bUf1gXF/cHQrHCWl8ofW3+OTkMabp3Q57YDyFoeV/0TNiN8fnV/0X/Q7r4UZaxnzRu0Is9gVmAeSkALCzF6Pra8yCJxM0Nj6x85tkm2cCwnw3T3V+DoX8V5hfWPWmnMQhODP+AbM+eVZ8w8b/Hl86fFOY+Q9l3KQEKD81eCV75jR0Hg5F+ydZhpiNzEkBlE0gytRrt9+ErH0iI8C0eFbbUJYmH9it07u/gZXwa7KlhUJMNIdXvUVxssF12MDkgJeSyxaawU9XLYCM5vDkpABkVqChfVqOn5+LljjdHsvjFQZ1e126rdw3H8wUHOy57pstdV31heWkU0eDA5Apk2RL9vD5uV7Zm5MCUNaux5+UksDYmNlTkyfL4hQHxkco4KklhcX2vJY4+Y/rZ8ByYHZ98kTU5YGyAsA8kspmtrQ5C0XTAus1mEEfZkOWCTMNcWnmu+xv9BLYOTET44JF8RM3+k+flZ1QTYCMA6YIlKl1XruV8xR8zgpAPtaewaTz7rDF6q6f9GWkjkvR4wKZeEUbdu34L6i3l5qynmBP5DPzl4cCQAV6jV/JWIauqnLXyopLZHHKAdPjgnJwvfA8h9uQJS4/hRwDBKlM+lGRlwI0LrT+AnvrVT+kFM49cVX8EPntMrL0IcLS44KWKYlWPS4IkctFQn3ZkaICs31XS9EJ9lpje9W70jg+wLwUgHDR0YE+ONPBaG33iY1NnieLUzYYxgXc5DP0uKBsNaCc8X5fhQxxtq8sAZzupLIoS5u3AnibrKfRC3wmQ46JqxtKMSUqo0EG0+MCGXeiAEtvfMEBZ5JHsM83fmzNk8SQgvJWgLSfveD3y7BDwA5tqXdKuloooycbTI8LsnElGmEtdU4d6ke6+R0box64+3Xu5Etx3gpAGXZ1px7AS5o5TmGYXQ5bG73TMsxGSe+R7cM0PS7ow4wofKZlhvPZMlpQx0nP8aSNsCw9wQpSgC0eovwxWSYG59/gdWUYC3DxotvtHgMlWC2jbxtMjwu2sSIKH3yqcw5ZEDJa4Pf1WC6en9lwFaQAaYQOvxOa6LtfmOKYTDTT7SzZCAgzLP7ssD8nunvgvUpH9ak9elygxqcwY9HsIbbgtsjyIJlLpfidsjgqsIIVoHGxtRqa+O/SzDg7YI/q5LXSOCEBf/rsbhtTbdZEz2U/Vc1i67jg9y1nJQ9WTaPjFY8DxsEOPHzlbg9Yj310q0dqQRkXrACUe6qXtcDUkN7Ih3WBW+AqvVdB1OaZmFYImxZU/8QV7OwcxgUjWIWnrDR5kqaT9ePALZM790QDNLNf8A4/SdZ40pD2EDskkPzIaT+AH574Ivsfc+q6Hsa05xV+cVCoYWYVvx3wC/3ihB0+q716XvzMze+aVWZHYAsDYmAOndqXpviZyQNilvh+37DQvj1xQmi4I4y4Osap0RkmJ5E/MvM5++/yOGrQoigAZdWbcJtjNcb5WGLaxS9rmEoXtDQkH2+cb73oFyfs8MrqSs9NYRs9NCDXx6xgB2EFcHau6fKKnwd9eeUToUSY9jwZ60YXyUiC7b/Zcd2i1UFRTCAimEbjOJUhsFvinvdgfJKolhUyLFhrfVcdhP8NsvFV8oCWvKQST8cpnAPXHits2PUPBWGCArTeurD2k6B4qvCiKQBl6P3Nvhevv0kzx4DYiDmBiiLFkSOQ5pRpTwDcuOeTKaaSHIzeyF3jJypxdZzCOTB8H6cZnd6BMkyw/Vd7f7XvkcXJFVZUBYiv4j1Y+Aqc7YEQ/uvseuekXInNJ/5Np27Y1ahLLqQ9ATB71AwLwd53e9x/Jqe/fPIsTRrDLU0+4efSXOecgIPMrwvKyWXiOpKxoHi5wIuqAJQxjiN8Bq2ndNskpBDTvOKxm8/cNDwXYnONS3uCa4dZ/4lrUs9UTQsFXtLZ03MUrSGopilHPOEqLvCVg7gc8qRNSqifx0kmZMkgU23xtpqFsjj5wKSZ5oOQ0rjd3lV4SU9kQIH3q6msDLT58qUB25JPpj3BqvY+5YNZrNvd9uoJtHaQd74lSAhh+Mh2rAUlyCr0LHB4wYPI5CsBGW1yusSVAXHyAoeiADgW5WNPcLkXH8iFcE7DuT5yX++8ipXGfTyS1qokh22Z8Dx2TuP86ptpzUAlTbnikPC7hpiicpN6uWhUzbd5ateVkIHAU0Q8V9x46/M161Tx5hJPzSbOBWOfuJjWWoybOs7oE5TtszeF1jrebr+WDegXRhdJc0PE/eDK4bD3Pc+b2rSgdmVQmpYJyQNFpXtBULww4EYMF1F5bHV1wuoYFMJf3zUOre8r4FWFnF/8+Zlt1gQ0aWiniv8UbR0gG2lwRrvYrDJWQMv3yAbfGlYBX6F5t4xPfCssLffLm+z9RE/vuaomD7l9ANcsP3w6XI0D5BEA4Scffrnww9c/1e1eFJbwE7WhmECEmB4yhWBZ/2DLL///oSB72TZfWOL1gTsGgr3vz7WBCaE6RqNIg9m9g0qQ4uKHW2QoKGb+8FAVgMiiWSF0XoE+2zi75KiKmPMEzdnnX5zglGTvk0/QzLbqm6Ju7weXZmDFoLrFGtB/oMGDh678wTHkvwhj1qd/rqEKWyaz3vfs6yB4b2Z++70xCzM5Vu/8mx+84HDY+8L1jiWfoIJxaQQ5c8CY4tyNDe5TFBK+9aljBa4nKeAJjFISBaDFC9dh06AEKsdWX9lSn4gHUp5zBP48ze+rDHZzRq0TBHKgtcFpMsyA0x2ABbNcnzmdbNrcxbw7EGkRIpREAYjO+OLqD5jHz8Fn4AomFmxnNU/pwob64jw0v097AlQHu8XJVWPJcABT3dcpOhFCNvi5pbzUsGQKQMxIX10k1BY00Frc2VKX8HWvRluxIcNgvzfZ+wNlft+vDAM9vHlK4nI4oNylUg7cR30V7nJ+WSVuseKUVAGI6JntNb9EN3enSgHgPn2fX08gXFfOqK32flNH9VMqeek4xecAtfyGKT85JJMr1jjuauyo+UXmd6neJVcAKhi0/CYogdRfKMOAdE+QZUzQtGjYKqzizc3E2/Gt7f0d+VH6X2Tzq7b8HmPzZ3XYN5aeypDXAfwLxIW70T4f7smv+MfZDqExwZz6rnv7T5HOaLOvgYlDfkfvQaFSMHlWA+f12t7fzrtSf1Edodf+N0Wbnwa9S70N9vfDXOyS8SBUVwhZxgTDtaq15ghnCYg4NiguwbGesLA3ZZ8XX8S7VOLrOKXlAC1y0Ty/4lQnhnHsjdRG+zTVS63DKE1ZTKBMQajg7obuicxjf8yEyd60TmCazu/gNhG4iijDo2HF5wC5N5gxZ6mq8KMu/5Ta2D2hnMJPXChrD5CpBrpLYLgZWwLHjP+WCQt4r4PdOL2prXpZQDwNLgEH4lO6vhsz02M6pYaJhH9TT+q0uxbt8nkJyJNmUdYeIEMZMSK1qftk6hIzYQHvvUH4Ky1Tu8j+108ZOUBT1RD+pSBBSfipjt313SdFQfiJbZHoAYgQemhMEBvuLARVJ20JUfhfsHlY4f2RXuRS4FURo9BOLtrMouLPn8mWBryY/JhUbrMnQw+9I6UARBCUwDKHO4+DsdPot8qD2R9aZT4/vdCmkkDHKYgDtIeXtjECyVdUEdFUJ832QPiTqmlKES9yCrCl0II3Nzh3GILuF1B7oATY18Lu3vSJ3VjIcdlquQ3NWHR0Sfr0Bmxgh+Aom8+0yLVlnj+cTS2F1EZEFWBLkVrrEv8D+ybvwy9TuZB0ooPgl4HhLymn0REDOZA+tArn9kBgpEeX9EPkYjvj1U0LaugY/Ug+kVYA4hgdn2II8SRMItmusp2Yi91ejzquuKmYhyjtlMkQCKCzOrccV8gvyqW4sPc/g4V9bql9e3KhkeJGXgGIyPiErv1iNpuPz6Ppt+qDStiMv1Y6TKnY58mo0jBQ49ER5eZY5xqcj4rzlPyPu/Qp31vk0lxKr04fOgKDB4QCUCmoQmJfc+7G5+WBpeoXgVwkMD5oFB32k/GIn/rQj/SS/yRXBrqcgs7nz9HcSdNKO7loM0up/PkLZdCAUYBMQVunJCahih7J1STaUjt8lSvELIwP2tD5QS/0s50DgtOdXGjtZwfdzLI9TZ8v2sBOe3hDOLyqTy5F/xxwCkAcoGX3mGX+O5xJxufFEc5Xokf42Qf/sJ54aDnvzQvHIElE9/B+9SvJcwUXN6BROTyfYtHpGk4Xu6jUp3rkQ2v/NANSATKFwGaLS+BvTnsLdsuE5fQW7ENPsHudzalHbntpl/U5pR3gka8d/8WIEdUVP4QAXIORoPQeXklRN9GhVbh85JGB2qMOaAWgikmfMWMZ92FSukFSUXKQYN2I0OZy/vCsNmvpQK1MeSG3QHGg2InMEJfCAGyA4Od9bxsmF9rouMKB2Or35dOAV4BMYWhswEz+c/w+KBOWz5sGzMwVvzVi4qkZ82tX5IMjammap3Qehj0V54A/56LCc5nH36koxJ/0Kc0DzNbfqSBbAwaNAlB5Cpy625lHgv0X9qnOFyZfvLLNfmMe49i0Hf1nOhPmIVOc7+DEvYlYQqyH8H+9UKoH65TyoFKATCVvWbwxmtBaXYICVmbCC3lDAOjE6BeYJ14Wnvda06La/xsdUwmuI5M6v2GaxjiP81NA52kY0A4vpLyZtOAhzuPnjzgpd/ZgXFQclAqQqbzWic7+wvIace75hRCIop6DmlYIzl+HB9JyZvAVbtJYwZ6r+ls85HUGmqdnE7sPMi3vcOGKw7hpHIV9hccWS+AzvEP5UpgOfYx1G83FupAugztK70GtABlGxycnD4rFxI2YrrsAgmJlwkN4O1gIWs2FWIt81kCI1uIYxnUGM9a7hvt5LGmsT3T3du5WM6zHWc26M6vTZLrZB7KqTYnNlTVVFbUpy9vd9MyRHvN2xw6rvfA3BrbXaJgyYyCUZMPbIdCeRgma4a3JH3ddfkcx7uENi85i4R0SCpBhVvz0zaMM27jCMDidVTMyE67ftD2XrYd594Db5d1HFx4OFZ4MKQXIVGrarXev5HSDiUuhCMdlwofiGy3+MvQsD6//2HpqKLqRD0kF6CvoLXXdXxfMvQRmxnkIV9vW1xfBwPxeB9PstwYzH25sr3p3YBahOFQPeQXIsJEGl7hN8njY7ji/VDSAMaMysMHwhokDs4bPxwkcT7kd1qthD9YHCs+0AmSpKZpHP6zeOYa7YoIR42cIj30LptLA4pWgM6dw3IwnFg+0dYwsVRJa0MCq1NDYIEdM6wqWaZwEM2kcWtBx2AxITmOmPFXJoS5oWwHalsG/aVnS9V4ZjPP2xeaqVoA8OHr7ZDEsGUseZXriCHhVHyYEPxw33BwCVKFNT/Yj00GvtAp5r+QCaxAGf8dKWW/ftJBv7hdP/wzggFaAAAapgwWfcZazT0UFHxMTbAyWq0bDBtkH8/Y03TqSG3x3mCMjcCiUhTnHShhUVWB+epU6vdpKDnmc9cBJLYmFtQ1wwSDv1M/hn0/vD3F561qsTK3p7RVrKp6x12kbXr1mdEzNAc0BzQHNAc0BzQHNAc0BzQHNAc0BzQHNAc0BzQHNAc0BzQHNAc0BzQHNgaHJgf8Pn4CbnE0oqXYAAAAASUVORK5CYII=;" vertex="1" parent="9_3zUpzs3zl5Dn2b_ulE-15">
          <mxGeometry x="120" y="60" width="80" height="80" as="geometry" />
        </mxCell>
        <mxCell id="9_3zUpzs3zl5Dn2b_ulE-14" value="" style="shape=image;verticalLabelPosition=bottom;labelBackgroundColor=default;verticalAlign=top;aspect=fixed;imageAspect=0;image=data:image/png,iVBORw0KGgoAAAANSUhEUgAAAMAAAADACAYAAABS3GwHAAABdWlDQ1BrQ0dDb2xvclNwYWNlRGlzcGxheVAzAAAokXWQvUvDUBTFT6tS0DqIDh0cMolD1NIKdnFoKxRFMFQFq1OafgltfCQpUnETVyn4H1jBWXCwiFRwcXAQRAcR3Zw6KbhoeN6XVNoi3sfl/Ticc7lcwBtQGSv2AijplpFMxKS11Lrke4OHnlOqZrKooiwK/v276/PR9d5PiFlNu3YQ2U9cl84ul3aeAlN//V3Vn8maGv3f1EGNGRbgkYmVbYsJ3iUeMWgp4qrgvMvHgtMunzuelWSc+JZY0gpqhrhJLKc79HwHl4plrbWD2N6f1VeXxRzqUcxhEyYYilBRgQQF4X/8044/ji1yV2BQLo8CLMpESRETssTz0KFhEjJxCEHqkLhz634PrfvJbW3vFZhtcM4v2tpCAzidoZPV29p4BBgaAG7qTDVUR+qh9uZywPsJMJgChu8os2HmwiF3e38M6Hvh/GMM8B0CdpXzryPO7RqFn4Er/QcXKWq8UwZBywAAAARjSUNQDA0AAW4D4+8AAAA4ZVhJZk1NACoAAAAIAAGHaQAEAAAAAQAAABoAAAAAAAKgAgAEAAAAAQAAAMCgAwAEAAAAAQAAAMAAAAAAbvMb8AAAJ0BJREFUeAHtfQuUXFWZ7t7nVHXV6eo8CUTRQRoXcc0QYy7heglxhlcMk2CS7gSIcheMzAKuAwZlIjqQdKfSnfAQIvJ0SVwy6oxIIOlOECJIENQEdRlHIlwXcCXRkTcJeXTVqe6uc/b9/up0Uqn02ftU1Tn16n1Yoevs/e/9//vb/7/Pfv6bMf1oBDQCGgGNgEZAI6AR0AhoBDQCGgGNgEZAI6AR0AhoBDQCGgGNgEZAI9CoCPBGLVjlyyV4cl5qshEzWoVgJ3PBW01DnCg4myRccRwz+STmsInMYHGA3gT5YvhHf+kZwL9+QX9dlmEm28tdtodx9h7C97gOfx1/dzND7HL73V3JJxJvM8ZBrp9yEdAGUAKCt88Rif6WzAzXFdM459Ogi9OQzVSAmSghu6KTQPNTSPQiE3wnE+IP3OAvxPriO254ilO4fopAQBuAD7CWzT8waWwkcm6EsVmuYLPQMk/nnOG1dh58dbJMsN8bnG3LMrbtQDb7s7WPjaUviH4kCGgDGAGcJBOGsdj+n1yIuZzxuWhxzwBQxgikNRsEmV3I/FvXET9xTb6FbbR+k2ToWOnnKAS0ARyGA3349sysCBdL0JpehBb+A4ejGuAHyvQWyvRoVvCHkz3xbXoMMVSpo94AkvMyU8yYeyWAuBRdmw81gK6riyDY667BHuKDxnc6NsdfVidoXIpRaQDJc0ScT8gsNpi4Cq3i2Y1bveqS4cvwcyH4Ondf/NHkszyjTtFYFKPKAGgwO6Epeo0Q4loU/ITGqsrySgNDeBezSfe+PzB4/2gaPI8KA+ieb7eyKLuBM/F5qIlVnqpIUgvM5XPxmhDGboOLXVCq3VgPeIsz971BxvewQeM9NjjYxwayA/v7x/f/9fnc/D/78EzWNC62L8aaIk0sGm0xYs5xpssmOcw4DtOcHzBM1ioYPxnj2lbkdwq6arSGENZju4J/zx3gtycfj78WFpNaybehDWD5nPTfWC18BWPiCgAeDRR0IQ4wbjwPpdzhOHynYZg7d/Y0vfII406gfAoyu5gJc1r7wBTXdaaZJq0/GDMw43MmjHtcAWm5r4MYKD9o94nVa55q/u9yM6vV9A1pADfOPXh8i2V2oAW+OqjWEi3wfsHE08wRz2BFdpvbk/hDrUwr0rRtdHFqKlaMZwmDn4+p29mBGQS+asBwXcp2um7ZMubdWlXkUuVqKAO4eoaInnSSvVRw3hmEAsCAXhUu22BgHj27N74dg0SsMdX+g0F+JDIxcxbWAOai+7QIEk8pV2pqADBp0P3nP1t3P7CD4+vQGE/DGED3wtQ8bvI7US3lVvZu7N95eICJh7s3JP6rEao5Oa9vuhE1lnCTLUGFt5ZTJmoUML65fvnGxOPl5FMraeveAG5a0DfZMo27MZ15Samgog8NfWe9zDDWdWyIbW3cRSLBV7VlzsMmvatQ5nZU/vBmvKKhgyGstx33ups3t2BjXv0+dW0AXW325zkX34DyTyixCt4ULr9nnzO4bjRN/RFWNCU8ril6pSHEdXj9YCn4wQjeR2OxrKPHerCU9LWQpi4NINfqR8zvop8/ryQQBX8JLeBa55X4fyZf4rQVedQ+ydNEk3Fq5lJusGXAc2opQGDadEvGca6ox69B3RnAmkWpC13GofzFL2RhFuePaPGTnb3WI43bzSlFhSkNukft9kXo36/CLNLfFpsLGpR3MEj+53obG9SNAVBLFf2YfQeAXlpC5eyC4ne6vfEf1srUZbFlqBR9bidsG30RRBeUo7UEvvdmX7aW1cuXtS4MYPln0h+KN7FHIOzMIiukD4p/8zv98W/cs4X3F5l2VJMvnStiJ8Qy/wpDuAlAtBQFhmC/sgfZRWt+3Ewn2Wr6qXkD6Gq3z8an9WEsxkwuBkkM0P7DTouv3vxk4s1i0mnaoxG46YLUB60Evw2KctnRMfI36hJhk90lnT3Wc3LK6sbWtAF0t6euQl/9fszy+D59BeB3Mdf4Qkdv/KnqQttY3Fe1Zz5tcPfbUJhWvyVDI5TFLNO1y3sTD/hNU2m6Gj3lJHj34vStOG/7gG/lxwjXEexOZ9CaqpU/eDVa2RP/KWFLGKOR8XWyjOoOWzO+TXVJg+zgpSo/x5oTivqeky37eyjaEt/FwwEPLNVfjvnoZ3yn0YQlI7BqkX2uKcQP0C31fYCIFs7eyViX19pYrKYMIOdtIWFvArDn+60dALtxb3rwqjufHLfXbxpNVz4C11+wf+KERPQBdCEW+85NsK2xlLWwlrxX1IwBfG323nFjxsafAJhn+QGU+pfwjHPDit7mb/qh1zThINDdlv4SGqw7fHdVGdt+8EBm3m1PT9wfjkTF5VoTBnDj+QeOax4beQognu5LfMHedl1+cecm6xe+6DVRqAh0LbT/HtOl61F/vhwJoPH6XfpAds4tW8fuCVUwH5lX3QCo5W8ZE3/Gr/ITeI4j5ic3J97wUT5NUiEEkgtSJ0ajfDPqZ4YfllSPfQcz51X7S1BVAxjysGbTdKWvbg92bP4YfcjP1lIf0k9ljxYaqk+7xX4I44L5Psu8PdZnzalmfVbNAHKzPXH78SIGvPe/sNG6Lowjh+QaxYi5twKM2fgSjfFZeXVJhpb3IKYxn+aOcWMYLlHoyOb0dvsuTHpe6wsgDIzfzlgXVmt2qErrAIKfELe/71f54Vy2e8XG5mvDUv5I3P01XAq2N7ryk0JSGXNljbi/6l6Q+ZgvJS2CiOpoeU/zF3EarctXMsz45XShSusEVTGA7sX2LagIXwdYhMP+raM30ekLzBKI4BTrFiQbX0LSek8y3oi4WKAK5+nclFjpuuxrfnInXSCd8EMbNE3FDWBNW+pqTF/6AgZ9/i91bGq+LehC5+eHPfCz899H0290hUIte2dv89dxppoO3Cgf0gnSDSVhwAQVNQDa2OZyfp+fMlDLv6Kn+W4/tGXRcD62rPT1nRi7PMPdotDR23wPxh1f9QMT6QbpiB/aoGgqZgC0pZl2deJzp9zYRn3+sFv+oADU+agR6Ohpvt3PmIB0A0dc15OuqHMNhqIiBkCHWawoexSDXj9bmu8Ps88fDGw6l2IRoDEB0tyrSoeZuBNIV0hnVLRBxFfEACIfs9dC+c9UCox5fprqVNJpgrpEAHX7ZWwjfUwpPHQlpzNKwvIJlN2RclnQGV4Mtr6oyodWBuNY5ApjqlPFWxa/YqOFRgJDtDp9Vi9K14zsVLef7BOfGxhjP4f6Vq0YfxG685OwzxiH+gUg7w10gF2pO9jbQ9sbqrkiqJRREwSCANXx4KBYAAN4S5Uh6Q7pkIqunPhQDcDKuS6Re28AEFna2Kb39pRTjfWVluoaZ7UvobqXSU7jgbhpPiijKTcuNAPobrev8OW3R7Cv6F2d5VZj/aWnOoeCL1NJDjctc0mXVHSlxodiAEOfLbFWJRQGRBswT3yXik7HNyYCtM6Dr8Cj6tKJtWF1hUIxgEO+OuXuCnGM8f3UYMVX/tRga4pKIpAaGLgao/S/ynhifWBCs2ncI6MpNS5wA6BZHwgs3+eDA+x0hlcfYyy12hon3a2Pj38fg93LYQToEEgezi4m3ZJQlBQVqAGQf34o9jdUkuAKlW/qA+wqlEZP/MqN1s/QIiqPtsIH6Z1BL5AFagAf+YhNi1hTZFUHS98lshauLdKPRuAIAm7W6iDdOBJy7C/0LE6Fe8ylx8aUHhKYAdC1RPiUdahEcYXxf5KP8bSKTsePLgRyOsEN5ZiQdCw55+AJQaETmAEkLFN5LREs/AfkYCko4XU+jYVAx4b407jC9vuyUmFqfVykxVQ2tLI88uMCMQC6jRF79+HGUPr02Snh7xyANBsd2cgIOP05HemTlREN6dXJ+fZJMhq/cYEYQO4qUsXdteSlWTuq9Vsto5cu+UTLWzgXsEaGABbQmswIC2QcWbYBJC/MnIJDFdKVOhrckItyWaF0nEZgGIF30/E70aN4bfh95L/iiiHdGznWb2jZBmDGxFfALCpjiNa/s1qn/mVy6bjaRIB0xWG8UyYdZoQiRpO4QUbjJ64sA6CL1jAo+byMEV1LRDezyGh0nEagEAHRE3/IFeL/Fobnv2Of0D+RDuaHFfu7LAOY0BS9BgwtGVMsXqzU1xLJENJxIyFAOgP3+CtHissLs8abUX/+h/IS5f8s2QCS54g4zu7KD7rgNsaVPZaPzU75IunfGoEhBDo2Whuws+BFKR5cXEu6KKWRRJZsAHxCZjH6YcdL8mauYHfU82kqWdl0XCUQ4AJn8aBD3g/poDE+c5E3hTymZAOAhwfVvP+b7qu67y+HX8eqEMi+En8I+4TekNHBk4RKFz2Tl2QA5EsTlne2Z66IwMzPPfVyVaasHDquugiQDuGaJelWaOjiP5Tq5rEkA4A7wStlsGDef2CfM7hORqPjNAJ+Edg/MPgd0ikZvYjKddIrbQkGIGBw7FKvDHPhgvWufWzse1IaHakR8IkA6RJ0rkdGbrjsc6V4uSvaLUqyPTMLPn7knrsMo2Fa/+5FaUzFpWTY67gKIOC4fJ1piCWerKCTXQszn+rcxIq6NahoA4hwiRCQDp+qXR0bYls9Ba2zCM6Uc9F1VqL6FHdlb/yZ7kX2LnwJWr1KcMhAijKAorpASSZw7zGTTjnBqe3DeurTq4p0eOkIkHMy8SNZehBcRDoqoymMK4qYLbI/iQGA9CI0d9CFAehHIxA8AjgrINct+J412u3/VQznogzAcMRcWeb4OryK7ay/l9HUWhxkljpnqjV5g5QHLSYOolPLWh9PZ0/LC5D0FZm0XMh1tDBtUQbADS43AJdtKGRQB+9/qgMZwxFRsLorOzZXynWM838sBizfBpDbdcflDk0Nk28phnkt0GJQdX8tyFENGdD2113ZhWNIdQz1eQadT/eLp28DGBuJnIvMPemxaWl/dm98u1/GtUK3oseiVca6U4Ry8UN9fWtFr1V3Xvnc/fHnSdc8y49pOytmnusZXxDhexoUhLNknUV8mp5OPsvrsD/NxYqN7No1i/u+LVxjthB8DDNc2Ho4j2paFTiuCofzUK7YXnbAZe7WQ/3pMFmFkjfpWHd7+qdYi/KejRRsFpiv9yOAbwPAzs5ZmAHyfLgr6nruf/mGlp0oHP0L9YG//pUyBh0bm2EA9TMwlZUlrDgcwoKucU8DwHlhMgBfj2eXJj813QAOi5ueH1b42zDFtsIw/a4RCAMB15XrGmb2pud01gdzXwbQ35KZgdbf+2shxIHBDYkXffDTJBqBshFwNyVeko4DGDPtROYMP4x8GQBOfn1Cmhk3nk/iCJuURkdqBAJCIKdrgj0vyw7nVeQ6eyixLwPA/P80GTOsp+yQx+tYjUDACLgKneP84344+jIAzExIM3McHvrg0U9hNM3oQQCb8hU6JxSN9hBWPgwgd5P4VBm0hmEqhJGl1nEageIRcE25zmEgDJ3N6a40c6UBJOelJmP2M+GZi2D9O3uapPszPNPqCI1AiQi8tKHpVSh5xis5Jm2ab7ogLd24SWmVBmDEjFYvJhSOY/uv1drdvjJ5dVxjIEA6h6651H1iU5xLdZeQ8J7aHMbJRSam9xqwEMbuYdJ6/UuH/I2Yeyu+dLPRcoypZjlWL7Ixm5YOTQS0mgdRm09zx7ixY3P85dAYVSBjzkn3xN95scLkDRmAdHuO8guADE72YkDhcE+3SxZf63Gk/JG4+2uDs/ZqK38lsKIy5soacX9VqieFSsjphwdOZ0l1zzDkuks8lAaAFV7p+V/XYVIh/BSkmjTwcHEL+I+vpgxV4j3eiLi3Vol3IGwdl+2WZiQUZ9eRWGkAoDlOyoTzt6TxNR6JfSWza1zE0MRDV6iuyw5/QW9KwRFCrrtIrDYAwSbJmJjM3SOLr/k4zsfWvIzhCdjiZ6owPPbl5WwwR6V7Ut0l7koDwBFjqRU5BtP+f8qrR526RAQcg0t1D5MaUt0ltkoDYA6bKJPP7TdVVihLruM0AiUjYA4Yct3jct0lxmoDMFhcKuHgYJ80XkdqBEJCIJ3NSnUPU75y3YVcynUAfEaapPIPZKU+G6Vp6yByxUYLjUT9HlDBARyMdRvzcQcHB5hleheOc7nuIqX6C8BYzJsDY/v7x/fL4nWcRiAsBKzsBLnuCSHVXZLLjwFIreivz8u99oZVeJ2vRoA9q9A9rui9+DQAjbRGoGER8PMFkPbxPzxTbWUNi54uWHUROEehe0LxhYD0fgxA2s8aF9un7GdVFyXNvVERsCPvy3WPc6nuEi5KA8AUgvQLwJoi0jFCo4Kvy1V9BIxoVK57Qsh1148BwH2q56GDHATRKJbT9aMRqDwCzZGIVPew81WuuxBZ+QVgJtsrK5oRc5TLzbL0Ok4jUCoCTpMr1z0h113iq14Ic9kehtUwr8d05ZvlvNKFFQ4Xh9NyLg65CGSTm9cVSdw1sg4Tf2pOW5tveIpX5Q6l5HzRzE17ocn4R4XhKutyJMy9yldIW4suFU1XTGJo5iWPdK8QpVODxuWb3RxmyK1QIl2wUYLjNNW9WP6+hgwWPjgDyd7Tl6ch8HFkrD9hv97VllrY2ZvYEQhDn5kkF6VOjwh7M4qJ8xpwE1VieT3LVygH4DTwH64p+lbHxvi1tbA6LoQ5CXcEF0p6+B0x8r1CoFR3gVSZCKE8eHxYohB/dLfZ1yH7a0JkMXLWUEDO+Wa/rvhGzqS4UGr5I4IfUv7i0pZLjfMT/7K6zf5SufkEkl6he/g4KL8ASgNwHf66TFjDZK2y+IrFcfYvFeNVwAhAn2hbmYUFwaG9GhF7wVDLHxoLacZwNlL5hmYEiUzFkUf4DnpjhGRHBSkNANS7j0pR8OIKXhsGwNhHC0Sr6Cs3K8cfh72rWlYYX3X5H6pZl8t1z1UdmUQ+agMw5AePOXdPrqimeTBDK6wez3ikDSJYOKUNQkvi7VS3rLnhgA+nUyWVrYhEQsh1Dz5td6myUxqA2+9KM8HswCkXM0HjQf1oBCqGAOkcBvCnyBgOZAIwgOQTibeF7Kp0zmLT2gemyATRcRqBoBE4bfHAqfjqex54wWxg+uYnm5UOG3x0G2ieKf0iCuB5/6rrOtMQ/8egCxlkfmVfPST42QD8nCBlCisvVP5zOMPzbDn5+54eLYdJGWkNBzon6b+grqCzkjnSQ7x9GAAoBTzxcuFpAKaZ88Qrv8S4jMIGkbTcq4cwzboSGJwThCxh54G+73OdmxLJcviornIqJ+8g0uI+YDS6GI14Pirv0UMJJTaUl7MQf8h7G+GnMWOEQB2kEQgPAUOhc0qdHRLNlwFg2o1u6PZ+hDszyeBART8agQogkNM1zmbKWLlMobOHEvtS2lhffAf6ld5XoMK5VHRxaqpMIB2nEQgKAWNh6jSsSI/zyo901UrFf+sVnx/uywBym70E+31+wsLfTpZ/qjBMv2sEwkAAW0+kuganuC/43aDoywCoEPAoLL8G1eTnhVFYnadG4BgEuFzXnKxCV/My9G0A6P9IDQDTZrOT5wh/s0p5AuifGoFiEMjpGOeflqZRNdZ5iX0bwIFs9mdYEPC8CpX6ZJGJmbPy8tY/NQKBI2CMy8yU9f+xM1zY/c7P/DL2bQBrHxv7HmZdpQML1xFz/TLWdBqBUhDgpivVMTTSv71ly5h3/eYtW0k4Jo+uhalVhsk7j4k4FIDR96sdPc2Bb4tILkqfGRFsNdY96AtjefH3Gw45JdcECU5nC7iR2/JLux7L3uck53e01CFc1+SAw5/w7f7Wil7rrsLV0e62zBxmuEmsmZ4OfOVeFo4W1evNRiu8PcvZiuTG5l95EZUajgW6l5HWU8fQCHdhEXCl3/x9fwEoQ9fkW2QZY/n51I7Fqf8hoyk2Dsp4DgYWP0flnI+0ZSs/8YecntcE0akyKP83QUYgl638Kn4UP/yEdF0TlWEKtg3c2dWeuX+YF/3taktfgt28P0ErODMg5adsLaorMH2O6o4CgnqS8/qmIy9P5c/xMfhPiuFXlAGwjdZv0JpJNxhFs/ySYgRQ0WKf/d2giaroSow/6pogOk+MfMI87HEUv0KZw76uCfe5faGrve8TxJcGk2gI7oKyFtULKJTZ6x2ZNh2qOy+SosONqLFEmkiwt90e69dSmoLIogwgyTjOILBHC/I46hUnxD5Lm4eOCizxJTnn4AlMyG+pLzHrw8nQZ5w9/OK6Bn1lQn3y+RUywuDusCyFcUG9m9zI8TAmYDGJs3CPs6Lubpx78PhgZMf5LpNJDQBK9yjpaDH8ijIAyjgr+MMKBid3L+4PRJFMMzpGwSuI6JbDBisqcl3SEX6F0lfguibHOeQtwzXHFrIP472ZRQPhs6otcx4UvFUmo+MqdfOY5EUbQLInvg2DnNePySk/wHWvyn/VvzUC5SJgGkKuU9DJzk3xXxbLp2gDoFkEfMZ/KGXEWduy+QcmSWl0pEbAJwKkS9C5dhm5a7CHSDdlNCPFlWAAjDn9xndGymw4DJ+qpvFmVG6xw8T6r0ZAgcC4puiVpFMyMj4o10mvtBGvCFl48on4K93t6ecwiDrbi44bYmnyNLE2+RJXOij1ykMZLthrK3qaP6qiC+qaIL9zzEHxKyyXn+ua6OAOsE8Wpi32HZ/5X2BN5x9U6eBZ7v9BOZV1oMrHKx461MRde6lsrgqy/rxjc5zWB4p+SvoCEBfst16n4PZBc0rmfytodLRGQIqAcWrmUjS0J8qIhFDqomfykg1AvB/fAMuTLjmjZVh2eIbFUwQdoRHwQgBTnwbpkPdDOujui0un5r1T+/EL5JE6+SzP4KTYvR7RQ8FcnNbVZl8spdGRGgEPBFa12xdhbWSqR/RQsOD3kS5KaSSRJX8BKM/3BwZpad2W5M+oP5o7wiYj0nEagQIESGeg/MmC4MJXe58zeF9hYDHvZRkA7RCFX+J/lzHESvvfGm2ZS2U0Ok4jUIgAb898zuD87wrD89/hlvN7pIP5YcX+LssAiJnTz+/An0EZY3wFupbOVd/ZKstDx40eBEhXTCa6ZCVG3z/rDvDbZTR+4so2gOTj8dewAPGgjBkGw60nxDL/KqPRcRqBYQSOb85cj2nPU4bfR/7LHxzSvZFj/YaWbQDEyO4Tq7E9ol/GFF+Bm266IPVBGY2O0whgy/MHDCGWy5DAcu8Azv2ultH4jStpIaww8zVPNf83Fn/WIfyLhXF57y1Wgt+G98vzwsr6CSAmdC9KJcvKpIjEmPU6u5L8CkXzdZ2REJ6Lk4X5Sd8F+4ivsgo2UbZIJeUxQqQZN76O4JYRog4HoUfxQPIx6y+HA8r4EYgBEP+U7XQ1W5HLZOc1Ifhlq9ozP1jZE/9pGTIfTooFkgnofq08HBDyj6GVbx6MgpUgqy9/nQA5iAfz7yf5wjYgfiRz9+LMbC7cy2TyY9Jlv9OX7ZbRFBMXSBeIGNI5TGyT61IxN7j7bbriR0Wn40cXAjmdEO4DqlIbTHQnnxrzjorOb3xgBkAM//IX6x78eUXGHA1GK4/YgfTfZHx0XH0hgGufukk3ZFJj5ufVP//ZohOCgT2BGsADO/ggukDK2R6TsS93t9vnqUrhCEEHukN9MI5wD2+jNSXuHwOS4ih+BXnS1F5BUOCv3DRyPFwWPrYkvJ86XLXIPhfdyy+rCosjndeTjqnoiokP1ACI8fKNicdRkeulQqAzC0P5/vUX7J8oo9vD428ir7SMpuw4AY8Jhx64FT/8ezgs8L95/EbIO3T+UPshHoPua+RDZwQZAguiuqM6lGX4bxfum4BuzffR+st1UbBHSLdkeZUSJ2daSo5IYzvudSj8+9LkuF50QiIq7fPds4X3w1K+K82nzEgcoTjsKcHNWpuVp90C5FeYFZTgsCyFcUG8o07esOz4Jsor+UTLW9D+niDy9cqD6o7q0CuewptjTetQ7g/LaEiX0o67VEZTalwoBnDz5pa30a2Q7uIjgcF8cXdb+ksy4bN7rRugpJtlNKXGYUbhkK+coRySj/F0losFYRlBIb9CuVf05MZQ4RgBjgwKIRbkO41NDQxcibL+slCOIN6pzqjuZHlR3ZMOyGiG4viyIZ1SUxZLAeML78Gt4o+jqzNPxgHWnRUuP69zk/ULGV2y3f4UFkjOwoJa2TNIuNjvgMvcrZ09LS+MxJNmJLhpLzQZ/6gwyr/9UcWvUAZyzyJcYzb2uY+B06qy6oi7RtZh4k/NaWtzvvIf4UmOwPo/LUxxOqYg40fCS/uFukzDdcj2ZI8lNayuhfbfoy6fwVdCOhWP/T5bOnssqQ6VJulQqrLAVTG+aUHfZCti7ASTE6S08OeSdcTpyc2JN6R0OrIhEEguSJ1omnwHlF/qlgVdtHfsrDstrNafwAylCzRcSyQ4Bjj/PPzu+ZezyQDksdvniIQnjY5oCASojqNRvlml/FRY0p0wlX+IR8iw0sgdXwBaH5A+AOT0/oT9I33nsBSmuo6kurVb7IfQ7Z3hoyD3hjHrU8g31C/AMLPBl62vYLCldpTK2Wc+scgOdKFjWAb9t/oITG+374LCzVdKAl3JvmwpJ1GU+fggqIgBkGcIe5BdBCPA7JDyuaa7LdWlpNIEdYUAeRaHw8xrVULn+v3QlVC9ieQJUREDIH5rftz8OjxJLKFZnzz+I/7ErsuO7oXpr40YqQPrDgG40LlB5lZ/uEC5GUHBLyFdGQ4L+2/FDIAKgums5zCVqWwFiBaOUG9d3Z6+jn7rp34RwFz/Uozvvu6nBKQbpCN+aIOiqagBkNDLexMP4FNI5wLUD9x36y+BGqZapaCWH9uqfY3pSCdINypdllDXAbwLIzguooAvR7m76+H02KPT3dGb6Bx+139rHwHVbUL5JUDXZ31HjwW3+sX79szPp5TfFf8CDAnJxdu29U8YFG/1IzSNCXDi7D49ReoHrerSUB2taU/f66fPn5MUOvBOxrq8GspP/Kv0BRiqJFoU6W+xn8LbWUMhiv8L9uNYyvrsyEv6irQ6OnQEqD5pnh+tqnqqc0ia7bE+a04167OqBkAYfG323nFjx8W3+lwcwYUx7He45GG+3jYRuj4XxYC2N9AKbzH12Hcwc95tT0/cXxSjgImr1AU6UgoCoG9f9gLMFOw4Eur9i1aMIyb/HW2m8qbSMZVEgOqC9vYUo/zpA9k51VZ+wqjqBkBC3LJ17J4D+zPnA8Bt9K58sHeIdhKubksrTxEp89IEZSFAW5oP7eqUbmzLY7KdWn6q87ywqv2sehcov+S5MUHC3oSRyfn54bLfMJqNe9ODV9355Li9MjodFywCdJqPDjShBfWxn/8Qbwx4MYZbWM0+fyEKNWUAJBy5xZts2d/DT+mNgEcVhA57MH45ptKeOSpcv4SCAJ3hNYX4ARqqD/llgIZqPc32qE6I+c0vKLqaM4ChguGQxmL7FswK+98OgfOtDmPfFFlrBZ3sCgognc8RBHIHheDRg5waQPl96w4tcnVssG6s1lTnkRIc+8t3IY5NGn7ImrbU1ThddB8GvtJTQ/mSYDPVLuYaX+jojdP0qn4CQgAOzT5NPp2gMK1+s0Srn6XtDdVY4fUrY00bABWiq90+GwcjHkZ7M9lvoYgO4P+HnRZfvfnJhNQrQTF5jkZa8udKLi2hKJcVU37a1YkjnZdUem9PMTISbc0bAAm5/DPpD1lR3FDP2Zn0XsTThzOqN7/TH/9GrfU9iyhDVUhpLEZemtGCL4cAUl+dxwiI/fy0/b2SuzqPkcFnQF0YAJWFbguMfsy+Ay3LUp9lO0xG3SIYQqfbG/9hknH3cIT+cQwCuZtZcpdTCKWntmMSDwXcS4dZKrWf30MG38F1YwDDJVqzKHUhzhV8F4LLD9oPJ8j7i3HyH2EIyc5e65FaHJDliVqFn4LTnVzwvraKbvUpVgDq8tAZ3kocYyxWNhl93RkAFWbI24QJI5C7XPEsuOAvocLWOq/E/7NeWirPspQZQV/W3FWkuI0ReE4tJTtyXZJxnCvCPsBeimyqNHVpAMOFgn/RKzDcXYtZIrhJL+l5E1+Ee3DR2rpy75oqiXsVEy2bf2AS3cCOPj4dOirp4hJMNMD7H1+G9ZcHq1iUsljXtQFQyXNfA9O4G0ZwSalI4GswgK3Zvcww1nVsiGGLduX3pZcqe3Hp0M1py5xnGuIqlLkdld9UXPo8avjqJHeF9djq55WiPmaB8gX2+t29MDWPm/xOxE/xovEZvtt12I8GI2J994bEf/lMU9NkuHZouhE1luCY6RIofWs5wqLVf5W8NNdbX9+rzHX/Bcgv2NUzRPSkk+yluF+8E/3ZcflxpfymyhYu24DDHVuye+PbcSGz8kB/KXyCTpM8R0SMcZmZ6B7OM0y2CPmX2yjgA8n3Y5DbTf75g3ZRHnT5i8mvoQxguOA3zj14fItldkCBr8Y3LjYcXs5fUgDMIj0Nh/fPmBHxy8ENiRdrZUqVpi6ji1NTXYfPwvXS52MWZ3YQDUAOL7r8kLN1dAUW3QJUDoa1mLYhDWAY6OVz0n9jtfAVaAmvQFh0ODyQv0IcYNx4Hvdr7HAcvtMwzJ07e5peeYRxbEkK76Ejh9PaB6a4rjMNLfLHceHFGejPnxmYwh8RHRdR8AfpBlC6BPFIcGP9amgDGK6q5IWZU8yY+AqU5PMIs4bDA/+L1lJw8ZoQxm70k3fhC7Qb2wHeNJm7xzHYe26/uYcNDvaxgezA/v7x/X99HoNvPB+eyZrGxfbFWFOkiUWjLUbMOc502SSHGcdhT8cH0I1pxRfoZBhbKzxNnxLUVw2sR3psuoGdLqEO4h7ekRjUUtioMIBhwGnqb0JT9Br4yb8WBS96IW04n0b8C2N9lwl+H6aE7xtNU8KjygCGFReDxDifkFmMLsRVmD49ezh8NP6F4v8cX6l17r74oxjkZ0YbBqPSAPIrOTkvM8WMuVcCiEvRtfB9wCM/j7r7jQNErsEe4oPGdzo2x1+uO/kDFHjUG8ARLAVPtmdmRbgg/6UX4cvg94zrkSxq+BfK9BbK9ChmitZ3borj9pZGXewrrhK0AYyAF00rskX2J00m/hFTinMxy3IGgKoJBwIjiDtiEGTGTahsB7zqbXGxjsE2Wr+plWnbEQWuUqA2AB/A0+B5bCRyLo6lzXIFm4Wu0nS0pr5PqflgUTYJWvgsFP73BmfbsFq3LZNxnm3EefuygSrIQBtAASB+Xoc82mVmoHX9BG48/jh6E9OQbirATPhJXy4NWvcU8ngRX6c/QIadcB35QqwvvqOWvC2UW8ZKpdcGEBjSGEPMS002YkYrc3krsj0Zm85OxIHwSWiZJ6FTdRxz2ER0pOIAnTah0Qr18GY0Wg/oh2IPoOOSYSbbi2M7e/CleQ/he9BvJ3/5u5khdrn97q7kEwlcNKL78MBEPxoBjYBGQCOgEdAIaAQ0AhoBjYBGQCOgEdAIaAQ0AhoBjYBGQCOgEdAIaAQ8Efj/rC6Nbv0BEGwAAAAASUVORK5CYII=;" vertex="1" parent="1">
          <mxGeometry x="490" y="310" width="130" height="130" as="geometry" />
        </mxCell>
        <mxCell id="9_3zUpzs3zl5Dn2b_ulE-17" value="" style="shape=image;verticalLabelPosition=bottom;labelBackgroundColor=default;verticalAlign=top;aspect=fixed;imageAspect=0;image=data:image/png,iVBORw0KGgoAAAANSUhEUgAAAR4AAACSCAYAAACTzKXBAAABdWlDQ1BrQ0dDb2xvclNwYWNlRGlzcGxheVAzAAAokXWQvUvDUBTFT6tS0DqIDh0cMolD1NIKdnFoKxRFMFQFq1OafgltfCQpUnETVyn4H1jBWXCwiFRwcXAQRAcR3Zw6KbhoeN6XVNoi3sfl/Ticc7lcwBtQGSv2AijplpFMxKS11Lrke4OHnlOqZrKooiwK/v276/PR9d5PiFlNu3YQ2U9cl84ul3aeAlN//V3Vn8maGv3f1EGNGRbgkYmVbYsJ3iUeMWgp4qrgvMvHgtMunzuelWSc+JZY0gpqhrhJLKc79HwHl4plrbWD2N6f1VeXxRzqUcxhEyYYilBRgQQF4X/8044/ji1yV2BQLo8CLMpESRETssTz0KFhEjJxCEHqkLhz634PrfvJbW3vFZhtcM4v2tpCAzidoZPV29p4BBgaAG7qTDVUR+qh9uZywPsJMJgChu8os2HmwiF3e38M6Hvh/GMM8B0CdpXzryPO7RqFn4Er/QcXKWq8UwZBywAAAARjSUNQDA0AAW4D4+8AAABsZVhJZk1NACoAAAAIAAQBGgAFAAAAAQAAAD4BGwAFAAAAAQAAAEYBKAADAAAAAQACAACHaQAEAAAAAQAAAE4AAAAAAAAAkAAAAAEAAACQAAAAAQACoAIABAAAAAEAAAEeoAMABAAAAAEAAACSAAAAADsvNXEAAAAJcEhZcwAAFiUAABYlAUlSJPAAABZESURBVHgB7Z0LdFzFfcZHsiQ/8PsNBWzjh/wOxkDBENcmlMQOpKShnBMccOoW4pNCAwcILS2ktISGA+TQhpyEEwcSE6fFnJSSQCiBAjEYDBjXBD/wAz/lB35gW5Zk62Gp37e6//V4vZJ3pd1Zrfb7+/w1c2fmzsz97b3fzsy9e+2cTAREQAREQAREQAQ6O4EiO8BZCxc1xeLNfy2584dxAp3/UHWEIpArAi/eMOeEK604Vx1RuyIgAoVLoKRwD735yBOVuNB56PhFIJME4jOphEo14kkAok0REIHsE5DwZJ+xWhABEUggIOFJAKJNERCB7BOQ8GSfsVoQARFIICDhSQCiTREQgewTyMldrcamJtfY1OiKi4pc8839ItfEf0h3SImlI08mAiLQOQkEFZ5jjY3uGMRlUM/TXPnpp7vJQwa5Yb16uW4lJe7A0aNu9f5P3erde9zW/ftcTW2dKykudkUSoM555umoCppAMOGh6HTrWuZmjhzpriof5c7u1dttO3w4JjiH6+pcz65d3dVjRrl5kye4t3fscs+sXuPW7/7EFWMQJPEp6HNUB98JCQQRnvpjx9zg3r3crZde7M4bMsS9smWre2zZe67i0EF3GCMbjoLKunRxg3r0cOWDB7svjy939182wy1evdY9++Eq19TYJPHphCefDqlwCWRdeDjS6d/rNPetSy52Y/r3d//yxlL3LoSnruGY64JpFNdz2Ilj2N558JCrOHjQLa+ocPMumOr+8jOTYoKzeOUHrotGPoV7lurIOx2BrAtPEdZprp8yxU0YOMDdt+RNt2LLNleK0Q1HOL5xKbk4Sqs+ctT98O13XANE62sTJ7jVe/a4Dyt2nrSPv7/iIiAC+UMgq7fTGzDFmnLWme7yEcPc05g2Ld+8NSYep1qzKYZYNdY3uCfefd+tP/Cpu27yJNene7forlf+wFVPRUAEkhPImvDw1nhTl2J31ejRbndVlXth3YbYSAdzp+Q9SUil+FTjTtfiVWvdeYMHufKhQ7AW1JhQSpsiIAL5SCBrwsMF4wFYLD6rb2/3zo6drrK6ynWBmKRjLL8B06yKqmo39YwzYutB6eyvsiIgAh2TQHpKkMYxcFF5aM+ernfXUrfyk70OT+SksXdzUS488/meispKN2ngQFfSJetLUmn3UTuIgAikTyBrwsOunFZW6sqKu7gDR4606XY414LqjzW6Ktxy79eta+wuWPqHqD1EQAQ6GoGsCQ9//FBcVBybHvEnEm027NqI0VNxMUZMEKLmn1W0uTbtKAIi0AEIZE14OsCxqQsiIAIdlIAWTbLwwWBU9iVU+/etVF2HvEPwlfCFmFJubKXsSVmo/z4kXgGvxr6Xn1QgQAL6cD6a+RjtHwjQXNaawHE8gMpnwg/hWL6QtYbaWXFn4W0YJDxGIrPhKFR3UQpVXoUy9+Ckehwn/fwUyluRqYikUr+Vz1iIvg5AZd+HXw+fC38Kns9GASXL+o54EJ2QdwyzhCf7Z1sNmtjuNcNHtnvAh8JtqvsNnGAbID6PeOU6apSjgxs6auc6Yb86Je+MCA8Xj2vxWyu+U8fsaEODq8OTy7TaYw2upr4eC8R2nVmpU4dHUQcfHOT6NOusbeAXU1F8x1LUyZ9gdGC7C4LyWGL/IDTlSFsE5+iFdis8VeG5BWUfglfDZSKQdwTaLTwUHb7SYvrIM1yPktK4+NTjTtQY/D6rBHeiPjdihNuH53BwAaYNqB6/TB/et6/rUVrirhxb7vgzjOO6U+S2Hjrk1uH1GW2pO+3OZHAH9HcdxGc2qtwNJ5gzsX0m0isQlmK7DM61oAb4BfB+8CXIP4KwAr4HHlN2lKeid4fTalGG+5xgKEN17hYlHkGZEx4DR/5g5I2FD4RT0FazLwjjhjJdsXFaPAFxpHE7WX39kT4Z3gu+Br4J9R3/ZkJCKob6yWYEfBSc7W+Ab2zhGK1vJ/UH+/COqOXXtNQXlGF/Of0iqxUo9wnCEwxl4p8P8uuxTf4T4SPhXK9bm6x/SI8b9jklH5RJmXe84jyJtFt4OKoZi5803H3pNFwFTRAGnM+RwDRCNKox0rl2XHm7hIE/FuWT0DdNnRIXHXworhtGOh99etDd/sKLeXmbHSfnHhzHRzhXxkXny2iEvNj/G05RWg7nSf4ZOK0G5e9DeCH8K/CjcAoO11qegNP+FX53LHbin29h00ZU8xF/HHVR3G6D3wGn4JxgyF+KhBvRz7VRxgcIy71CP0Kcfif8YaZjH4rNk/DzuO3ZAeTdjrqYl5Kh/EwU/DF8TMIOvNh/grQ7UR+nsmz3EgRvMg77Jpz9ihvyZ2DjtSjhRoQLorgFpSjzA2xw3/jQHGmrsD0H7fzBCiJcDL8a/jryX0b4d3AKllk10nmsj1uChUhPh88peVu9+Ra2W3h4wKUQmiaEd7z8uqvAjzrjUyokMp1fWcdHKdxI06yeWEWxk8zVQYy+DbEb1qdPTNTwgaZZae6Lo8/8RuNirdn2KGIjE37z+tYDG1Vwy7dwCdIM9RzU+w846ROB+OsyLE9bBL8mFkv+hxfzq6hvOOqrRZz9TWaxdJTjxfg0nIKWaP2Q8ATKnI+6/iYxM3Eb5cYj7Tm4f0FbMYoxBYJlKE40Y5EYj2WmkM9yN1thL+RIZhn6Mwv9/n2Ubm3NwDY90Tiy+jH24cjqKcvEdrp8WuVt9eZjGFf29nSeZzi98ugR/Car5rjX1LjD8Eq6n55u3Orx9juEtFqs+eDDbE/Xc7Yv+t0bjfPbnFMcGqc3m2Kxk//whP8NfBv8PxOzcXJ/jLQ3ovSzEX7WL4O2JmHbRk3voPxapI1CGkdNtCNwfmtTaD4H5+jlMJw2FH5VLObcZQjvi+IMvgefCv8B6uPF9hjcRIf9pXCOhXNEVA+nfRNlpzVHW/07B7kmOjzm0XAKDUduFEHaDNRV3hzN2N9foqYp8Ivhy6JaOaqMjeii7cTgF0igAP45fLmXGRfYNvJpkbfXRl5GMzLisSPnDAsndbumVVbXqUK+Jt5eFX+qsjnOvwkn3bleH7oh/kdwpvX10h8Eu0Zv26K/QvoJoxLUZ3l++CQ2pkcJX0O4xMu83ouzHG0uHJ9YzO5BG49EcQYc5bBvfx2lnckQZTYjfVWUxmAN0lYwgvS7EPC4aP+D9C81R2N/uZ5FIaPQ0v4JfgUjrRinJGaPoD6undAomsMQ3gbfAacYrYNnwsiaghcztDMDEdbN9s7H9kzkv4a4b79EWpwvyixF5hY4xYqjJbObEUmLD+rdjPqS8rZK8zUszmXHuVDMO1VHeAcMzjWhTmgcbfyV5zyxZ8B90XkB2w/Ck9ljyRKTpD2DtKoo/RqcsLGRB0J+xtdF6RzZcPRA+3c4v6Xnwn8KjxnKc62DouifG5zanMr8NZ0HUEeJ79j5v+DHokps9NVanau9zJdQ1/fgf8I6kf5teDdcmGfBn/XKtTd6r18B6ubI6vteGrkk2qN+AvbZg+3NURrFxyzTfKzevAwzOuJJlQBOnthC9NmDBrhzhwx1ffED0O2HK9272ypcDX6N3gU/LO3kdgDHtxW+Bb4AJyuFpyXb0FKGn446uKC5GGnz4FxP+SKcF+VlcPumfRblDmGbo5e9CF7HPryY7kJIgRwDHwFvy3nBqZDZEou0EA5Ge73Rh8oW8pnMY/lbOC/e/nCOqOjs/0vwZ1HHM6jDxAxJ7bIq1LUmSQ0rvDTySbRNiQnYroBzJGYjShbJNB/WmbfWlhOsXQeLk8VxPjF73Dj31YnjXc+yMlwEuGeM9MvPOcf9ZPkKt3Xfvs4kPpwS+KOWpjQulnrsuzMN4E+gLIWHxukWhecGbkT2pEXwOfCiYPmvW1o7w9h0LI06uHbUovCA0Qr0cSbKLIKP9Ortg/i1kd+IMtei7H4vv6Xoqb7NilvYkV8SZmzbN36WydpOJoYZ5eN3Ih/jwYWHz/dchFehzset8WV4Qdiv1n7k9mOhuBzP+Xxj6rnuTtypuueVV91BLCTzfTydwBpwcja08TiOYd+U558ouxQX4nq0xW/mLyJ+OsIvR21vQ/hqFGfABd+vMxIZpwdL4Svh78H5Db0ATmvpomzObf7LKcagKOGrCDlNac12tJbJPBzPOzgG9oOjMo7gZsMvhJuIXIb47fDExweSnddnoVxrVt1C5mAvfbsXZzTlzwZlM84noS95tZnsA8raAfD1Fn26d3d/Nm6s+wBvFnwYL3+vjz3RXORex3/mV1lb6+6ZfombjQcFn3rv/fjL37PWoc5Z8c9wWA/AeSv2h/CecNrPcSE3Nkdjf02QuMHnYR728rhY/AVv2y50LykW9b8ZKHgTogK7UN/v/cKoj+LF0R/FaSu8VTFG+bkoQ8GpRF3fQfh/8PuRPoAhfD6cdgWcwuPX14sZCUYBa80Goe4RaIsC7Ns0b2OjF083mgk+Pu902+9Q5VP5JstYh3nW83WoY/v3c6/hf5s4Wl/nuuAhwCK8t6dbaan7cOcut6PysJs8aCC+Y4t58mes7QKqaCGO1Yb6Ji4E+fMEBv6F+Gs/D9w5YprnpZV6cV+8/KkHR0pmD6GOxC81rtdQ3LhOQ2Fs0bAvz0su6t4KvxfbF1hhCAOnNk/aNkI7hw96aVdjn3ifER+OvOu8/Jai/+hnYD+KHMXSjCPBtlpb+bTEu6396BD72YcWsDO4BjCF4u+6ksl3I8QmeU7ALuZxU7gwd6D7v0s4hDeQ/nFCmv/t/SgushnwcjgF5xX4EK98Py9e48X5TM7d8IlI+zc4pxM0CsVbSL8Cfin8n7Htiw0X1FuciiGPF5t/DE+hjjuium5E3o/gZr+NIpsRWt8mIf4fKP8XcArey3CuKZ3K5qH8T+HT4Vei8DI4xYe2GP3yxaM5NfW/beVjx8SWfN6pt9wBSyZ+K2W1i1yz2VNdjWnWXjdr1Ej31uYtrg7Tq2LcxarFlOuikee4s/v2cU+vWcvXDrqijv3jz6yyamflHBHM8urwRwiWvACRP442WNYvz+QGuJ0f05kQmS9YY5H2XfhEXJTX4WK9GfFfwMvgFJ+X4Im2HAkUolPZd1Dg83CKXjn8IXiiUWR/xkS0X4n2FyJqU7CvIE5P1yi8dN/Yzl1+Qrpx9O9QG/kk5Y32UxnBpdvNYOWLg7WEhig8VUdr3e/Wb3RjB/R3t14yzQ3Hf2ncC9Ovafh/02+5cKrbV3PEvbpxkyvBVCuPrdrrux/3kluN2j4WJha2dAsT859Dgt1t4bM9zyQWwIVA4bkTnnhniXfSnodzuvUBnDYeF00PRrAfL4Tb4f7UZkSUx3bOh78Ft+kes2hH4I/CP486DjOhNUOZ9cj/U/iSJOV43DzG86L+WJFbEHkQ7o8SmrD9B/hn4TbK8rlZnILIBxzr4GYNiHAaei7a2WKJCG0fC72sWNTSLYwloo60+UTHl5R3YqP5tB2f7cxauIgfUHrr9CjOBwCnjxju7p053d30/G9dxT7vt1qsL8FwArtGCNCV48e6a+B98Mt2PjxYVlLi1uzd7xa8v8Jt2rsXwtPSembsKVlXi1dl3DtzhhuF9aL5zz0fey9zQlMpbb44d06cQUo7dLJC+Dy64ZDOgfNZn93wdTjZ/YsPSScb9iO3YVHODuxDwYpbVO84JGDBLvZcy2aUORovkEYEdXHUw7p6wbfC16Muf+0DSccN5XnyTICz7ZUo++nx3NZjUb+noBSPj/v6Itb6zmnkpssH5VvlnUbTQYuarrx4w4nXmQ2lg3UGH2TsXuivV61xb27Ziv8ldKKbPXqU++4bS93723e4Oky5WhOdYB0tkIbweVAM1kSe8lFjP35RbWlph6he3olqt6GuA6iEo6iUDOU52uIoJ22L+v122jumuUO6fFC+Vd5pNp/z4jmbz/AFXjsPHHTrcRudvzRfiTtadXW4y5XfU6ycf6DqgAjkA4GcCQ/hlGDxmALEMWQZ/rO++Os08oGc+igCItBmAjkVnjb3WjuKgAjkNYGcCg8WzDC1KsJop+WF5Lymq86LgAgkJZBT4eEt8y1Y5/nNuvWuHne2ZCIgAoVBIPhdLR8rRzqrdu52K/FjUa7xYOXez1ZcBESgkxLIqPBw6mSeKi8+VFhWhKlW7KcSqe2Vbhup1apSIiACoQhkVHj48EQ9fmmV/fkb/jcLPoiItmQiIAL5RyAjwsN3H1NsbrvoQlddiwdYsz5lah5ZjcP/21VVd8IDs/n3CajHIlCABNotPPwP+/ja0qVYpxmEd+1079HuKlP+GHZVVbt3d+1u888lUm5IBUVABDJKoN0qwYcAdx486O7/39dysjjMF8R3kjcVZvSDVWUi0JEJtFt4mg8u+o9mcrDkItHpyKeX+iYCyQlkfx04ebtKFQERKGACEp4C/vB16CKQKwISnlyRV7siUMAEJDwF/OHr0EUgVwQkPLkir3ZFoIAJSHgK+MPXoYtArghIeHJFXu2KQAETOOk5nkJ/+XkBnws6dBEIRkAjnmCo1ZAIiIARkPAYCYUiIALBCEh4gqFWQyIgAkZAwmMkFIqACAQjIOEJhloNiYAIGAEJj5FQKAIiEIyAhCcYajUkAiJgBCQ8RkKhCIhAMAISnmCo1ZAIiIARkPAYCYUiIALBCEh4gqFWQyIgAkZAwmMkFIqACAQjIOEJhloNiYAIGAEJj5FQKAIiEIyAhCcYajUkAiJgBCQ8RkKhCIhAMAISnmCo1ZAIiIARkPAYCYUiIALBCEh4gqFWQyIgAkZAwmMkFIqACAQjIOEJhloNiYAIGAEJj5FQKAIiEIyAhCcYajUkAiJgBCQ8RkKhCIhAMAISnmCo1ZAIiIARkPAYCYUiIALBCEh4gqFWQyIgAkZAwmMkFIqACAQjIOEJhloNiYAIGAEJj5FQKAIiEIyAhCcYajUkAiJgBCQ8RkKhCIhAMAISnmCo1ZAIiIARkPAYCYUiIALBCEh4gqFWQyIgAkZAwmMkFIqACAQjIOEJhloNiYAIGAEJj5FQKAIiEIyAhCcYajUkAiJgBCQ8RkKhCIhAMAISnmCo1ZAIiIARkPAYCYUiIALBCEh4gqFWQyIgAkZAwmMkFIqACAQjIOEJhloNiYAIGAEJj5FQKAIiEIyAhCcYajUkAiJgBCQ8RkKhCIhAMAISnmCo1ZAIiIARkPAYCYUiIALBCEh4gqFWQyIgAkZAwmMkFIqACAQjIOEJhloNiYAIGAEJj5FQKAIiEIyAhCcYajUkAiJgBCQ8RkKhCIhAMAISnmCo1ZAIiIARkPAYCYUiIALBCEh4gqFWQyIgAkZAwmMkFIqACAQjIOEJhloNiYAIGAEJj5FQKAIiEIyAhCcYajUkAiJgBCQ8RkKhCIhAMAISnmCo1ZAIiIARkPAYCYUiIALBCEh4gqFWQyIgAkZAwmMkFIqACAQjIOEJhloNiYAIGAEJj5FQKAIiEIyAhCcYajUkAiJgBCQ8RkKhCIhAMAISnmCo1ZAIiIARkPAYCYUiIALBCEh4gqFWQyIgAkZAwmMkFIqACAQjIOEJhloNiYAIGAEJj5FQKAIiEIyAhCcYajUkAiJgBEosYuGshYuaLK5QBERABLJBQCOebFBVnSIgAiIgAiIgAiIgAiIgAgVO4P8BaHJzihquuDIAAAAASUVORK5CYII=;" vertex="1" parent="1">
          <mxGeometry x="590" y="580" width="411.37" height="210" as="geometry" />
        </mxCell>
        <mxCell id="3" value="" style="shape=image;verticalLabelPosition=bottom;labelBackgroundColor=default;verticalAlign=top;aspect=fixed;imageAspect=0;image=data:image/png,iVBORw0KGgoAAAANSUhEUgAAACgAAAAoCAIAAAADnC86AAAAAXNSR0IArs4c6QAAAERlWElmTU0AKgAAAAgAAYdpAAQAAAABAAAAGgAAAAAAA6ABAAMAAAABAAEAAKACAAQAAAABAAAAKKADAAQAAAABAAAAKAAAAAB65masAAAA6ElEQVRYCe2WsQ7CMAxECWJio3wpzIzM/GnbjbVYID0h5eQ2BEilpJPl+O6Ssxsl9KdNkW9bRNVEm/DfnF+x1d1twobUGGAcrPjE8Wa/kgnOBXK49mHffSYz3YfxcnSwO2fNVIdzcAqcpfdpkGVCeBYjieIkPHL3Qpg6kDHpkgw8sri+qRZWZzqMsfBIz4UwdSDhSgrgkajWY7Ml02GMhUd63nqMUb8OhNX0JlMbntbjp5PFLpD6eixOzDDbu4nJJLkwMKxf6T32XkjT5n9IjR3tYsNVTHjeaseunKViJ27COW1LwtZn9QM3yVp6N52z3QAAAABJRU5ErkJggg==;" parent="1" vertex="1">
          <mxGeometry x="240" y="670" width="70" height="70" as="geometry" />
        </mxCell>
        <mxCell id="9_3zUpzs3zl5Dn2b_ulE-18" value="" style="shape=image;verticalLabelPosition=bottom;labelBackgroundColor=default;verticalAlign=top;aspect=fixed;imageAspect=0;image=data:image/png,iVBORw0KGgoAAAANSUhEUgAAACgAAAAoCAIAAAADnC86AAAAAXNSR0IArs4c6QAAAERlWElmTU0AKgAAAAgAAYdpAAQAAAABAAAAGgAAAAAAA6ABAAMAAAABAAEAAKACAAQAAAABAAAAKKADAAQAAAABAAAAKAAAAAB65masAAAA6ElEQVRYCe2WsQ7CMAxECWJio3wpzIzM/GnbjbVYID0h5eQ2BEilpJPl+O6Ssxsl9KdNkW9bRNVEm/DfnF+x1d1twobUGGAcrPjE8Wa/kgnOBXK49mHffSYz3YfxcnSwO2fNVIdzcAqcpfdpkGVCeBYjieIkPHL3Qpg6kDHpkgw8sri+qRZWZzqMsfBIz4UwdSDhSgrgkajWY7Ml02GMhUd63nqMUb8OhNX0JlMbntbjp5PFLpD6eixOzDDbu4nJJLkwMKxf6T32XkjT5n9IjR3tYsNVTHjeaseunKViJ27COW1LwtZn9QM3yVp6N52z3QAAAABJRU5ErkJggg==;" vertex="1" parent="1">
          <mxGeometry x="730" y="670" width="70" height="70" as="geometry" />
        </mxCell>
        <mxCell id="9_3zUpzs3zl5Dn2b_ulE-19" value="" style="endArrow=classic;html=1;rounded=0;strokeWidth=8;strokeColor=#6666FF;dashed=1;" edge="1" parent="1" target="9_3zUpzs3zl5Dn2b_ulE-16">
          <mxGeometry width="50" height="50" relative="1" as="geometry">
            <mxPoint x="287.69" y="660" as="sourcePoint" />
            <mxPoint x="347.69" y="560" as="targetPoint" />
          </mxGeometry>
        </mxCell>
        <mxCell id="9_3zUpzs3zl5Dn2b_ulE-21" value="" style="endArrow=classic;html=1;rounded=0;strokeWidth=8;strokeColor=#6666FF;dashed=1;" edge="1" parent="1" source="9_3zUpzs3zl5Dn2b_ulE-18">
          <mxGeometry width="50" height="50" relative="1" as="geometry">
            <mxPoint x="660" y="550" as="sourcePoint" />
            <mxPoint x="274" y="430" as="targetPoint" />
          </mxGeometry>
        </mxCell>
        <mxCell id="9_3zUpzs3zl5Dn2b_ulE-25" value="VPC" style="points=[[0,0],[0.25,0],[0.5,0],[0.75,0],[1,0],[1,0.25],[1,0.5],[1,0.75],[1,1],[0.75,1],[0.5,1],[0.25,1],[0,1],[0,0.75],[0,0.5],[0,0.25]];outlineConnect=0;gradientColor=none;html=1;whiteSpace=wrap;fontSize=12;fontStyle=0;container=1;pointerEvents=0;collapsible=0;recursiveResize=0;shape=mxgraph.aws4.group;grIcon=mxgraph.aws4.group_vpc2;strokeColor=#8C4FFF;fillColor=none;verticalAlign=top;align=left;spacingLeft=30;fontColor=#AAB7B8;dashed=0;strokeWidth=10;" vertex="1" parent="1">
          <mxGeometry x="40" y="160" width="1040" height="1020" as="geometry" />
        </mxCell>
        <mxCell id="9_3zUpzs3zl5Dn2b_ulE-22" value="" style="shape=image;verticalLabelPosition=bottom;labelBackgroundColor=default;verticalAlign=top;aspect=fixed;imageAspect=0;image=data:image/png,iVBORw0KGgoAAAANSUhEUgAAAMAAAADACAYAAABS3GwHAAABdWlDQ1BrQ0dDb2xvclNwYWNlRGlzcGxheVAzAAAokXWQvUvDUBTFT6tS0DqIDh0cMolD1NIKdnFoKxRFMFQFq1OafgltfCQpUnETVyn4H1jBWXCwiFRwcXAQRAcR3Zw6KbhoeN6XVNoi3sfl/Ticc7lcwBtQGSv2AijplpFMxKS11Lrke4OHnlOqZrKooiwK/v276/PR9d5PiFlNu3YQ2U9cl84ul3aeAlN//V3Vn8maGv3f1EGNGRbgkYmVbYsJ3iUeMWgp4qrgvMvHgtMunzuelWSc+JZY0gpqhrhJLKc79HwHl4plrbWD2N6f1VeXxRzqUcxhEyYYilBRgQQF4X/8044/ji1yV2BQLo8CLMpESRETssTz0KFhEjJxCEHqkLhz634PrfvJbW3vFZhtcM4v2tpCAzidoZPV29p4BBgaAG7qTDVUR+qh9uZywPsJMJgChu8os2HmwiF3e38M6Hvh/GMM8B0CdpXzryPO7RqFn4Er/QcXKWq8UwZBywAAAARjSUNQDA0AAW4D4+8AAAA4ZVhJZk1NACoAAAAIAAGHaQAEAAAAAQAAABoAAAAAAAKgAgAEAAAAAQAAAMCgAwAEAAAAAQAAAMAAAAAAbvMb8AAAKgNJREFUeAHtfQt8FcXZ98zuSc4lCRhAxBtqq61XrK+3UvUt3tCoQBLUtr5Vv9fb+3mttvpRgYQ1AdHPKlZbtV5qrVekJAGUCF5rRVoVq1BveEPrFeQmydmT5OzM+59DDhzC2dndc3ZPTpLZ3y85uzOzzzzz33lmnpl55hlC1KUQUAgoBBQCCgGFgEJAIaAQUAgoBBQCCgGFgEJAIaAQUAgoBBQCCgGFQH9FgPbXghW6XGcQrh8wLrGrFiJ7aYTsySnbixBtBCd8GOVkKKF0GCF8B8JJGPelhHP8EvwSBl478deBj9HJKYkjZC3V6Fqk+YbhHnH/RvjHlPBV683kx7MWDV5X6PL11/yUAOTwZa86aeOQIdHwYZyzUVQno1DBR6GC7gcwS3Mgl8sr6zgnyzkjyyFUK1iIvPHFqtibdy+jXbkQG8jvKAFw8fWNceZItOxjANbRaLCP0gjdD613UWEHgYijKK8QxpcQjb9kJcteNBZQEaYuCQJF9RElfBY0yjiAl9J9Esegda2ilFdplO5fUAb8yIyTDvD/Iie01dL0VmNu+F0/yPY3GkoAur/oRYfykt13i59INHImoVo19O3B/epjc/IuY/zxUGlo9uQ54bf7VdnyKMyAF4CG2vbDNaJdgNbydOA4JA8s+8yr6BX+hQH2n6126wFjccXqPsN4AIwOSAGYdMK6weUV4Z9Djb8QmvzBAeDaV0h2YewwjxHt7mnN4WcIwXB+gF0DSgCmn2LuwUr5lZpG0OKT8gH2reXF3awi3bymM/bg7a0U44eBcQ0IATBOafuBHtYmUUrOwGfVA/y0bZjX/xAT+6vwi3l7sgr3qzGm+IZTa20ooa1t58l4mJR3EBNz/y/gbwxGHRWkNME2hjU9VBploUG8hA3DGGQo59owTLPuinZ5T6gse2GqdU/Q3DPIMqALgEpEf2etS9xuvFC5IUCsioI08Oy/V8O4TQeQEv06jZNaqDq+llVUFCx4vcwIfZ1ytpwnteV1CyKrglYjjDE8QobE99eYhrUHPgo8HIGCHYbShX3+khsIozcnN0RuNV6gbT7TLhpyvlaKYimVcWriO3qYNYKfn6KAqCM+XJx8jVXdp9Aqv0CTdEndE5H3faDqC4nLq3h4aKl5qEbJ0eg5TqSUHuObQHAiVqNvXNMZvb0/qkb9SgDQOpZrg80p0PGv8qMCQGVahha+2eKs1WiK/TPo1t0XaQCRm8byso5o/DimaadgHaMWH3l43rQ5+QiYXj21KdacN60iItBvBGB6jXkuJjFmAtud88KX0hUsSR6jnXR2XWvkw7xoFcHLwkbpwOrEGPQOP4EwTARLeU31YtboOZ60rqhfUPFWERQvbxb6vAAY4xN7h3R2N1qnY3NFAx91E1r3x2DAdk99U9mrudIp9veEqjQsbNbqlFwIXscAs1y/fxdn/IbVHbEZfV0tyhWAXv/WUHdC2g7mL6HuGGAmmgtDqPjvQ2e+Jbk+9lB/Huhlw6bxtMQ+Wim7HLNU56ESlGVL4xiGqdMk1lKM5uhLjmmLNEGfFIBUqx9iDwPTI3LBFRV/icX5b0hLbL5BqDBHHrCXsGytjJT+X6rxyzHmGeEZCMwMMI3czN6NTjHeosKsu09dfU4AGmvM/4YuextQ9ryQhanLpYzRumkt0Wf71FcqALNXjebRYTublzBOxHrJjp6zZOSfSV0/q68Z3fUZAbhxPK/o0s37oLWKxSxPFxaQ3iBJPqVuXtlCTy8OwMSbZ9ISV2gam4SNO4M8QmAyi19RP6/sXo/v9VryPiEAjTUd+xFiNaNl+r4XpFKrmpxPtZpj9w10VccLbiKtMXbT8FB5aAY0HDFG8LSWgnfuW23GLu0LA+SiF4DG2vjpYPJ+fBMvKo9lcXJbfFPiuhufGbLR68dX6bciUDex/ZAwp79DyI+2hjrfYbfaa5ZFJxoLop86p+69FEUtAI3V5jQMzgwv8Ah1h1v8gvqWsmVe3lNp7REwCNf0mvjFmCqeiV64wj7ltjGYbFjDNTKufm7sH9vGFM9TUQpAanPKyPi9WNI/xy1UUHewoZxOY2sjv8GUZtLteyqdewSmjI3vHi6jf9CwS879W8SEIPy8rjnW5OGdgiUtOgEwxqzfIVQZbvKysAWd8x0rwc8yFpa/UTDkBnBGDdXxy9AT3IS/iBsY0DgxWLReM7U5doub9IVMU1QCcG3Vph1jMX0xwPqBWxCwu+nOdV9GfjVrKTXdvqPS5Y+AsLSlIf0RCMEot9TQUM2sayqb7DZ9IdIVjQAY49t30UPkGazOY8bH+UKr0s4scv60ebHZzqlViiAQEKbZemX8Lqiq57qlj292W/286JUYT+AT9v5VFAIgdmqRMH8Oas933EAiTBisTqvWeLLiX27SqzTBItAwof0SqtNZqEyu/CKJaVKrKXZRMUxNe5rfDQJG0fJ7qfzYGfV026bE4aryB/E1cqOJha870Jwfh11w37ihgF7+/FBt4k43aYNO06sCIHR+ofa4bvnRcsBw7RQ1tx90tfBOv74ptiRpaaNF7+zubX5RQ038Zndpg0vVayqQmO3Rh4afdzvgZRadAt3x+uCgUJT9QODa478dGhsUmofB8VFu6MF0ogE9yDQ3aYNI0ys9gJjnF1Odrio/FEaoPReryh/E5/ef5sxnB621ktGxnPPFbqhrOq2fUd1+kZu0QaTpFQHYHYtcLuf5LcLpuVOby+4KovCKZjAICJ+kqxOx8bAsnecmB0bp7xtr2k52k9bvNAUXgMbadsPlCq+w5/nZ1Jbog34XWtELHgFhCMfWR09H/z3HKTeoSyHY2z3eUNN2sFNav+MLOgboNmxzBEQoPamWX1V+v793wekJdXfkSFOs7J/mlDkM6D7dYCUPvXnBIFezSU703MQXrAcQJs2QtvvdMAU/nZeolt8dUsWeSpxZkFwfxd584rgJiWpk5A66/qjYyF+ochVEAMRmFmHPj0I5mjSL2R6l8xfq8xcmHxgnJsLt0QlQdRwtdHEyzgmjJpozCsOZx40OuTIldnKh8I6bWaD33Kdme3JFubjfu2Yxbe8y2WlCzXHiFLODk6ZPaB/nlM6P+MDHAA015nkwn73PkVms8IpFrv5tysypUSXs6c1BRNNKdZ2UWFZXSWmslFkm77KSvKuDJtvDn5Zv7IsbzB2/MRKkjOhKQkscz1/AqnKygx0EC9+v3NDNNU2gAtDtveGfYE6q+ojVQ2He0NdXeCePb9spouv7ogXbG/Pge8Nlyx4wEdgZvd8uwGA47gcBcHdqJ054weaeNTgw7ytsKvlS5+RTvP8RxkcfJrXQe2/NLX1/DqFWrh++N9/DvH8V0+gTzljQRVObIth7AEQDugITAOG3JzTEXAK+pa5LULJ2tH1H9jVPY8KMoyyi/YhrdDTO5ToE9i0HY6Zjp4C+0/ZkhYBo5B0sEi7TGHnFovwfrLlsRTEYmG3P7PYh0yea9eD9uu1jtg2BynRlXUvst9uG+vcUmAA0TohPgmvvG5xYtSzy075g0mxU8UGhSPxYeEoYizKdgL/vOZWtF+I3YPHpr2gvnydJbWExOfDdHgtO4c5yvovpUZOb2kFBuakMRAC6VR8c4enose0OOFu9dHtwiiNEqDRlGp3ANa0Wqsdx4KqkODhzzcVKi5EF6GUfN1pir7h+q0AJU7v/hoRFPdldmiWmULGbTDQ6vl+BCMD0mriw7T9Wxi3j/O31X8UOK7adXGKTh1ZpVkPvPAeDd9HaF2xOWoZXvnEQgo8xy/Yw69DvN56MYCxRHBcmSX4MR2fPoSJKx0ac0/PqmqP3+8217wLQUG3+H03jUkbxMTqtBDuymPbwNlYlvsvC7GKNwlcmJZV+A1009CAFwP95jBl+C5fvC4IcYLotM8xjrscY6lpZejC9Pv5tch9hbCdL5zXOVwFA61muV5rvowJJfUzC+Ona+rlRx/GB18Lkkt6ojh+BSj8Zzc949Fq+4pELP4V8B7KAQbR2k7Uy8nBvTrt2m0u8CvSltkBi/3ddU/QSPzHy9YM3TIjP1HTyaxmDwm+PtTZ6eG/P92MzxmgUfjqEVej2hbza0Jp9i49tYrDaBVcuSbTJJTAViCIsCn6iYEb8FU714uRz5DurtC16l1iwKiQY6byMie2HhTj9u0O5LWaxQ+rnla9Iv5fvr28CII4lCpWyt/ERZWdVWTis+cjedFolbJI4sWai1Z+QL3jZ3od68Qkq+BsAdiUWez5CK7sKYV8mLPLV+/PLvnE7dy+Oci2LluxG9ZJdcRbYbqigu8IP83cpp6OA8f4OOGdjzTkMgsA4/XV9SwSet4Obe7djROwQw3f5pV18KtznAbFvAoCB7yP4KD+TMY8pulvqm2O/kqUJKk7YI3XopoECX4HKBPNbH67UuWHkecxVL4MNy+vr4p1vzFo0eJ0PlKUkxBqLVtH2fa7ro0KUHIm1iOOwFnEg8Pfle0Jgl0Jwf1How0KMcTyml5hvoxB7yADgnFXVNZc/JUvjNs4XwDYvb+vLQcx2JA9QV1tmdB+jlX7rljm/0hnV7dUhjd4Benkdn4QydEJVeQmrs4utLrbIWFj2Zm+0lNlwEQtzkYg+BjJwnEb4OIjCrtnSuQ6DBKATeKB9o3W13wNPGQ9wunUmVtClrm7Qw74KT3PSBVZZHplx/ghAbfwvqPkTMwn3vMfezwsL7TZbHP4wNFZyGyrDf/Xkx+0zKr3wavY8Dsv7M1sfacLYpQ8cGcppw4TE0brGfwL+T0f5c16hRmX7ijJ+0dR5ZZgxKszVWBN/Eb30MbLcMHCaYDSVzZelcROXtwCIQ6hDYe11gGxLKzXwnRs91CjgaSzGhPiPQjp5DCDIF1lsUMKHfw+qxZ9YnD9ktMY+s0lW9MGpQ/JqOo4LEXYZw6YUWS8tKwzGBnetSUSuLITLc+GRupTT16S8cvLm1OboIfn2wLaVVgZGZtz02rioZD/JDOt5jxbklCktZa09w4N6xmzU1dhcITwZe9b10WIuxUbkG4KaIxdTfpWV62O6Ho5FNT3GS5MxFirpIp0svol0xStIRVzsqQ0CGzFRQUvZZRql5zlaY2ZjQJwCk6C1xlPRVdmi/QxDL/Aovt9PZTThBfzUfA89yUsAjJPNPUMx/gGYlE3ZvQxzB1cuMmSFdRMnTkEcHjXvQaHOdpM+Mw1WGp8C4DOnNkVfzAzP5d44gJdq+8QPgup0GKY590XfuAd42qP7d6gLmsKj8qeopJ8Sqn0C9fE9Mci21ideN16o3ODifWmS1HrN0MQvKGP/L4dTYFYlzejBQY/lGscnvk9DTBzFal+3oJrCRCKvaey8BGBGTfxWqDe/kKGNinU8lrCfk6XxIy51OHSZ+RQq2dGe6KErxblhl2Mjzt88vZeRWMxelOjxH1ucngxHX0dhtusgAFuakcS/WxxYjfHpX6GSPJ3osJ6Z2VqxJlfiwodPdFBILAJeCtxk09fbZMEt8uu6ebEbtwkM4KGxpv1PTn5HMRY4FGOB13PNPmcBEPPUFYMiQje2t/XHjAkkVDqYyZXxnu9BFfs9wrysEq5Dy1q3Yl7sD27n5jPzFLMu0VLtDPQaNfhIx3ipQJl08rqHJKCnWAa1bQ616Jy6BdGPc6FnjDNHaiF+m9u1EVSalilNsZpc8vLyjjCq1EPsPeQHGc1+oeyP1DXFcp7kyFkAIJ2X4sOLo3PsL86rsb93nn0Cf2LECSahWnMjqNkLY0ZWqDX3x7+1rvE6vSdOUhy6U+J09HpnwTr0hFzGGBls+H4LYXgVInF/W1vHI7lsLrquOv4zHKItZs2GyZgTTq/qmstOkqXxKw5jgbnAudaOHgSgc0NXctdcPUnYSpZdhulwTPpcmL63+V2ZbBbGVsFfHVVtQq92rPyoIGtQQarx8c7zUvmFPor56VlDRpifE43/GdaLJxdb5Rcog6fDMVa4Az3zl3BB82ejNv5DL+hPa4k92p6w9ocKF3ij5ZYvVPDfyNKiBS+tDIVcnyTUk1ZOAiAMyNBKSA2XUNFmFWrak5Zgzsf5ejnRRQ7x0iNdV5M4ET3dIgzG3sXizJWoYJXO2RRFiigqxtmYAlvaWB1/dXq1ebYYmLvhTIwpKNfEomFRXLAcWApGXnZgxqkxtn3dTcXZ7mWd0gu2C8wIQEu7KdweezAjqLdv1336SXTMjCdinzsxIubNr6sx/wumHW/olC2Gmif2BPTZC03DYaLX0r9nftI40ZwiFgf7WmEwSXGnlGdK9jVqTG+TH90EPQuAmMeG/nu6jCFUmkd7y6owK1+wuhQOmrLGdQeKcuGghwsOrjFX6pQ/5NjDyYhJ4tClYy8QWQ9DAyGMH0BvWYH7dxH+Cf5W469T8nrOUei9RlDOpw+Jlfy7YWL8JjFrljOxAr/INkT+ksJMki/GLhiXeb88LxTtsUd8LIxEpKpAkrJ7vLPSe29goFVLqXkrtOicVo2zcd79wf7JCHkT46U38PsRMclnX6yJfC4XRrhOGdu2IynXdqOM7oVKO0rX6Si8fxjUmt2y5eUlDIIQw/rE1YkyczTUouN6cx+AW75hfpKYURt/CI3D5fbv8InovS/3OqPnWQAwQDoTINpe+PDLMS/7mm2CIovAlrxzMKh9IG+24KUB9kLPwRDtGfizeS53QznKjcVkNfgRf2J+e26aN7GSq5fwY2GkJtSyKnwH+BjK7cK7R+nfi59L3iJ9orGyOLtPo5qtAKBKDj+wOjFmTouzC8ZMxDwJgBhIURLHflnJxakwjegTV6o81LwpD2a7APyTOBF9DuuMPBH06mj3Xt6PwO99qVXv0vjxRKPCBB09GIl5LQdU1ePxTp8QgPrm8jcxLnsXqum+duXEOoYwyXnWLj5buCcB0Pft+E94bR6UjdCWsA76+Jb7Ir/R9m7/PiXacK9sig39GqH3YcrwwXxWYr3mm5m+2yhtIcIWwrThYr0ycQb2Yl+KHvjQzHSye864G7MMGYmCxmFj0Gyok9PsM+Wn2sdlj/EkAJwx0e3aXohbNrU18qFtgqKL0HfAgN4VV0gF7Y88Sal2W31T5BlXLxUoUbeJ9v3I7v7UVk9KLsNnOgPPmLDoRxcPzYYzvGl2JUL920WcMSB6C7s0PcM9zQJBV67qSSDz2UrSpszn/nCPSo9ZGXov6dT2xUFw4+vmFlfl74mxmDcXpgHJBBspNpH3jO/Lz3XN4XfQw70nLYOmS+toz3ddC4A4yxfdz349CWQ+d4VYwUyeM/MN8H4lHNbuBQvRC4vby9r2CKScytJ+2CBxIq1jML0PRgBgKzhme5i3hkAyv2qcG3tja0jfv0OZvjbml33R90vSf0qAMZtUADBI/iHGRBG3JXbdA4Cww0obXwRVARqDuhQCwSFgbQi/iIbJdsMQxj6l2uDE4W45cC0AnLCjZEQhmc/L4lWcQsAPBMSiGOj8XUoLezKk8RmRrgRA2I/AH43t/Kugl7Tokgy66lYhEBwCnEvrmsa4vwKwQ7l+OFQg+wnQlK4c+SC4EivKCoFMBPSXMp963mO/xhE9w+yeXfUAGtNG2REQ4bBTcTJXlb2u4hQCnhCwOsJ/x2AT1S77hZZ6uHBtnz1221BXAoBXpAKgcfr6tmTVk0IgOARSJiecSBdcw3pIWmfT3PkiAEmNLU8TVL8KgUIgADVHWudClPkjAKlDiyUGSKnCxjUpM4UAROUxsBCAbyNpnYO/gAPdIOJoC3TwKQlhg15qRwxzspuMpyKf2MWrcIVAIAhwvkJGF+54viOLT8c5qkDYSbpXOnG2Xww4YJ6rFsCyYaPCgkOAUiYdA8AwTlpv05w5CwAhe6YTZ/tFRh9nC1dhCoEgEQh1lUnrHWaJdt28fVfOhaMA4FAGqSQluRIAOcQqNggEJs2nm1DJ19rRhmai7T68Y6RdfDrcUQA0XRuRTpztF44bV2ULV2EKgaARwA6wVbI8eJRJ665411EAGJHvGsJqhNi7qi6FQMERsBiV1j2Nc6mHO8GwowBgeCslQjXtm4KXXGWoEAAC2KAlrXuMaI5bPh0FALlIiXQSy1YPU19JIRAkAjibTV73/OkBuNQHkN6pyZkIEgFFe0AjAMcE0rpHNY493/LLuQcgcr/x4lQTeRYqViEQEAKUS+seFsPCTjm7EAC5U9WKZEUgrvycGFfxCgGYO3TIUMAMpR8CIJci9EFSJmQMqjiFQJ4ISBtfeOqzNeFJ5+uiB7C3AxJEbm8NxplrmkH1qxCwQwDbcKUCgC0DPggAtd94IBiD9yU3QmRXBhWuEMgZAawEO9U9200z6UydCOCcC7mKc8A4Zz0rnZn6VQj4iQDaZqmOz4nmqJ47CgCM3eTdzKYNjt2Mn4VWtBQCWxFw0PEZl9ddEHIUALjOlEpR56ASqRRuZVbdKQT8RQAqkLTu4XQcad0V3DgLAMWxDpIrykKDJNEqSiEQGALwFi2te/B+La27gjFHAYAKJF1ts0qZ1FQisNIrwgMeAcwCSeuepslXigWAjgLAGJcKgO7C3mLAfykFQCAI4PgoqaGm5WAqIZhyFAAYw0kt7pykMJCSK6IKASCAMYC0ByCaJa27AkRHAeAWkRJhjOyqvoZCoJcQkNY9askbb8GzowAgzb9lhcNIe09ZvIpTCASDADwDEbKHjHaC8c9k8SLOUQCoTlZJiTjsGZa+qyIVAjkiMPmk+AhM0NieAyBcqF8/v/xrJ/KOAoCppI+lRDQq3TQvfVdFKgRyRKA04lDvKP/EDWlHATA3WatkhNAP7SmO7JSlUXEKAb8RwBSn1F0/lBt5w93NkKMAzHx2kJgGXScpgD40Gj9AEq+iFAL+I8D5QTKi2BD/viw+HecoACIh9KkV6Rey/Ya4JmUm2zsqTCGQDwLQ/6XOb7EGIPUdms7blQDA/4qUGFynSJlJZ6Z+FQJ+IQDVW1rnmEuP5a4EwLK4VABAxPWJHH4BoOgMXAQax5l7EWrvrgcLZGzjF7G33CDkSgCITpxO3j7cOEC+d9gNMyqNQsANAlyXH4IHX1YrZy2ljoZwIi9XAvDZJ6nzf+0JUpil7m0e5oZ5lUYhkC8CWHx1OrL3Zbd5uBKAu5fRLgyEX5ER1TW5VMreVXEKAY8ISE+BhEc46SmSmXm5EgDxAtzQyYlyPjaTsLpXCASBwOST2nemDqe/wAZIXlczGHMvAIxIj6aklB5z01helkFb3SoEfEcgGtNOlhGFprKmbn7kPVmazDjXAlAaj70o3R6JcUCiLH5sJnF1rxDwGwG0/lUympgefUYW3zPOtQBcs5i2c87/1pNA5jN24Z+a+azuFQJ+IpA68YWSE6U0OW2VxveIdC0A4j2oOVLiGuE1qVMle2SiHhUCfiCw+25xUfntHd7CV2IynlzkJS9PAsCJLhUALE7sNKom8WMvDKi0CgHXCGjkTFla6P/LjMUV0kMzer7vSQDqmsPvIBPpAAM2Gj/pmYl6Vgjki0BqoZVq1TI68AbdLIvPFudJAAQB7A+YnY3Q1jB+ujKP3oqGuvMHAf175mkYAA+WUWOcPi6LzxbnWQBCpSEHASBDhoXN2myZqTCFQO4I0Atl70Ized2YH/lAliZbnGcBmDwn/DbhVGpopFMiZTYbIypMIWCHgDHOHImz2KULrRAAp4Y5K3nPAiCoYLD9QFZqWwPHNJ6W2Gfro7pTCOSOgKax8zG/L6urVkeSPJxLDjKitvSsdksIQJdtAkqoVsout41XEQoBlwiI8SS2P/6PLDl8oC+c8UTsc1kau7icBEBMNaHLmWdHVISDqfN+feoG6QF7svdVnEJAILBjafxsMb0uQ0Oz+D2yeFlcTgKQIsg1aabosspiofDFssxVnEJAjgCncMvzS1kaNMRfvDkvtlCWRhaXswDUtYSfxmDgXRlxHFN5+VWjeVSWRsUpBOwQMGrj46BN72cXnwrX6B1zCLWkaSSROQsADCMgfPwWCW2YTpARw3Y2L5GlUXEKgewIcKpTel32uM2hqIDxdW2dd8rSOMXlIQCEWOtjD2L/pXTpmXEyyRjDy50YUfEKgUwEGmvNidja+IPMsJ73aGD/OGvR4HU9w7085yUAxgs0gZ7gd7IMweSO2uDEFbI0Kk4hkImAQTjc+nBp64/0VrJDm5X5Xi73eQmAyNBal7gdPxtkmWMed5IxdtNwWRoVpxBII6DXxM/XKN0//ZztF5rHI8aTkY+yxXkJy1sAjBcqNxBGb5ZmSumgUHlohjSNilQIAIFJJ6wbjMHjdBkY0P2TxNSceggZiS1xeQuAoFTCIr+FRK7dQjXLDQbM59VNbD8kS5QKUghsQSBWHqnDFLpUW8C+lD/VtUY+3PJSHje+CMCk+XQTpkRvlPGBQmlhTn8n9DtZOhU3cBFoGLfpAHgXkY8XcWppsos0+oWSb5VxdSJ6G4TASSf7kVatpkX9+nj9iY5oGLWQfi/KVCIrF04kmmUsiH4qS+MlzjcBuL2VdmDJ+mqnzDErdP2UsfHdndKp+IGFgF5tXor680OHUn/JNkZ9HUuGHDL0FD21KdY8vSb+PApyrN2LEICKcBn9A+JPsUvjezg8Vsyobq/qSZdRfmDPsAH1rNNh2XDBeO3QQuIgfH3CauB6pzwZo5Mx9d7mlM5LvK8CIDJOdlpXhML667i17co0yqsaquOX1bfEpGsIXgrikHYHrtHt7EUwLhnQl1hoyoaLMHgv1JVyolBiPoz85IulnPy9viXygN98+aYCpRkznqz4F9ylSwfEIi16gpvEoCf9nvodmAiMqo2LWZ/RDqXvYknrAmF+45DOc7TvAiA4WGPGpjsayuGAMxrSH1HGcp6/Wb95oaE2fhSM3aY6FYhZfGb9ggrpLkQnGnbxgQiAGBAnCfZwQpm0y1iEoxcYNWRE/C5ZGjdxpQksjQRzBUU3GG57UEXFCYR/CoW9R1aeH41T2kag8s3Bi7rsZVShd9gHMV8Hvpn5BSIAIgOjOfoS04h8hRjpsKhxTsOE9vwsRjvL1+FTwy7J3wsC+qW/FAtLTaPaF0HkyDnLiy6MI0OhsCYq/84O/HVxRs423qKdDulyjg5MAARH7N3oFBxn/IYTd5pObxXdoVM6u3jMDCShR861i881PMn4Y7m+Wwzvdftxkp7ukxOfXM8Ll9AQcxZmCo92yptbpK6+pWyZU7p84gMVgJTkMv0sMGg6MFmCTrXFGJ/Y2yGdbfT6ZPJKJ28Vti9nj7jDaClryR7Vd0I5Yz+HviI1WfdSGouRm+taIou9vJOZtrE6fjmeL8sMy3aPHv0Fa170pmxxfoYVZCawsab9Qqg6dzsxjkK/H/82Obr7aFan5NvFG+N4TNfN89G6/CcntGy7BA4BUHmgcrKvIYxzprSUtTok7zPR11Zt2hH7Uy/GFqZDLE49n+mcwoWwLxnXZ09rjjyda8GN2vbxOqHNqHTShhf1YI2VIP9htMY+yzUvt+8VRAAEM4217fdixH++E2Mo/BIrGR1rLKBxp7Qqvu8g0DAxfiRl5DkIU8yBawzd6di65uhzDul8iZZKoi85dBNZbcYuxYDmNSeaAOgoPRRvVu4VnZDqO/ENNW0Ho/K3uqj84kzqawtV+QWCBesBRGbCw5ce4q8BiB3Fs+zCVsp5bH30dDHAlaVTccWNgDGxY1+dWS+6+eZQQOdMbY6dWcgSFawHEIUSVnwWJeNx6zQoJjice4JeaT6aOhShkIiovHxDoLvyP+um8mOg/o+1X0XP9S1zl4QK2gOkebquOj4R/kPhzcK5B4LH3yfZ+ojoCXyf50/zo379RyCl9hDtaTeVHy3/R+0J64czWyvW+M+JnGJBe4A0K9NaYnMBzDXpZ9kvDOdORU/wpDqAT4ZSccWlBrxEe95V5SdkHbe0U3qj8gvUekUARMZTmmI3Y85xprh3ugDkcYky80VxRKZTWhXfuwiIqc7u2R5Ht5gY8G5KMlLl5VRHv0vXKypQZiFm1MZvg/4nFkccL8wifWp1WacKi1PHxCpBwRFILXJp5FZUKjcNK8aB9OSpTdEXC85oRoa9LgCwPafYRHMvjILOy+DL9hYLXBuJxc6qm1e2nX2/7UsqIlAEUrY9wrzBxQqvYAQNXiejbPy0ueWLAmXMBXE3kuqCTD5JKE82xy5Ea+C4UixySR2To9MF0yea9UJ48slZvZs/AsKqM1RpPg9KjuYN3bmZxVL5BT9FVYGuq4nfgtmhq7qBcv7h5Im2zs5zbnhyh/XOiVUKvxEwasyjQ5Q/DrquxmZC54dJzGm9rfZk4lBUAiAYa6xub6Aarctk0uH+35gqPbu+OfpXh3Qq2icExDbGzTu5UptZpPb8GVmuEwNeoyX2SkZYr98WnQAIRBontP8PXAP/HreuwIVOyWA6+/8/+yxaf/cy2tXrqPZjBsQGdlLCH0bFGe26mJjnF1OdvTnbY8drUQqAYLaxpu1kTCY8jinQCjvme4aji13OKb+gvqns1Z5x6jk/BAz47RGuS6hGhPcG+Qb2jKzQOP0jblrjemueP4OVrLdFKwCC29RqItfmA/SRWbnPHmjBjui3LBmtUxal2QHyGiqcF6ScVjn77dmWNGx7hHnDrKXU0fRl2xcL91TUAiBg+NW4b4dVhkKPYbh+vBdYxJoBWp9r4HpFDNLUlQMCwlGt8NXZ7a7Q1s1NFtJiNzKsOmOBb2jJkrenoKIXAFGa1KBrojkDTjEmeSodEuND/M2i/EqjqUz4KlKXCwRS6g5clGOScIZLc4YtVIE37HnoTwtp0rwl8xxu+oQApMslltlDnN6H3mBYOszVL2wu0BvMJpZmFONAzFUZCpKIU3Eyizicwsk/fzZ2APIL2Ml1diF2cmXLP5ewPiUAooBi4UUP0wcwnzw2hwKja+YPW5beaMyPfJDD+/30ldRq/Hh4iTOcjiWyAaBLbGAXe3gNAkugPnT1OQHYjC0+WLX5C1iciBmJqFe8xbQp1uNb8Pub+ubYUq/v95f0YtedOIdXHEXqeBqjTaGF3x7huiRo7w022ecd3EcFYHO5G6sS36UR9gevA+RM1CAESzmjd7ANkb8MlD0HYmcejq06P3UCu8Mh1JlYZd4Dt05u8RuE06og/fZk5hnEfZ8WgDQgjTXmf2O4ezMGbI4muOl3ev5Cf12PXWgPdSXYH42F5Y6+jHq+X+zPorUfHjFPxQD1QrjYHIsPn7sdGBzVCl+dQbkrLCSW/UIABGDXHv/t0NjgkkYYy12ER1cryLZA4wBwxvjjodLQ7Mlzwm/bpivyCLGddPfd4ieiqp9JqFadMiTMj+cvhYvyzV6a/XdUmx9rub3dbwQgXfyGCW0HaRqOz/S4bpB+P8vvSnzq1qTGWvnasr8Wu5okNg1FY9rJqOxVwOBElGeHLGXyFoRjicTJLOJwCpTfV//83hjxP3W/E4A0RN2mFA1Qiw5Ph/nwa0JVWopJ1SVM50t4vGyp0Uq/9YFuziSEbQ7XyVFYLReuBuFt2b9DP1DWJGbb/iTO5PLzWKKcCxvAi/1WANJYda8dNKA1PDgd5tdv92ySOK1wBbYmLIduvQKDyw9CXWUfpw4O9CsjEJ98UnxEaYTuhYHrvhDAgyDYo/DxRqFc3tZE3PGUmi4mCb3Br9MY3WVb+FT9XgA2Q4oFngnxKphZX40Kc2yBYBYeq1dhB9vXaJXX4v4bjdC1EJI4bJU6KeUdlGidECKMvRncFdJS3OMgTT4I4UPhxnAYnoeC113xtwcqfCRovsFjHPn8UZzA7sch1EHz6wf9ASIAW6FCj/Af8E/5K4ScjsKXbo0ZwHecfI5FsDvXtXXeOWvR4HUDCYkBJwDpj9ttZHcOnjEtSPZNhw+gXzh6Jgs1i9/z5rzYQjhpsgZQ2bcUdcAKwBYEcCO29mErJty484kAZHhmXH+7h5rzOv5m4wifh2c8Efu8v5XPa3mUAGQgJqxOD6xOjIH575mwGToN+vAuGdF981YYAnKyDB6Xm7F19HFlA7XtZ1QCsC0e2zyJDTlE06so4ydDTRoNsPrEmAEVfg14fQaTR63JeHKRsbhi9TYFUw9bEFACsAUK+Q1830RIZeIwDfPtGuNHwSHLEQCv19UlMRWLhbqVUN9eZkRbQi26RJl8y79lZqwSgEw0PN5PHt+2U1gPjQpRNgqaxoFQM74DK9M9sSglpi7zM8fowQta9TjyWIUTGldxxlfCkdgKprHlG7+IvVXMWw57FKPoHpUABPBJhA3OLiM6dtfCbGfYXQ/VuDYMawFDsQZQCSEJY+K/VPyi8RYqFZYFtA7874TgdKBym1jsWmuJNQPN+gYt+jcJxj+7fn751wGwqkgqBBQCCgGFgEJAIaAQUAgoBBQCCgGFgEJAIaAQUAgoBBQCCgGFgEJAIaAQ6LcI/C/r+66kCl1L6wAAAABJRU5ErkJggg==;" vertex="1" parent="9_3zUpzs3zl5Dn2b_ulE-25">
          <mxGeometry x="463.46" y="-50" width="100" height="100" as="geometry" />
        </mxCell>
        <mxCell id="9_3zUpzs3zl5Dn2b_ulE-26" value="" style="endArrow=classic;html=1;rounded=0;strokeWidth=8;strokeColor=#6666FF;entryX=1;entryY=0.25;entryDx=0;entryDy=0;" edge="1" parent="9_3zUpzs3zl5Dn2b_ulE-25" target="3">
          <mxGeometry width="50" height="50" relative="1" as="geometry">
            <mxPoint x="526" y="250" as="sourcePoint" />
            <mxPoint x="290" y="565" as="targetPoint" />
          </mxGeometry>
        </mxCell>
        <mxCell id="9_3zUpzs3zl5Dn2b_ulE-27" value="" style="endArrow=classic;html=1;rounded=0;strokeWidth=8;strokeColor=#6666FF;entryX=0.25;entryY=0;entryDx=0;entryDy=0;" edge="1" parent="9_3zUpzs3zl5Dn2b_ulE-25" target="9_3zUpzs3zl5Dn2b_ulE-18">
          <mxGeometry width="50" height="50" relative="1" as="geometry">
            <mxPoint x="540" y="250" as="sourcePoint" />
            <mxPoint x="699" y="650" as="targetPoint" />
          </mxGeometry>
        </mxCell>
        <mxCell id="9_3zUpzs3zl5Dn2b_ulE-28" value="" style="endArrow=classic;html=1;rounded=0;strokeWidth=8;strokeColor=#6666FF;" edge="1" parent="9_3zUpzs3zl5Dn2b_ulE-25" target="9_3zUpzs3zl5Dn2b_ulE-14">
          <mxGeometry width="50" height="50" relative="1" as="geometry">
            <mxPoint x="520" y="40" as="sourcePoint" />
            <mxPoint x="688" y="300" as="targetPoint" />
          </mxGeometry>
        </mxCell>
        <mxCell id="9_3zUpzs3zl5Dn2b_ulE-29" value="" style="endArrow=classic;html=1;rounded=0;strokeWidth=8;strokeColor=#6666FF;" edge="1" parent="9_3zUpzs3zl5Dn2b_ulE-25">
          <mxGeometry width="50" height="50" relative="1" as="geometry">
            <mxPoint x="740.16" y="600" as="sourcePoint" />
            <mxPoint x="299.83999999999986" y="842.4669603524226" as="targetPoint" />
          </mxGeometry>
        </mxCell>
        <mxCell id="9_3zUpzs3zl5Dn2b_ulE-30" value="" style="endArrow=classic;html=1;rounded=0;strokeWidth=8;strokeColor=#6666FF;" edge="1" parent="9_3zUpzs3zl5Dn2b_ulE-25" target="9_3zUpzs3zl5Dn2b_ulE-11">
          <mxGeometry width="50" height="50" relative="1" as="geometry">
            <mxPoint x="260" y="580" as="sourcePoint" />
            <mxPoint x="-180" y="822" as="targetPoint" />
          </mxGeometry>
        </mxCell>
        <mxCell id="9_3zUpzs3zl5Dn2b_ulE-31" value="" style="endArrow=classic;html=1;rounded=0;strokeWidth=8;strokeColor=#6666FF;dashed=1;" edge="1" parent="9_3zUpzs3zl5Dn2b_ulE-25">
          <mxGeometry width="50" height="50" relative="1" as="geometry">
            <mxPoint x="224.56999999999994" y="790" as="sourcePoint" />
            <mxPoint x="220" y="570" as="targetPoint" />
          </mxGeometry>
        </mxCell>
        <mxCell id="9_3zUpzs3zl5Dn2b_ulE-32" value="" style="endArrow=classic;html=1;rounded=0;strokeWidth=8;strokeColor=#6666FF;dashed=1;" edge="1" parent="9_3zUpzs3zl5Dn2b_ulE-25" target="9_3zUpzs3zl5Dn2b_ulE-18">
          <mxGeometry width="50" height="50" relative="1" as="geometry">
            <mxPoint x="320" y="810" as="sourcePoint" />
            <mxPoint x="578.0515441176467" y="710" as="targetPoint" />
          </mxGeometry>
        </mxCell>
        <mxCell id="9_3zUpzs3zl5Dn2b_ulE-33" value="" style="endArrow=classic;html=1;rounded=0;strokeWidth=8;strokeColor=#6666FF;dashed=1;entryX=0;entryY=0.25;entryDx=0;entryDy=0;" edge="1" parent="9_3zUpzs3zl5Dn2b_ulE-25">
          <mxGeometry width="50" height="50" relative="1" as="geometry">
            <mxPoint x="270" y="220" as="sourcePoint" />
            <mxPoint x="483.46000000000004" as="targetPoint" />
            <Array as="points">
              <mxPoint x="400" y="95" />
            </Array>
          </mxGeometry>
        </mxCell>
      </root>
    </mxGraphModel>
  </diagram>
</mxfile>
